<svg width="26" height="20" viewBox="0 0 26 20" fill="none" xmlns="http://www.w3.org/2000/svg">
<path d="M12.5498 2C16.7194 2.00004 20.1004 5.38026 20.1006 9.5498C20.1005 13.7194 16.7194 17.1005 12.5498 17.1006C8.38031 17.1004 5.00013 13.7193 5 9.5498C5.00021 5.38036 8.38036 2.00021 12.5498 2ZM12.5498 5.40039C12.3014 5.40056 12.0996 5.60216 12.0996 5.85059V9.09961H8.85059C8.60214 9.09961 8.40052 9.30139 8.40039 9.5498C8.40039 9.79833 8.60206 10 8.85059 10H12.0996V13.3506C12.0999 13.5988 12.3016 13.8006 12.5498 13.8008C12.7982 13.8008 12.9997 13.5989 13 13.3506V10H16.251L16.3408 9.99023C16.5458 9.94822 16.7002 9.76722 16.7002 9.5498C16.7001 9.33247 16.5458 9.15134 16.3408 9.10938L16.251 9.09961H13V5.85059C13 5.60206 12.7983 5.40039 12.5498 5.40039Z" fill="#303036"/>
</svg>
