<svg width="26" height="20" viewBox="0 0 26 20" fill="none" xmlns="http://www.w3.org/2000/svg">
<path d="M19.2002 9.5498C19.2 5.87729 16.2224 2.90039 12.5498 2.90039C8.87742 2.9006 5.9006 5.87742 5.90039 9.5498C5.90039 13.2224 8.87729 16.2 12.5498 16.2002C16.2225 16.2002 19.2002 13.2225 19.2002 9.5498ZM12.1006 13.25V10H8.85059C8.60206 10 8.40039 9.79833 8.40039 9.5498C8.4006 9.30146 8.60219 9.10059 8.85059 9.10059H12.1006V5.75C12.1007 5.50169 12.3015 5.30001 12.5498 5.2998C12.7983 5.2998 12.9999 5.50156 13 5.75V9.10059H16.25L16.3408 9.10938C16.5458 9.15129 16.7 9.33249 16.7002 9.5498C16.7002 9.7673 16.5459 9.94929 16.3408 9.99121L16.25 10H13V13.25C13 13.4985 12.7983 13.7002 12.5498 13.7002C12.3015 13.7 12.1006 13.4984 12.1006 13.25ZM20.1006 9.5498C20.1006 13.7196 16.7196 17.1006 12.5498 17.1006C8.38023 17.1004 5 13.7194 5 9.5498C5.00021 5.38036 8.38036 2.00021 12.5498 2C16.7194 2 20.1004 5.38023 20.1006 9.5498Z" fill="#303036"/>
</svg>
