<svg width="20" height="20" viewBox="0 0 20 20" fill="none" xmlns="http://www.w3.org/2000/svg">
<path d="M5 6C7.20867 6.00018 8.99963 7.7904 9 9.99902C9 12.208 7.2089 13.9998 5 14C2.79104 13.9999 1 12.208 1 9.99902C1.00037 7.79035 2.79127 6.00011 5 6ZM7.1875 8.00391C7.02444 7.9007 6.80768 7.94945 6.7041 8.1123L4.71387 11.2461L3.24512 9.80078L3.19043 9.75586C3.05395 9.66735 2.86961 9.68434 2.75098 9.80469C2.63234 9.92521 2.61825 10.11 2.70898 10.2451L2.75488 10.2988L4.44434 11.9619L4.52637 12.0264C4.72995 12.1504 5.00521 12.0946 5.13965 11.8828L7.2959 8.4873C7.39909 8.32418 7.35052 8.10741 7.1875 8.00391Z" fill="#303036"/>
<path d="M16.6003 5.9502C16.6003 8.13172 14.8316 9.90039 12.6501 9.90039C10.4686 9.90039 8.69989 8.13172 8.69989 5.9502C8.69989 3.76867 10.4686 2 12.6501 2C14.8316 2 16.6003 3.76867 16.6003 5.9502Z" fill="#303036"/>
<path d="M19.4003 17.9497C19.4003 18.2241 19.2536 18.4301 19.0751 18.5493C18.9097 18.6596 18.7164 18.6997 18.5497 18.6997H6.85046C6.68371 18.6997 6.49045 18.6596 6.32507 18.5493C6.14652 18.4301 5.99988 18.2241 5.99988 17.9497V14.3267C7.99988 13.8267 9 12.5 9.35925 10.6362C10.3073 10.4779 11.3941 10.3999 12.5497 10.3999C13.9568 10.3999 14.7938 10.3995 16.3387 10.7085L16.6415 10.7808C18.143 11.1912 19.4002 12.3733 19.4003 13.9536V17.9497Z" fill="#303036"/>
</svg>
