<svg width="178" height="54" viewBox="0 0 178 54" fill="none" xmlns="http://www.w3.org/2000/svg">
<rect x="2" y="2" width="174" height="50" rx="25" stroke="url(#paint0_linear_297_6355)" stroke-width="4"/>
<path d="M41.0861 20.906C41.8127 20.8596 42.2778 21.6662 41.8746 22.2724L33.2497 35.2179L33.1638 35.3285C32.7061 35.8312 31.8366 35.6377 31.6642 34.9418L30.3064 29.46C30.0605 28.5909 29.7427 28.0194 29.0861 27.3384L25.0084 23.4143C24.4574 22.8837 24.7993 21.9519 25.5627 21.9028L41.0861 20.906ZM26.3815 22.9524C26.286 22.9586 26.2434 23.0753 26.3124 23.1416L29.9069 26.5904C29.9656 26.6468 30.0507 26.6661 30.1281 26.6406L35.1844 24.973C35.4111 24.8982 35.5774 25.1869 35.3992 25.3457L31.4279 28.8863C31.3671 28.9406 31.3412 29.024 31.3607 29.1031L32.5519 33.9481C32.5748 34.041 32.6972 34.0625 32.7503 33.9828L40.5901 22.2168C40.6406 22.141 40.5824 22.0402 40.4915 22.046L26.3815 22.9524Z" fill="url(#paint1_linear_297_6355)"/>
<path d="M72.532 21.832L69.412 33H66.772L64.676 25.048L62.484 33L59.86 33.016L56.852 21.832H59.252L61.22 30.504L63.492 21.832H65.988L68.132 30.456L70.116 21.832H72.532ZM75.1306 23.08C74.736 23.08 74.4053 22.9573 74.1386 22.712C73.8826 22.456 73.7546 22.1413 73.7546 21.768C73.7546 21.3947 73.8826 21.0853 74.1386 20.84C74.4053 20.584 74.736 20.456 75.1306 20.456C75.5253 20.456 75.8506 20.584 76.1066 20.84C76.3733 21.0853 76.5066 21.3947 76.5066 21.768C76.5066 22.1413 76.3733 22.456 76.1066 22.712C75.8506 22.9573 75.5253 23.08 75.1306 23.08ZM76.2346 24.136V33H73.9946V24.136H76.2346ZM77.8717 28.536C77.8717 27.64 78.0477 26.8453 78.3997 26.152C78.7624 25.4587 79.2478 24.9253 79.8558 24.552C80.4744 24.1787 81.1624 23.992 81.9198 23.992C82.5811 23.992 83.1571 24.1253 83.6478 24.392C84.1491 24.6587 84.5491 24.9947 84.8478 25.4V24.136H87.1038V33H84.8478V31.704C84.5598 32.12 84.1598 32.4667 83.6478 32.744C83.1464 33.0107 82.5651 33.144 81.9038 33.144C81.1571 33.144 80.4744 32.952 79.8558 32.568C79.2478 32.184 78.7624 31.6453 78.3997 30.952C78.0477 30.248 77.8717 29.4427 77.8717 28.536ZM84.8478 28.568C84.8478 28.024 84.7411 27.56 84.5278 27.176C84.3144 26.7813 84.0264 26.4827 83.6638 26.28C83.3011 26.0667 82.9118 25.96 82.4958 25.96C82.0798 25.96 81.6958 26.0613 81.3438 26.264C80.9918 26.4667 80.7038 26.7653 80.4798 27.16C80.2664 27.544 80.1598 28.0027 80.1598 28.536C80.1598 29.0693 80.2664 29.5387 80.4798 29.944C80.7038 30.3387 80.9918 30.6427 81.3438 30.856C81.7064 31.0693 82.0904 31.176 82.4958 31.176C82.9118 31.176 83.3011 31.0747 83.6638 30.872C84.0264 30.6587 84.3144 30.36 84.5278 29.976C84.7411 29.5813 84.8478 29.112 84.8478 28.568ZM88.7155 28.536C88.7155 27.64 88.8915 26.8453 89.2435 26.152C89.6062 25.4587 90.0968 24.9253 90.7155 24.552C91.3342 24.1787 92.0222 23.992 92.7795 23.992C93.3555 23.992 93.9048 24.12 94.4275 24.376C94.9502 24.6213 95.3662 24.952 95.6755 25.368V21.16H97.9475V33H95.6755V31.688C95.3982 32.1253 95.0088 32.4773 94.5075 32.744C94.0062 33.0107 93.4248 33.144 92.7635 33.144C92.0168 33.144 91.3342 32.952 90.7155 32.568C90.0968 32.184 89.6062 31.6453 89.2435 30.952C88.8915 30.248 88.7155 29.4427 88.7155 28.536ZM95.6915 28.568C95.6915 28.024 95.5848 27.56 95.3715 27.176C95.1582 26.7813 94.8702 26.4827 94.5075 26.28C94.1448 26.0667 93.7555 25.96 93.3395 25.96C92.9235 25.96 92.5395 26.0613 92.1875 26.264C91.8355 26.4667 91.5475 26.7653 91.3235 27.16C91.1102 27.544 91.0035 28.0027 91.0035 28.536C91.0035 29.0693 91.1102 29.5387 91.3235 29.944C91.5475 30.3387 91.8355 30.6427 92.1875 30.856C92.5502 31.0693 92.9342 31.176 93.3395 31.176C93.7555 31.176 94.1448 31.0747 94.5075 30.872C94.8702 30.6587 95.1582 30.36 95.3715 29.976C95.5848 29.5813 95.6915 29.112 95.6915 28.568ZM104.071 33.144C103.218 33.144 102.45 32.9573 101.767 32.584C101.085 32.2 100.546 31.6613 100.151 30.968C99.7673 30.2747 99.5753 29.4747 99.5753 28.568C99.5753 27.6613 99.7726 26.8613 100.167 26.168C100.573 25.4747 101.122 24.9413 101.815 24.568C102.509 24.184 103.282 23.992 104.135 23.992C104.989 23.992 105.762 24.184 106.455 24.568C107.149 24.9413 107.693 25.4747 108.087 26.168C108.493 26.8613 108.695 27.6613 108.695 28.568C108.695 29.4747 108.487 30.2747 108.071 30.968C107.666 31.6613 107.111 32.2 106.407 32.584C105.714 32.9573 104.935 33.144 104.071 33.144ZM104.071 31.192C104.477 31.192 104.855 31.096 105.207 30.904C105.57 30.7013 105.858 30.4027 106.071 30.008C106.285 29.6133 106.391 29.1333 106.391 28.568C106.391 27.7253 106.167 27.08 105.719 26.632C105.282 26.1733 104.743 25.944 104.103 25.944C103.463 25.944 102.925 26.1733 102.487 26.632C102.061 27.08 101.847 27.7253 101.847 28.568C101.847 29.4107 102.055 30.0613 102.471 30.52C102.898 30.968 103.431 31.192 104.071 31.192ZM121.346 24.008C122.434 24.008 123.309 24.344 123.97 25.016C124.642 25.6773 124.978 26.6053 124.978 27.8V33H122.738V28.104C122.738 27.4107 122.562 26.8827 122.21 26.52C121.858 26.1467 121.378 25.96 120.77 25.96C120.162 25.96 119.677 26.1467 119.314 26.52C118.962 26.8827 118.786 27.4107 118.786 28.104V33H116.546V28.104C116.546 27.4107 116.37 26.8827 116.018 26.52C115.666 26.1467 115.186 25.96 114.578 25.96C113.96 25.96 113.469 26.1467 113.106 26.52C112.754 26.8827 112.578 27.4107 112.578 28.104V33H110.338V24.136H112.578V25.208C112.866 24.8347 113.234 24.5413 113.682 24.328C114.141 24.1147 114.642 24.008 115.186 24.008C115.88 24.008 116.498 24.1573 117.042 24.456C117.586 24.744 118.008 25.16 118.306 25.704C118.594 25.192 119.01 24.7813 119.554 24.472C120.109 24.1627 120.706 24.008 121.346 24.008ZM131.04 33.144C130.187 33.144 129.419 32.9573 128.736 32.584C128.053 32.2 127.515 31.6613 127.12 30.968C126.736 30.2747 126.544 29.4747 126.544 28.568C126.544 27.6613 126.741 26.8613 127.136 26.168C127.541 25.4747 128.091 24.9413 128.784 24.568C129.477 24.184 130.251 23.992 131.104 23.992C131.957 23.992 132.731 24.184 133.424 24.568C134.117 24.9413 134.661 25.4747 135.056 26.168C135.461 26.8613 135.664 27.6613 135.664 28.568C135.664 29.4747 135.456 30.2747 135.04 30.968C134.635 31.6613 134.08 32.2 133.376 32.584C132.683 32.9573 131.904 33.144 131.04 33.144ZM131.04 31.192C131.445 31.192 131.824 31.096 132.176 30.904C132.539 30.7013 132.827 30.4027 133.04 30.008C133.253 29.6133 133.36 29.1333 133.36 28.568C133.36 27.7253 133.136 27.08 132.688 26.632C132.251 26.1733 131.712 25.944 131.072 25.944C130.432 25.944 129.893 26.1733 129.456 26.632C129.029 27.08 128.816 27.7253 128.816 28.568C128.816 29.4107 129.024 30.0613 129.44 30.52C129.867 30.968 130.4 31.192 131.04 31.192ZM140.699 33.144C139.974 33.144 139.323 33.016 138.747 32.76C138.171 32.4933 137.712 32.136 137.371 31.688C137.04 31.24 136.859 30.744 136.827 30.2H139.083C139.126 30.5413 139.291 30.824 139.579 31.048C139.878 31.272 140.246 31.384 140.683 31.384C141.11 31.384 141.44 31.2987 141.675 31.128C141.92 30.9573 142.043 30.7387 142.043 30.472C142.043 30.184 141.894 29.9707 141.595 29.832C141.307 29.6827 140.843 29.5227 140.203 29.352C139.542 29.192 138.998 29.0267 138.571 28.856C138.155 28.6853 137.792 28.424 137.483 28.072C137.184 27.72 137.035 27.2453 137.035 26.648C137.035 26.1573 137.174 25.7093 137.451 25.304C137.739 24.8987 138.144 24.5787 138.667 24.344C139.2 24.1093 139.824 23.992 140.539 23.992C141.595 23.992 142.438 24.2587 143.067 24.792C143.696 25.3147 144.043 26.024 144.107 26.92H141.963C141.931 26.568 141.782 26.2907 141.515 26.088C141.259 25.8747 140.912 25.768 140.475 25.768C140.07 25.768 139.755 25.8427 139.531 25.992C139.318 26.1413 139.211 26.3493 139.211 26.616C139.211 26.9147 139.36 27.144 139.659 27.304C139.958 27.4533 140.422 27.608 141.051 27.768C141.691 27.928 142.219 28.0933 142.635 28.264C143.051 28.4347 143.408 28.7013 143.707 29.064C144.016 29.416 144.176 29.8853 144.187 30.472C144.187 30.984 144.043 31.4427 143.755 31.848C143.478 32.2533 143.072 32.5733 142.539 32.808C142.016 33.032 141.403 33.144 140.699 33.144ZM142.347 21.72L138.667 23.4V21.8L142.347 19.896V21.72ZM145.45 28.568C145.45 27.6507 145.637 26.8507 146.01 26.168C146.383 25.4747 146.901 24.9413 147.562 24.568C148.223 24.184 148.981 23.992 149.834 23.992C150.933 23.992 151.839 24.2693 152.554 24.824C153.279 25.368 153.765 26.136 154.01 27.128H151.594C151.466 26.744 151.247 26.4453 150.938 26.232C150.639 26.008 150.266 25.896 149.818 25.896C149.178 25.896 148.671 26.1307 148.298 26.6C147.925 27.0587 147.738 27.7147 147.738 28.568C147.738 29.4107 147.925 30.0667 148.298 30.536C148.671 30.9947 149.178 31.224 149.818 31.224C150.725 31.224 151.317 30.8187 151.594 30.008H154.01C153.765 30.968 153.279 31.7307 152.554 32.296C151.829 32.8613 150.922 33.144 149.834 33.144C148.981 33.144 148.223 32.9573 147.562 32.584C146.901 32.2 146.383 31.6667 146.01 30.984C145.637 30.2907 145.45 29.4853 145.45 28.568ZM151.466 21.832L147.786 23.512V21.912L151.466 20.008V21.832Z" fill="url(#paint2_linear_297_6355)"/>
<defs>
<linearGradient id="paint0_linear_297_6355" x1="0" y1="27" x2="178" y2="27" gradientUnits="userSpaceOnUse">
<stop stop-color="#456A87"/>
<stop offset="1" stop-color="#564587"/>
</linearGradient>
<linearGradient id="paint1_linear_297_6355" x1="0.0416688" y1="27.9167" x2="164.125" y2="27.9167" gradientUnits="userSpaceOnUse">
<stop stop-color="#456A87"/>
<stop offset="1" stop-color="#564587"/>
</linearGradient>
<linearGradient id="paint2_linear_297_6355" x1="-6.69149" y1="27" x2="181.303" y2="27" gradientUnits="userSpaceOnUse">
<stop stop-color="#456A87"/>
<stop offset="1" stop-color="#564587"/>
</linearGradient>
</defs>
</svg>
