<svg width="134" height="54" viewBox="0 0 134 54" fill="none" xmlns="http://www.w3.org/2000/svg">
<rect width="134" height="54" rx="27" fill="url(#paint0_linear_291_6266)"/>
<path d="M29.4994 22.6001C31.9293 22.6001 33.8996 24.5697 33.8998 26.9995C33.8998 29.4295 31.9294 31.3999 29.4994 31.3999C27.0697 31.3997 25.1 29.4293 25.1 26.9995C25.1002 24.5698 27.0698 22.6003 29.4994 22.6001ZM29.5004 24.4712C29.295 24.4713 29.1285 24.6388 29.1283 24.8442V26.6284H27.3432C27.138 26.6288 26.9712 26.7953 26.9711 27.0005C26.9716 27.2054 27.1382 27.3722 27.3432 27.3726H29.1283V29.2153L29.1361 29.2905C29.1713 29.4595 29.321 29.5883 29.5004 29.5884C29.6797 29.588 29.8307 29.4596 29.8656 29.2905L29.8725 29.2153V27.3726H31.6557L31.6674 27.3716L31.7201 27.3667L31.7299 27.3647C31.8994 27.3302 32.0273 27.1802 32.0277 27.0005C32.0276 26.8428 31.9297 26.708 31.7914 26.6538L31.7299 26.6362L31.7201 26.6333L31.6674 26.6284H29.8725V24.8442C29.8723 24.639 29.7056 24.4716 29.5004 24.4712Z" fill="#FAF8F5"/>
<path d="M42.2603 22.5452C42.2603 24.9448 40.3148 26.8904 37.9151 26.8904C35.5154 26.8904 33.5699 24.9448 33.5699 22.5452C33.5699 20.1455 35.5154 18.2 37.9151 18.2C40.3148 18.2 42.2603 20.1455 42.2603 22.5452Z" fill="#FAF8F5"/>
<path d="M45.3403 35.7447C45.3403 36.0465 45.179 36.2732 44.9826 36.4043C44.8007 36.5256 44.5881 36.5697 44.4046 36.5697H31.5355C31.3521 36.5697 31.1395 36.5256 30.9576 36.4043C30.7612 36.2732 30.5999 36.0465 30.5999 35.7447V31.7594C32.7999 31.2094 33.9 29.75 34.2952 27.6999C35.3381 27.5258 36.5335 27.44 37.8046 27.4399C39.3525 27.4399 40.2731 27.4395 41.9726 27.7794L42.3056 27.8589C43.9573 28.3104 45.3402 29.6107 45.3403 31.349V35.7447Z" fill="#FAF8F5"/>
<path d="M67.008 21.832C68.1813 21.832 69.2107 22.0613 70.096 22.52C70.992 22.9787 71.68 23.6347 72.16 24.488C72.6507 25.3307 72.896 26.312 72.896 27.432C72.896 28.552 72.6507 29.5333 72.16 30.376C71.68 31.208 70.992 31.8533 70.096 32.312C69.2107 32.7707 68.1813 33 67.008 33H63.104V21.832H67.008ZM66.928 31.096C68.1013 31.096 69.008 30.776 69.648 30.136C70.288 29.496 70.608 28.5947 70.608 27.432C70.608 26.2693 70.288 25.3627 69.648 24.712C69.008 24.0507 68.1013 23.72 66.928 23.72H65.344V31.096H66.928ZM78.5088 33.144C77.6554 33.144 76.8874 32.9573 76.2048 32.584C75.5221 32.2 74.9834 31.6613 74.5888 30.968C74.2048 30.2747 74.0128 29.4747 74.0128 28.568C74.0128 27.6613 74.2101 26.8613 74.6048 26.168C75.0101 25.4747 75.5594 24.9413 76.2528 24.568C76.9461 24.184 77.7194 23.992 78.5728 23.992C79.4261 23.992 80.1994 24.184 80.8928 24.568C81.5861 24.9413 82.1301 25.4747 82.5248 26.168C82.9301 26.8613 83.1328 27.6613 83.1328 28.568C83.1328 29.4747 82.9248 30.2747 82.5087 30.968C82.1034 31.6613 81.5488 32.2 80.8448 32.584C80.1514 32.9573 79.3728 33.144 78.5088 33.144ZM78.5088 31.192C78.9141 31.192 79.2928 31.096 79.6448 30.904C80.0074 30.7013 80.2954 30.4027 80.5088 30.008C80.7221 29.6133 80.8288 29.1333 80.8288 28.568C80.8288 27.7253 80.6048 27.08 80.1568 26.632C79.7194 26.1733 79.1808 25.944 78.5408 25.944C77.9008 25.944 77.3621 26.1733 76.9248 26.632C76.4981 27.08 76.2848 27.7253 76.2848 28.568C76.2848 29.4107 76.4928 30.0613 76.9088 30.52C77.3354 30.968 77.8688 31.192 78.5088 31.192ZM84.1999 28.536C84.1999 27.64 84.3759 26.8453 84.7279 26.152C85.0905 25.4587 85.5812 24.9253 86.1999 24.552C86.8185 24.1787 87.5065 23.992 88.2639 23.992C88.8399 23.992 89.3892 24.12 89.9119 24.376C90.4345 24.6213 90.8505 24.952 91.1599 25.368V21.16H93.4319V33H91.1599V31.688C90.8825 32.1253 90.4932 32.4773 89.9919 32.744C89.4905 33.0107 88.9092 33.144 88.2479 33.144C87.5012 33.144 86.8185 32.952 86.1999 32.568C85.5812 32.184 85.0905 31.6453 84.7279 30.952C84.3759 30.248 84.1999 29.4427 84.1999 28.536ZM91.1759 28.568C91.1759 28.024 91.0692 27.56 90.8559 27.176C90.6425 26.7813 90.3545 26.4827 89.9919 26.28C89.6292 26.0667 89.2399 25.96 88.8239 25.96C88.4079 25.96 88.0239 26.0613 87.6719 26.264C87.3199 26.4667 87.0319 26.7653 86.8079 27.16C86.5945 27.544 86.4879 28.0027 86.4879 28.536C86.4879 29.0693 86.5945 29.5387 86.8079 29.944C87.0319 30.3387 87.3199 30.6427 87.6719 30.856C88.0345 31.0693 88.4185 31.176 88.8239 31.176C89.2399 31.176 89.6292 31.0747 89.9919 30.872C90.3545 30.6587 90.6425 30.36 90.8559 29.976C91.0692 29.5813 91.1759 29.112 91.1759 28.568ZM95.0436 28.536C95.0436 27.64 95.2196 26.8453 95.5716 26.152C95.9343 25.4587 96.4196 24.9253 97.0276 24.552C97.6463 24.1787 98.3343 23.992 99.0916 23.992C99.753 23.992 100.329 24.1253 100.82 24.392C101.321 24.6587 101.721 24.9947 102.02 25.4V24.136H104.276V33H102.02V31.704C101.732 32.12 101.332 32.4667 100.82 32.744C100.318 33.0107 99.737 33.144 99.0756 33.144C98.329 33.144 97.6463 32.952 97.0276 32.568C96.4196 32.184 95.9343 31.6453 95.5716 30.952C95.2196 30.248 95.0436 29.4427 95.0436 28.536ZM102.02 28.568C102.02 28.024 101.913 27.56 101.7 27.176C101.486 26.7813 101.198 26.4827 100.836 26.28C100.473 26.0667 100.084 25.96 99.6676 25.96C99.2516 25.96 98.8676 26.0613 98.5156 26.264C98.1636 26.4667 97.8756 26.7653 97.6516 27.16C97.4383 27.544 97.3316 28.0027 97.3316 28.536C97.3316 29.0693 97.4383 29.5387 97.6516 29.944C97.8756 30.3387 98.1636 30.6427 98.5156 30.856C98.8783 31.0693 99.2623 31.176 99.6676 31.176C100.084 31.176 100.473 31.0747 100.836 30.872C101.198 30.6587 101.486 30.36 101.7 29.976C101.913 29.5813 102.02 29.112 102.02 28.568ZM107.599 23.08C107.194 23.08 106.858 22.9573 106.591 22.712C106.335 22.456 106.207 22.1413 106.207 21.768C106.207 21.3947 106.335 21.0853 106.591 20.84C106.858 20.584 107.194 20.456 107.599 20.456C107.994 20.456 108.319 20.584 108.575 20.84C108.831 21.0853 108.959 21.3947 108.959 21.768C108.959 22.1413 108.831 22.456 108.575 22.712C108.319 22.9573 107.994 23.08 107.599 23.08ZM108.703 34.456C108.703 35.4373 108.458 36.1413 107.967 36.568C107.487 37.0053 106.794 37.224 105.887 37.224H104.895V35.32H105.535C105.877 35.32 106.117 35.2507 106.255 35.112C106.394 34.984 106.463 34.7707 106.463 34.472V24.136H108.703V34.456Z" fill="#FAF8F5"/>
<defs>
<linearGradient id="paint0_linear_291_6266" x1="0" y1="27" x2="174.2" y2="27" gradientUnits="userSpaceOnUse">
<stop stop-color="#456A87"/>
<stop offset="1" stop-color="#564587"/>
</linearGradient>
</defs>
</svg>
