<svg width="217" height="66" viewBox="0 0 217 66" fill="none" xmlns="http://www.w3.org/2000/svg">
<rect width="216.75" height="66" rx="33" fill="#0074A7"/>
<path d="M61.6766 26.091C60.3589 25.8133 59.1657 25.1283 58.2709 24.1357C57.3762 23.1432 56.8266 21.895 56.7023 20.5732V20H52.1569V37.7713C52.1541 38.558 51.9011 39.3241 51.4335 39.962C50.9659 40.5998 50.3072 41.0772 49.55 41.3272C48.7928 41.5772 47.975 41.5872 47.2117 41.3558C46.4485 41.1243 45.778 40.6631 45.2945 40.0369C44.8035 39.4002 44.5311 38.626 44.5169 37.8265C44.5026 37.0271 44.7473 36.2439 45.2153 35.5907C45.6833 34.9374 46.3503 34.448 47.1197 34.1934C47.8891 33.9388 48.7208 33.9322 49.4942 34.1746V29.6252C47.7695 29.3904 46.0135 29.6924 44.4716 30.4892C42.9298 31.286 41.6793 32.5376 40.8951 34.069C40.1108 35.6003 39.8321 37.3349 40.0979 39.03C40.3636 40.7252 41.1605 42.2961 42.3772 43.523C43.5375 44.6925 45.0252 45.4949 46.6504 45.8278C48.2756 46.1606 49.9647 46.0088 51.502 45.3917C53.0392 44.7746 54.355 43.7202 55.2812 42.3632C56.2075 41.0061 56.7022 39.4079 56.7023 37.7726V28.692C58.5393 29.9857 60.7419 30.6795 63 30.6755V26.2262C62.5553 26.2267 62.1117 26.1814 61.6766 26.091Z" fill="#EFF4F8"/>
<path d="M107.639 33.7334L95.5682 20.1381C95.4049 19.954 95.0981 19.954 94.9348 20.1381L82.8641 33.7334C82.7481 33.8636 82.7176 34.0541 82.7863 34.2176C82.8549 34.3811 83.0091 34.4859 83.1815 34.4859H86.1988V45.5523C86.1988 45.8 86.3911 46 86.6292 46H92.5524C92.7905 46 92.9828 45.8 92.9828 45.5523V39.2611H97.5172V45.5523C97.5172 45.8 97.7095 46 97.9476 46H103.871C104.109 46 104.301 45.8 104.301 45.5523V34.4859H107.318C107.489 34.4859 107.645 34.3811 107.714 34.2176C107.782 34.0541 107.752 33.8652 107.636 33.7334H107.639Z" fill="#EFF4F8"/>
<path d="M129.47 26.66H131.87C132.61 26.66 133.95 26.72 134.93 27.5C135.35 27.82 136.13 28.64 136.13 30.26C136.13 30.92 135.99 32.08 134.81 32.88C136.67 33.34 137.35 34.96 137.35 36.24C137.35 37.52 136.71 38.56 135.99 39.12C134.93 39.96 133.71 40 132.79 40H129.47V26.66ZM130.95 28.06V32.52H132.07C132.85 32.52 134.69 32.36 134.69 30.3C134.69 28.1 132.53 28.06 132.11 28.06H130.95ZM130.95 33.84V38.6H132.65C133.51 38.6 134.35 38.54 134.99 38.04C135.51 37.66 135.87 37 135.87 36.2C135.87 35.14 135.25 34.52 134.73 34.24C134.23 33.96 133.53 33.84 132.47 33.84H130.95ZM141.155 31.7V36.54C141.155 37.12 141.155 37.8 141.555 38.32C141.775 38.6 142.215 38.96 143.015 38.96C143.815 38.96 144.255 38.6 144.475 38.32C144.875 37.8 144.875 37.12 144.875 36.54V31.7H146.315V36.7C146.315 37.72 146.215 38.48 145.555 39.2C144.815 39.98 143.835 40.24 143.015 40.24C142.195 40.24 141.215 39.98 140.475 39.2C139.815 38.48 139.715 37.72 139.715 36.7V31.7H141.155ZM151.952 33.02H150.512V40H149.072V33.02H148.192V31.7H149.072V28.7H150.512V31.7H151.952V33.02ZM156.62 33.02H155.18V40H153.74V33.02H152.86V31.7H153.74V28.7H155.18V31.7H156.62V33.02ZM161.857 40.24C159.337 40.24 157.457 38.4 157.457 35.88C157.457 33.36 159.317 31.5 161.857 31.5C164.397 31.5 166.257 33.36 166.257 35.88C166.257 38.4 164.377 40.24 161.857 40.24ZM161.857 32.78C160.337 32.78 158.937 33.86 158.937 35.88C158.937 37.92 160.377 38.96 161.857 38.96C163.357 38.96 164.777 37.9 164.777 35.88C164.777 33.84 163.377 32.78 161.857 32.78ZM168.465 40V31.7H169.905V32.66C170.165 32.32 170.905 31.5 172.285 31.5C173.265 31.5 174.165 31.9 174.665 32.64C175.085 33.26 175.145 33.94 175.145 34.86V40H173.705V34.9C173.705 34.4 173.665 33.82 173.325 33.38C173.045 33.02 172.605 32.78 171.965 32.78C171.465 32.78 170.925 32.92 170.505 33.42C169.945 34.08 169.905 35.06 169.905 35.66V40H168.465Z" fill="#EFF4F8"/>
</svg>
