<svg width="219" height="66" viewBox="0 0 219 66" fill="none" xmlns="http://www.w3.org/2000/svg">
<g filter="url(#filter0_i_815_255)">
<rect width="218.5" height="66" rx="33" fill="#EFF4F8"/>
<rect x="1.5" y="1.5" width="215.5" height="63" rx="31.5" stroke="#00344D" stroke-width="3"/>
<path d="M61.6766 26.091C60.3589 25.8133 59.1657 25.1283 58.2709 24.1357C57.3762 23.1432 56.8266 21.895 56.7023 20.5732V20H52.1569V37.7713C52.1541 38.558 51.9011 39.3241 51.4335 39.962C50.9659 40.5998 50.3072 41.0772 49.55 41.3272C48.7928 41.5772 47.975 41.5872 47.2117 41.3558C46.4485 41.1243 45.778 40.6631 45.2945 40.0369C44.8035 39.4002 44.5311 38.626 44.5169 37.8265C44.5026 37.0271 44.7473 36.2439 45.2153 35.5907C45.6833 34.9374 46.3503 34.448 47.1197 34.1934C47.8891 33.9388 48.7208 33.9322 49.4942 34.1746V29.6252C47.7695 29.3904 46.0135 29.6924 44.4716 30.4892C42.9298 31.286 41.6793 32.5376 40.8951 34.069C40.1108 35.6003 39.8321 37.3349 40.0979 39.03C40.3636 40.7252 41.1605 42.2961 42.3772 43.523C43.5375 44.6925 45.0252 45.4949 46.6504 45.8278C48.2756 46.1606 49.9647 46.0088 51.502 45.3917C53.0392 44.7746 54.355 43.7202 55.2812 42.3632C56.2075 41.0061 56.7022 39.4079 56.7023 37.7726V28.692C58.5393 29.9857 60.7419 30.6795 63 30.6755V26.2262C62.5553 26.2267 62.1117 26.1814 61.6766 26.091Z" fill="#00344D"/>
<path d="M109.389 33.7334L97.3182 20.1381C97.1549 19.954 96.8481 19.954 96.6848 20.1381L84.6141 33.7334C84.4981 33.8636 84.4676 34.0541 84.5363 34.2176C84.6049 34.3811 84.7591 34.4859 84.9315 34.4859H87.9488V45.5523C87.9488 45.8 88.1411 46 88.3792 46H94.3024C94.5405 46 94.7328 45.8 94.7328 45.5523V39.2611H99.2672V45.5523C99.2672 45.8 99.4595 46 99.6976 46H105.621C105.859 46 106.051 45.8 106.051 45.5523V34.4859H109.068C109.239 34.4859 109.395 34.3811 109.464 34.2176C109.532 34.0541 109.502 33.8652 109.386 33.7334H109.389Z" fill="#00344D"/>
<path d="M131.22 26.66H133.62C134.36 26.66 135.7 26.72 136.68 27.5C137.1 27.82 137.88 28.64 137.88 30.26C137.88 30.92 137.74 32.08 136.56 32.88C138.42 33.34 139.1 34.96 139.1 36.24C139.1 37.52 138.46 38.56 137.74 39.12C136.68 39.96 135.46 40 134.54 40H131.22V26.66ZM132.7 28.06V32.52H133.82C134.6 32.52 136.44 32.36 136.44 30.3C136.44 28.1 134.28 28.06 133.86 28.06H132.7ZM132.7 33.84V38.6H134.4C135.26 38.6 136.1 38.54 136.74 38.04C137.26 37.66 137.62 37 137.62 36.2C137.62 35.14 137 34.52 136.48 34.24C135.98 33.96 135.28 33.84 134.22 33.84H132.7ZM142.905 31.7V36.54C142.905 37.12 142.905 37.8 143.305 38.32C143.525 38.6 143.965 38.96 144.765 38.96C145.565 38.96 146.005 38.6 146.225 38.32C146.625 37.8 146.625 37.12 146.625 36.54V31.7H148.065V36.7C148.065 37.72 147.965 38.48 147.305 39.2C146.565 39.98 145.585 40.24 144.765 40.24C143.945 40.24 142.965 39.98 142.225 39.2C141.565 38.48 141.465 37.72 141.465 36.7V31.7H142.905ZM153.702 33.02H152.262V40H150.822V33.02H149.942V31.7H150.822V28.7H152.262V31.7H153.702V33.02ZM158.37 33.02H156.93V40H155.49V33.02H154.61V31.7H155.49V28.7H156.93V31.7H158.37V33.02ZM163.607 40.24C161.087 40.24 159.207 38.4 159.207 35.88C159.207 33.36 161.067 31.5 163.607 31.5C166.147 31.5 168.007 33.36 168.007 35.88C168.007 38.4 166.127 40.24 163.607 40.24ZM163.607 32.78C162.087 32.78 160.687 33.86 160.687 35.88C160.687 37.92 162.127 38.96 163.607 38.96C165.107 38.96 166.527 37.9 166.527 35.88C166.527 33.84 165.127 32.78 163.607 32.78ZM170.215 40V31.7H171.655V32.66C171.915 32.32 172.655 31.5 174.035 31.5C175.015 31.5 175.915 31.9 176.415 32.64C176.835 33.26 176.895 33.94 176.895 34.86V40H175.455V34.9C175.455 34.4 175.415 33.82 175.075 33.38C174.795 33.02 174.355 32.78 173.715 32.78C173.215 32.78 172.675 32.92 172.255 33.42C171.695 34.08 171.655 35.06 171.655 35.66V40H170.215Z" fill="#00344D"/>
</g>
<defs>
<filter id="filter0_i_815_255" x="0" y="0" width="218.5" height="70" filterUnits="userSpaceOnUse" color-interpolation-filters="sRGB">
<feFlood flood-opacity="0" result="BackgroundImageFix"/>
<feBlend mode="normal" in="SourceGraphic" in2="BackgroundImageFix" result="shape"/>
<feColorMatrix in="SourceAlpha" type="matrix" values="0 0 0 0 0 0 0 0 0 0 0 0 0 0 0 0 0 0 127 0" result="hardAlpha"/>
<feOffset dy="4"/>
<feGaussianBlur stdDeviation="2"/>
<feComposite in2="hardAlpha" operator="arithmetic" k2="-1" k3="1"/>
<feColorMatrix type="matrix" values="0 0 0 0 0.101961 0 0 0 0 0.101961 0 0 0 0 0.0941176 0 0 0 0.5 0"/>
<feBlend mode="normal" in2="shape" result="effect1_innerShadow_815_255"/>
</filter>
</defs>
</svg>
