<svg width="26" height="20" viewBox="0 0 26 20" fill="none" xmlns="http://www.w3.org/2000/svg">
<path d="M5 4.15039C5 3.50186 5.50186 3 6.15039 3H20.25L20.3779 3.00781C20.672 3.04293 20.9316 3.19536 21.1182 3.38184C21.3313 3.59495 21.4999 3.90372 21.5 4.25V13.1504C21.4999 13.4967 21.3313 13.8054 21.1182 14.0186C20.905 14.2316 20.5962 14.4004 20.25 14.4004H15.0498C15.0247 14.4004 15.0031 14.4004 14.9805 14.4014C14.9581 14.4024 14.9391 14.4029 14.9248 14.4053C14.9239 14.406 14.9237 14.4075 14.9229 14.4082L14.873 14.4414L9.07227 17.7412C8.93305 17.8203 8.76245 17.8197 8.62402 17.7393C8.4856 17.6588 8.40053 17.5107 8.40039 17.3506V14.6504C8.40039 14.5967 8.36907 14.5048 8.28223 14.418C8.19541 14.3312 8.10343 14.2998 8.0498 14.2998H6.25C5.90373 14.2997 5.59495 14.1311 5.38184 13.918C5.16882 13.7048 5 13.396 5 13.0498V4.15039ZM5.90039 13.0498C5.90039 13.1034 5.93171 13.1954 6.01855 13.2822C6.10523 13.3688 6.19637 13.4003 6.25 13.4004H8.0498C8.3961 13.4004 8.70482 13.5691 8.91797 13.7822C9.13112 13.9954 9.2998 14.304 9.2998 14.6504V16.5762L14.3877 13.6807C14.5258 13.5705 14.6831 13.5341 14.7764 13.5186C14.8925 13.4992 15.0022 13.5 15.0498 13.5H20.25C20.3036 13.5 20.3956 13.4687 20.4824 13.3818C20.5689 13.2952 20.6005 13.204 20.6006 13.1504V4.25C20.6005 4.19639 20.5689 4.10521 20.4824 4.01855C20.4173 3.95342 20.3493 3.91914 20.2969 3.90625L20.25 3.90039H6.15039C5.99892 3.90039 5.90039 3.99892 5.90039 4.15039V13.0498Z" fill="#303036"/>
<path d="M8.75018 9.05029C8.75018 8.49801 9.1979 8.05029 9.75018 8.05029C10.3025 8.05029 10.7502 8.49801 10.7502 9.05029C10.7502 9.60258 10.3025 10.0503 9.75018 10.0503C9.1979 10.0503 8.75018 9.60258 8.75018 9.05029Z" fill="#303036"/>
<path d="M12.2502 9.05029C12.2502 8.49801 12.6979 8.05029 13.2502 8.05029C13.8025 8.05029 14.2502 8.49801 14.2502 9.05029C14.2502 9.60258 13.8025 10.0503 13.2502 10.0503C12.6979 10.0503 12.2502 9.60258 12.2502 9.05029Z" fill="#303036"/>
<path d="M15.7502 9.05029C15.7502 8.49801 16.1979 8.05029 16.7502 8.05029C17.3025 8.05029 17.7502 8.49801 17.7502 9.05029C17.7502 9.60258 17.3025 10.0503 16.7502 10.0503C16.1979 10.0503 15.7502 9.60258 15.7502 9.05029Z" fill="#303036"/>
</svg>
