<svg width="20" height="20" viewBox="0 0 20 20" fill="none" xmlns="http://www.w3.org/2000/svg">
<path d="M17.6006 4.15039C17.6006 4.01777 17.5247 3.92516 17.4043 3.9043L17.3506 3.90039H3.15039C2.99893 3.90039 2.90039 3.9989 2.90039 4.15039V13.1504C2.90048 13.3018 2.999 13.4004 3.15039 13.4004H7.25L7.33496 13.4082C7.41766 13.4241 7.49523 13.4633 7.55762 13.5215L10.25 16.0342L12.9434 13.5215L13.0098 13.4697C13.0812 13.4246 13.1644 13.4004 13.25 13.4004H17.3506C17.5018 13.4002 17.6005 13.3016 17.6006 13.1504V4.15039ZM18.5 13.1504C18.4999 13.7987 17.9989 14.2996 17.3506 14.2998H13.4277L10.5576 16.9795C10.3848 17.1408 10.1163 17.1406 9.94336 16.9795L7.07324 14.2998H3.15039C2.50191 14.2998 2.0001 13.7988 2 13.1504V4.15039C2 3.50188 2.50185 3 3.15039 3H17.3506L17.4697 3.00586C18.0593 3.06321 18.5 3.54232 18.5 4.15039V13.1504Z" fill="#303036"/>
<path d="M5.75 8.65039C5.75 8.09811 6.19772 7.65039 6.75 7.65039C7.30228 7.65039 7.75 8.09811 7.75 8.65039C7.75 9.20268 7.30228 9.65039 6.75 9.65039C6.19772 9.65039 5.75 9.20268 5.75 8.65039Z" fill="#303036"/>
<path d="M9.25 8.65039C9.25 8.09811 9.69772 7.65039 10.25 7.65039C10.8023 7.65039 11.25 8.09811 11.25 8.65039C11.25 9.20268 10.8023 9.65039 10.25 9.65039C9.69772 9.65039 9.25 9.20268 9.25 8.65039Z" fill="#303036"/>
<path d="M12.75 8.65039C12.75 8.09811 13.1977 7.65039 13.75 7.65039C14.3023 7.65039 14.75 8.09811 14.75 8.65039C14.75 9.20268 14.3023 9.65039 13.75 9.65039C13.1977 9.65039 12.75 9.20268 12.75 8.65039Z" fill="#303036"/>
</svg>
