<svg width="24" height="20" viewBox="0 0 24 20" fill="none" xmlns="http://www.w3.org/2000/svg">
<path d="M22.323 8.18688L12.6985 13.6866C12.5755 13.7569 12.4245 13.7569 12.3015 13.6866L5.6 9.85714V13C6.2 13.6 7.4 16.2 5.3 16.2C3.2 16.2 4.4 13.6 5 13V9.51429L2.67705 8.18688C2.39415 8.02523 2.41286 7.61126 2.7092 7.4758L12.3337 3.07602C12.4393 3.02774 12.5607 3.02774 12.6663 3.07602L22.2908 7.4758C22.5871 7.61126 22.6059 8.02523 22.323 8.18688Z" fill="#303036"/>
<path d="M12.2991 14.3818L7.98538 11.8443C7.72262 11.6898 7.39092 11.8748 7.40676 12.1792C7.50888 14.1417 8.42328 15.6575 12.3355 17.4263C12.4386 17.4729 12.5614 17.4729 12.6645 17.4263C16.5632 15.6633 17.5146 14.1264 17.6706 12.1924C17.6954 11.8855 17.3628 11.6925 17.0962 11.8464L12.7019 14.3834C12.5771 14.4555 12.4233 14.4549 12.2991 14.3818Z" fill="#303036"/>
</svg>
