<svg width="20" height="20" viewBox="0 0 20 20" fill="none" xmlns="http://www.w3.org/2000/svg">
<path d="M10.4379 6.15389C10.4379 7.89564 9.03002 9.30777 7.29352 9.30777C5.55703 9.30777 4.14917 7.89564 4.14917 6.15389C4.14917 4.41213 5.55703 3 7.29352 3C9.03002 3 10.4379 4.41213 10.4379 6.15389Z" fill="#303036"/>
<path d="M12.6667 15.7344C12.6667 15.9535 12.55 16.118 12.4078 16.2131C12.2762 16.3012 12.1224 16.3332 11.9896 16.3332H2.67707C2.54433 16.3332 2.3905 16.3012 2.25886 16.2131C2.11673 16.118 2 15.9535 2 15.7344V12.5408C2.00016 11.209 3.04209 10.2168 4.35768 9.95293L4.67406 9.89523C5.42873 9.76883 6.29379 9.70656 7.21364 9.70654C8.33371 9.70654 8.99994 9.70622 10.2297 9.95293L10.4707 10.0106C11.6659 10.3384 12.6667 11.2821 12.6667 12.5439V15.7344Z" fill="#303036"/>
<path d="M16.1427 6.5172C16.1427 7.96868 14.9695 9.14547 13.5224 9.14547C12.0753 9.14547 10.9021 7.96868 10.9021 6.5172C10.9021 5.06571 12.0753 3.88892 13.5224 3.88892C14.9695 3.88892 16.1427 5.06571 16.1427 6.5172Z" fill="#303036"/>
<path d="M18 14.5011C18 14.6836 17.9027 14.8207 17.7843 14.9C17.6746 14.9734 17.5464 15.0001 17.4358 15.0001C17.4358 15.0001 14.9996 15.0001 13.3108 15.0002C13.2003 15.0002 13.1112 14.9103 13.1112 14.7998C13.1112 13.5774 13.1112 12.7553 13.1112 12.3335C13.1112 11.0936 12.4259 10.3348 11.0716 9.86794C10.9762 9.83506 10.9769 9.70295 11.0758 9.68311L11.3395 9.63503C11.9684 9.52969 12.6893 9.47779 13.4558 9.47778C14.3892 9.47778 14.9444 9.47752 15.9692 9.68311L16.17 9.73119C17.166 10.0043 18 10.7908 18 11.8423V14.5011Z" fill="#303036"/>
</svg>
