<svg width="26" height="20" viewBox="0 0 26 20" fill="none" xmlns="http://www.w3.org/2000/svg">
<path d="M13 1C12.8896 1 12.8 1.09971 12.8 1.09971L4.2 7.79971C4.2 7.79971 4 7.99971 4 8.09971V18.4997C4 18.6997 4.2 18.8997 4.4 18.8997H10.6C10.8 18.8997 11 18.6997 11 18.4997V14.8997C11 13.7997 11.9 12.8997 13 12.8997C14.1 12.8997 15 13.7997 15 14.8997V18.4997C15 18.6997 15.2 18.8997 15.4 18.8997H21.6C21.8 18.8997 22 18.6997 22 18.4997V8.09971C22 7.99971 22 7.89971 21.8 7.79971L13.2 1.09971C13.2 1.09971 13.1104 1 13 1Z" fill="#303036"/>
</svg>
