<svg width="26" height="20" viewBox="0 0 26 20" fill="none" xmlns="http://www.w3.org/2000/svg">
<path d="M13 2.07812L21.1 8.37812V17.9781H15.9V14.8781C15.9 13.2781 14.6 11.9781 13 11.9781C11.4 11.9781 10.1 13.2781 10.1 14.8781V17.9781H4.9V8.37812L13 2.07812ZM13 1C12.9117 1 12.8 1.07812 12.8 1.07812L4.2 7.77812C4.2 7.77812 4 7.97813 4 8.07812V18.4781C4 18.6781 4.2 18.8781 4.4 18.8781H10.6C10.8 18.8781 11 18.6781 11 18.4781V14.8781C11 13.7781 11.9 12.8781 13 12.8781C14.1 12.8781 15 13.7781 15 14.8781V18.4781C15 18.6781 15.2 18.8781 15.4 18.8781H21.6C21.8 18.8781 22 18.6781 22 18.4781V8.07812C22 7.97813 22 7.87812 21.8 7.77812L13.2 1.07812C13.2 1.07812 13.0883 1 13 1Z" fill="#303036"/>
</svg>
