<svg width="20" height="20" viewBox="0 0 20 20" fill="none" xmlns="http://www.w3.org/2000/svg">
<path d="M18.4502 7C18.4502 8.04477 18.0603 9.09135 17.3623 9.86719L17.2178 10.0186L10.3184 16.918C10.1426 17.0937 9.85738 17.0937 9.68164 16.918L2.78223 10.0186C1.9944 9.23073 1.5498 8.1144 1.5498 7C1.5498 4.55147 3.55147 2.5498 6 2.5498C7.23547 2.5498 8.33612 3.10916 9.11914 3.78418C9.47691 4.09263 9.77555 4.43503 10 4.77344C10.2244 4.43503 10.5231 4.09263 10.8809 3.78418C11.6639 3.10916 12.7645 2.5498 14 2.5498C16.4485 2.5498 18.4502 4.55147 18.4502 7Z" fill="#303036"/>
</svg>
