<svg width="20" height="20" viewBox="0 0 20 20" fill="none" xmlns="http://www.w3.org/2000/svg">
<path d="M3.21096 13.8262C3.2531 13.6736 3.44733 13.628 3.55276 13.7461L6.59279 17.167C6.70743 17.296 6.61594 17.5 6.44338 17.5H3.51565C2.85632 17.4996 2.37788 16.8724 2.55178 16.2363L3.21096 13.8262ZM10.1875 13.4033C10.2636 13.3799 10.3466 13.4034 10.3984 13.4639L13.5742 17.1699C13.6854 17.2996 13.5937 17.4999 13.4229 17.5H8.18263C8.12556 17.5 8.07114 17.4753 8.03322 17.4326L5.89064 15.0215C5.79394 14.9127 5.84234 14.7401 5.98146 14.6973L10.1875 13.4033ZM15.9727 11.623C16.0806 11.5898 16.1948 11.6527 16.2246 11.7617L17.4482 16.2363C17.6221 16.8725 17.1428 17.4998 16.4834 17.5H15.4063C15.2872 17.5 15.1942 17.3966 15.207 17.2783L15.8164 11.7969C15.8254 11.7179 15.8811 11.6514 15.957 11.6279L15.9727 11.623ZM14.6025 12.0449C14.7401 12.0026 14.8761 12.1148 14.8604 12.2578L14.416 16.251C14.3967 16.4248 14.1793 16.4922 14.0654 16.3594L11.4492 13.3076C11.3559 13.1983 11.4055 13.0287 11.543 12.9863L14.6025 12.0449ZM7.98048 9C8.05175 9.00003 8.11757 9.038 8.15334 9.09961L9.30665 11.0986C9.61455 11.632 10.3845 11.6319 10.6924 11.0986L11.8457 9.09961C11.8814 9.03801 11.9474 9.00016 12.0186 9H14.7061C15.1566 9.00014 15.552 9.30171 15.6709 9.73633L15.8818 10.5068C15.91 10.6107 15.8508 10.7181 15.7481 10.75L5.14943 14.0117C5.07473 14.0347 4.99347 14.0124 4.94143 13.9541L3.66311 12.5156C3.61822 12.4651 3.60141 12.3953 3.61916 12.3301L4.32912 9.73633C4.44798 9.30182 4.84256 9.00026 5.29299 9H7.98048ZM10 2C11.6568 2.0001 13 3.34321 13 5C13 5.54661 12.8511 6.05767 12.5957 6.49902V6.5L12.5967 6.50098L10.3467 10.3994C10.1927 10.6661 9.80729 10.6661 9.65333 10.3994L7.40334 6.50098V6.5L7.40431 6.49902C7.1489 6.05767 7.00002 5.54661 7.00002 5C7.00002 3.34315 8.34316 2 10 2ZM10 3C8.89544 3 8.00002 3.89543 8.00002 5C8.00002 6.10457 8.89544 7 10 7C11.1045 6.9999 12 6.10451 12 5C12 3.89549 11.1045 3.0001 10 3Z" fill="#303036"/>
</svg>
