<svg width="24" height="20" viewBox="0 0 24 20" fill="none" xmlns="http://www.w3.org/2000/svg">
<path d="M11.3173 2.41205C11.3877 2.2536 11.6122 2.2536 11.6826 2.41205L13.2441 5.92868C13.2873 6.02601 13.3996 6.07233 13.499 6.03415L17.0898 4.65132C17.2516 4.58903 17.4109 4.74833 17.3486 4.91012L15.9658 8.50096C15.9276 8.60032 15.974 8.71255 16.0713 8.75585L19.5889 10.3174C19.7468 10.3879 19.7468 10.6121 19.5889 10.6826L16.0713 12.2442C15.974 12.2874 15.9277 12.3997 15.9658 12.499L17.3486 16.0899C17.4109 16.2517 17.2516 16.411 17.0898 16.3487L13.499 14.9659C13.3996 14.9277 13.2873 14.9741 13.2441 15.0713L11.6826 18.5889C11.612 18.7468 11.3878 18.7469 11.3173 18.5889L9.75579 15.0713C9.71249 14.9741 9.60026 14.9276 9.5009 14.9659L5.91005 16.3487C5.74827 16.411 5.58897 16.2517 5.65126 16.0899L7.03409 12.499C7.07227 12.3996 7.02595 12.2874 6.92862 12.2442L3.41199 10.6826C3.25354 10.6123 3.25354 10.3877 3.41199 10.3174L6.92862 8.75585C7.02599 8.71261 7.07237 8.60039 7.03409 8.50096L5.65126 4.91012C5.58897 4.74833 5.74827 4.58903 5.91005 4.65132L9.5009 6.03415C9.60033 6.07243 9.71255 6.02605 9.75579 5.92868L11.3173 2.41205ZM14.2646 8.07616C14.0305 7.93006 13.7224 8.0013 13.5761 8.23534L11.4081 11.7012L9.85344 10.1465L9.77532 10.082C9.58125 9.95397 9.31723 9.97566 9.14641 10.1465C8.97558 10.3173 8.95389 10.5813 9.08195 10.7754L9.14641 10.8535L11.0576 12.7647C11.3304 13.0375 11.7857 12.9854 11.9902 12.6582L14.4238 8.76464C14.57 8.53049 14.4987 8.22247 14.2646 8.07616Z" fill="#303036"/>
</svg>
