<svg width="20" height="20" viewBox="0 0 20 20" fill="none" xmlns="http://www.w3.org/2000/svg">
<path d="M11.5 12C12.1528 12 12.707 12.4178 12.9131 13H15.5L15.6006 13.0098C15.8285 13.0563 15.9999 13.2584 16 13.5C16 13.7417 15.8285 13.9437 15.6006 13.9902L15.5 14H12.9131C12.7071 14.5825 12.153 15 11.5 15C10.847 15 10.2929 14.5825 10.0869 14H4.5C4.22386 14 4 13.7761 4 13.5C4.00013 13.224 4.22394 13 4.5 13H10.0869C10.293 12.4178 10.8472 12 11.5 12ZM11.5 12.9004C11.1687 12.9004 10.9005 13.1687 10.9004 13.5C10.9004 13.8314 11.1686 14.0996 11.5 14.0996C11.8314 14.0996 12.0996 13.8314 12.0996 13.5C12.0995 13.1687 11.8313 12.9004 11.5 12.9004ZM6.5 8.5C7.15301 8.5 7.70709 8.91755 7.91309 9.5H15.5C15.7761 9.5 16 9.72386 16 10C15.9999 10.2761 15.7761 10.5 15.5 10.5H7.91309C7.70697 11.0822 7.15284 11.5 6.5 11.5C5.84716 11.5 5.29303 11.0822 5.08691 10.5H4.5L4.39941 10.4902C4.1715 10.4437 4.00012 10.2416 4 10C4 9.7583 4.17147 9.55631 4.39941 9.50977L4.5 9.5H5.08691C5.29291 8.91755 5.84699 8.5 6.5 8.5ZM6.5 9.40039C6.16863 9.40039 5.90039 9.66863 5.90039 10C5.90052 10.3313 6.16871 10.5996 6.5 10.5996C6.83129 10.5996 7.09948 10.3313 7.09961 10C7.09961 9.66863 6.83137 9.40039 6.5 9.40039ZM13.5 5C14.1528 5 14.707 5.41777 14.9131 6H15.5L15.6006 6.00977C15.8285 6.05626 15.9999 6.25838 16 6.5C16 6.7417 15.8285 6.94369 15.6006 6.99023L15.5 7H14.9131C14.7071 7.58245 14.153 8 13.5 8C12.847 8 12.2929 7.58245 12.0869 7H4.5C4.22386 7 4 6.77614 4 6.5C4.00011 6.22395 4.22392 6 4.5 6H12.0869C12.293 5.41777 12.8472 5 13.5 5ZM13.5 5.90039C13.1687 5.90039 12.9005 6.16874 12.9004 6.5C12.9004 6.83137 13.1686 7.09961 13.5 7.09961C13.8314 7.09961 14.0996 6.83137 14.0996 6.5C14.0995 6.16874 13.8313 5.90039 13.5 5.90039Z" fill="#303036"/>
</svg>
