<svg width="26" height="20" viewBox="0 0 26 20" fill="none" xmlns="http://www.w3.org/2000/svg">
<path d="M15.6999 5.9502C15.6999 4.26573 14.3346 2.90039 12.6501 2.90039C10.9656 2.90039 9.60028 4.26573 9.60028 5.9502C9.60028 7.63466 10.9656 9 12.6501 9C14.3346 9 15.6999 7.63466 15.6999 5.9502ZM16.6003 5.9502C16.6003 8.13172 14.8316 9.90039 12.6501 9.90039C10.4686 9.90039 8.69989 8.13172 8.69989 5.9502C8.69989 3.76867 10.4686 2 12.6501 2C14.8316 2 16.6003 3.76867 16.6003 5.9502Z" fill="#303036"/>
<path d="M19.4003 17.9497C19.4003 18.2241 19.2536 18.4301 19.0751 18.5493C18.9097 18.6596 18.7164 18.6997 18.5497 18.6997H6.85046C6.68371 18.6997 6.49045 18.6596 6.32507 18.5493C6.14652 18.4301 5.99988 18.2241 5.99988 17.9497V13.9497C6.00008 12.2818 7.30903 11.039 8.96179 10.7085L9.35925 10.6362C10.3073 10.4779 11.3941 10.3999 12.5497 10.3999C13.9568 10.3999 14.7938 10.3995 16.3387 10.7085C17.9702 11.0349 19.4002 12.2681 19.4003 13.9536V17.9497ZM6.90027 17.8003H18.4999V13.9536C18.4998 12.8394 17.5302 11.865 16.162 11.5913C14.707 11.3003 13.9426 11.3003 12.5497 11.3003C11.4303 11.3003 10.3953 11.376 9.50867 11.5239L9.13855 11.5913C7.79159 11.8607 6.90047 12.818 6.90027 13.9497V17.8003Z" fill="#303036"/>
</svg>
