<svg width="26" height="20" viewBox="0 0 26 20" fill="none" xmlns="http://www.w3.org/2000/svg">
<path d="M16.6003 5.9502C16.6003 8.13172 14.8316 9.90039 12.6501 9.90039C10.4686 9.90039 8.69989 8.13172 8.69989 5.9502C8.69989 3.76867 10.4686 2 12.6501 2C14.8316 2 16.6003 3.76867 16.6003 5.9502Z" fill="#303036"/>
<path d="M19.4003 17.9497C19.4003 18.2241 19.2536 18.4301 19.0751 18.5493C18.9097 18.6596 18.7164 18.6997 18.5497 18.6997H6.85046C6.68371 18.6997 6.49045 18.6596 6.32507 18.5493C6.14652 18.4301 5.99988 18.2241 5.99988 17.9497V13.9497C6.00008 12.2818 7.30903 11.039 8.96179 10.7085L9.35925 10.6362C10.3073 10.4779 11.3941 10.3999 12.5497 10.3999C13.9568 10.3999 14.7938 10.3995 16.3387 10.7085L16.6415 10.7808C18.143 11.1912 19.4002 12.3733 19.4003 13.9536V17.9497Z" fill="#303036"/>
</svg>
