<svg width="20" height="20" viewBox="0 0 20 20" fill="none" xmlns="http://www.w3.org/2000/svg">
<path d="M9.3457 3.63877C9.99335 3.07804 11 3.53793 11 4.39463V15.6056C10.9997 16.4619 9.99326 16.9218 9.3457 16.3615L5.46484 13.0001H3C2.4478 13.0001 2.00014 12.5523 2 12.0001V8.00011C2 7.44782 2.44772 7.00011 3 7.00011H5.46484L9.3457 3.63877Z" fill="#303036"/>
<path d="M13.3447 6.50879L13.3408 6.50586L13.335 6.50195L13.3096 6.48535H13.3037C13.0313 6.32431 12.6787 6.40067 12.501 6.66699C12.3174 6.94231 12.3915 7.31395 12.666 7.49805L12.6719 7.50195L12.6729 7.50098C12.6788 7.50528 12.688 7.51338 12.7012 7.52344C12.7308 7.54605 12.7775 7.58481 12.8359 7.63672C12.9522 7.74014 13.1108 7.89782 13.2695 8.10938C13.5864 8.53187 13.9004 9.15933 13.9004 10C13.9004 10.8407 13.5864 11.4681 13.2695 11.8906C13.1107 12.1023 12.9523 12.2608 12.8359 12.3643C12.7776 12.4161 12.7308 12.454 12.7012 12.4766C12.6908 12.4844 12.6827 12.4908 12.6768 12.4951L12.665 12.502H12.6641L12.6572 12.5068L12.5801 12.5713L12.5732 12.5781C12.3769 12.7763 12.3401 13.0917 12.501 13.333C12.6617 13.5739 12.9663 13.6612 13.2246 13.5566L13.1875 13.4639L13.2256 13.5566L13.2344 13.5518L13.3047 13.5146H13.3096L13.332 13.5L13.3379 13.4971L13.3418 13.4932C13.3427 13.4926 13.3438 13.4919 13.3447 13.4912C13.3491 13.4882 13.3539 13.4853 13.3564 13.4834C13.3596 13.481 13.3618 13.4783 13.3643 13.4766C13.3807 13.4649 13.4023 13.4491 13.4277 13.4297C13.4792 13.3905 13.5502 13.3351 13.6328 13.2617C13.7976 13.1153 14.0146 12.8972 14.2305 12.6094C14.6634 12.0319 15.0996 11.1589 15.0996 10C15.0996 8.84112 14.6634 7.96812 14.2305 7.39062C14.0147 7.1029 13.7976 6.88572 13.6328 6.73926C13.5501 6.66575 13.4792 6.60955 13.4277 6.57031C13.4023 6.55094 13.3807 6.53514 13.3643 6.52344L13.3447 6.50879ZM13.3447 13.4912V13.4902M13.3447 13.4902C13.3479 13.4876 13.3507 13.4853 13.3525 13.4834C13.3535 13.4824 13.3538 13.4812 13.3545 13.4805C13.354 13.4811 13.3532 13.4817 13.3525 13.4824C13.3515 13.4835 13.3495 13.4846 13.3477 13.4863L13.3447 13.4902V13.4912M13.3447 6.50879L13.3477 6.51367C13.3495 6.51547 13.3515 6.51646 13.3525 6.51758L13.3545 6.51855L13.3447 6.50879Z" fill="#303036" stroke="#303036" stroke-width="0.2" stroke-linecap="round"/>
<path d="M18.5996 10.0002C18.5996 11.9041 17.9168 13.2793 17.2256 14.178C16.882 14.6246 16.5373 14.9528 16.2754 15.1711C16.2099 15.2257 16.149 15.2743 16.0947 15.3157L15.9521 15.4202L15.9492 15.4211L15.8213 15.5051L15.8184 15.5081L15.8086 15.5149C15.5244 15.6851 15.1557 15.5918 14.9854 15.3079C14.8368 15.0595 14.8884 14.7465 15.0938 14.5579L15.1016 14.551H15.1025L15.1748 14.4973L15.1807 14.4915L15.1904 14.4856L15.2021 14.4788L15.2627 14.4377C15.3185 14.3987 15.4029 14.336 15.5059 14.2502C15.7125 14.078 15.9934 13.8119 16.2744 13.4465C16.833 12.7202 17.4003 11.5958 17.4004 10.0002C17.4004 8.40436 16.8331 7.27928 16.2744 6.55298C15.9934 6.18769 15.7125 5.92146 15.5059 5.74927C15.4031 5.66364 15.3184 5.60174 15.2627 5.56274C15.235 5.54339 15.2144 5.52965 15.2021 5.52173L15.1895 5.51294L15.1816 5.50806L15.1016 5.44849L15.0928 5.44263L15.0938 5.44165C14.8883 5.25293 14.8365 4.94007 14.9854 4.69165C15.1504 4.41663 15.5002 4.32298 15.7803 4.47192H15.79L15.8154 4.4895L15.8271 4.49731C15.833 4.50087 15.8445 4.50744 15.8545 4.51392C15.8792 4.5299 15.9126 4.55264 15.9521 4.58032C16.0329 4.63691 16.1445 4.71931 16.2754 4.82837C16.5373 5.04669 16.8819 5.37486 17.2256 5.82153C17.9168 6.72022 18.5996 8.09625 18.5996 10.0002Z" fill="#303036" stroke="#303036" stroke-width="0.2" stroke-linecap="round"/>
</svg>
