<svg width="20" height="20" viewBox="0 0 20 20" fill="none" xmlns="http://www.w3.org/2000/svg">
<path d="M15 16.2302C14.9999 16.4585 14.9306 16.723 14.7178 16.8843C14.526 17.0296 14.3092 17.0221 14.1373 16.9492L14.0665 16.9138L13.9966 16.8646L10 13.3198L6.0034 16.8646L5.93352 16.9138C5.6706 17.0632 5.40796 16.9724 5.24637 16.8193C5.09688 16.6776 5.0001 16.4602 5 16.2302V6.92942C5 5.89869 5.29442 4.9327 5.7857 4.21473C6.27649 3.4975 6.98722 3.00011 7.80953 3H12.1905L12.3428 3.0059C13.1005 3.06303 13.7541 3.54216 14.2143 4.21473C14.7056 4.9327 15 5.89869 15 6.92942V16.2302Z" fill="#303036"/>
</svg>
