<svg width="20" height="20" viewBox="0 0 20 20" fill="none" xmlns="http://www.w3.org/2000/svg">
<path fill-rule="evenodd" clip-rule="evenodd" d="M3.88911 4.11091C6.03699 1.96303 9.5194 1.96303 11.6673 4.11091C13.5736 6.01723 13.7863 8.97361 12.3088 11.1164L16.6674 15.475L16.7358 15.5503C17.0565 15.9431 17.0337 16.523 16.6674 16.8892C16.3012 17.2555 15.7213 17.2783 15.3285 16.9576L15.2532 16.8892L10.8946 12.5306C8.7518 14.0081 5.79543 13.7954 3.88911 11.8891C1.74123 9.7412 1.74123 6.2588 3.88911 4.11091ZM5.36616 5.54653C3.99941 6.91329 3.99957 9.12943 5.36616 10.4963C6.733 11.8631 8.94908 11.8631 10.3159 10.4963C11.6825 9.12942 11.6827 6.91328 10.3159 5.54653C8.94915 4.18003 6.73294 4.18005 5.36616 5.54653Z" fill="#303036"/>
</svg>
