<svg width="20" height="20" viewBox="0 0 20 20" fill="none" xmlns="http://www.w3.org/2000/svg">
<g clip-path="url(#clip0_333_14912)">
<path d="M16.8203 9.35261C17.4134 9.64641 17.413 10.4929 16.82 10.7868L4.14537 17.0583L4.02742 17.1064C3.43858 17.2941 2.84197 16.7465 3.02257 16.1203L4.44529 11.1873C4.64674 10.3913 4.65634 9.79691 4.4489 8.9623L3.02224 4.01932C2.82966 3.35121 3.52237 2.77295 4.14565 3.08133L16.8203 9.35261ZM4.31324 4.27989C4.23526 4.2413 4.14861 4.31383 4.17286 4.39739L5.43511 8.74649C5.45575 8.81759 5.51398 8.87148 5.58647 8.88655L10.3253 9.87195C10.5377 9.91612 10.5375 10.219 10.325 10.2631L5.58901 11.2454C5.51648 11.2605 5.45821 11.3144 5.43756 11.3855L4.17318 15.7414C4.14892 15.825 4.23557 15.8975 4.31356 15.859L15.834 10.1591C15.9082 10.1224 15.9082 10.0166 15.834 9.97988L4.31324 4.27989Z" fill="#303036"/>
</g>
<defs>
<clipPath id="clip0_333_14912">
<rect width="20" height="20" fill="white"/>
</clipPath>
</defs>
</svg>
