<svg width="20" height="20" viewBox="0 0 20 20" fill="none" xmlns="http://www.w3.org/2000/svg">
<path d="M16.8965 4.45999C17.557 4.41787 17.9799 5.15116 17.6133 5.70218L9.7725 17.4708L9.69438 17.5714C9.2783 18.0284 8.48782 17.8525 8.3311 17.2198L7.09673 12.2364C6.87319 11.4463 6.58431 10.9268 5.98736 10.3077L2.28034 6.74028C1.77951 6.25796 2.09028 5.41082 2.78425 5.36624L16.8965 4.45999ZM3.52867 6.32043C3.44184 6.326 3.40306 6.43214 3.46585 6.49238L6.73353 9.62768C6.78696 9.67895 6.86433 9.6965 6.93465 9.67331L11.5313 8.15728C11.7373 8.08931 11.8886 8.35175 11.7266 8.49615L8.11628 11.7149C8.06099 11.7642 8.03748 11.84 8.05516 11.9119L9.13815 16.3165C9.15892 16.401 9.27023 16.4204 9.31847 16.348L16.4456 5.65163C16.4915 5.58273 16.4385 5.49108 16.3559 5.49639L3.52867 6.32043Z" fill="#303036"/>
</svg>
