<svg width="665" height="338" viewBox="0 0 665 338" fill="none" xmlns="http://www.w3.org/2000/svg">
<g clip-path="url(#clip0_1395_4863)">
<rect width="665" height="338" rx="35" fill="#E1E4E5"/>
<path d="M480.642 226C445.876 225.98 412.186 213.958 385.279 191.97C358.373 169.983 339.904 139.382 333.001 105.352C326.098 71.3221 331.187 35.9554 347.404 5.24325C363.621 -25.4689 389.97 -49.638 421.987 -63.1696C440.542 -71.0148 460.492 -75.0386 480.642 -74.9997C487.022 -75.0014 493.395 -74.6015 499.725 -73.8022C500.617 -73.6888 501.471 -73.3693 502.219 -72.869C502.967 -72.3687 503.588 -71.7014 504.032 -70.92C504.477 -70.1386 504.733 -69.2645 504.781 -68.3669C504.829 -67.4694 504.666 -66.5731 504.307 -65.749C502.188 -60.857 501.157 -55.5638 501.286 -50.235C501.415 -44.9063 502.701 -39.669 505.054 -34.8849C507.407 -30.1008 510.773 -25.8839 514.917 -22.5255C519.062 -19.1671 523.887 -16.7472 529.059 -15.4329C529.918 -15.2161 530.715 -14.8057 531.391 -14.2331C532.066 -13.6605 532.6 -12.941 532.954 -12.1298C533.307 -11.3186 533.469 -10.4374 533.429 -9.55373C533.388 -8.67009 533.145 -7.80757 532.718 -7.0324C529.324 -0.841522 527.783 6.19296 528.279 13.2335C528.774 20.2741 531.285 27.0242 535.513 32.6801C539.74 38.336 545.506 42.6596 552.123 45.136C558.741 47.6124 565.932 48.1373 572.84 46.6483C573.701 46.4626 574.593 46.4753 575.448 46.6853C576.303 46.8953 577.099 47.2972 577.775 47.8604C578.452 48.4236 578.991 49.1333 579.351 49.9357C579.712 50.7381 579.885 51.612 579.857 52.491C579.857 52.7479 579.857 53.0047 579.857 53.2652C579.866 63.0211 583.75 72.3749 590.655 79.275C597.561 86.1751 606.925 90.0582 616.693 90.0726C618.879 90.0728 621.061 89.8815 623.214 89.501C624.111 89.3455 625.032 89.4034 625.903 89.6701C626.774 89.9367 627.569 90.4046 628.225 91.0357C628.881 91.6668 629.379 92.4434 629.678 93.3025C629.978 94.1616 630.07 95.079 629.948 95.9804C624.986 132.009 607.132 165.026 579.686 188.927C552.239 212.828 517.056 225.997 480.642 226ZM480.642 -63.4228C403.944 -63.4228 341.54 -1.10285 341.54 75.5001C341.54 152.103 403.944 214.423 480.642 214.423C547.436 214.423 604.924 166.433 617.287 101.646H616.693C591.901 101.646 571.413 82.9419 568.584 58.9198C567.403 59.0067 566.221 59.0501 565.037 59.0501C538.322 59.0501 516.591 37.3434 516.591 10.6694C516.592 4.85269 517.64 -0.916451 519.684 -6.36311C508.906 -10.8118 500.092 -18.9873 494.854 -29.394C489.617 -39.8007 488.306 -51.7428 491.161 -63.0357C487.673 -63.2926 484.155 -63.4228 480.642 -63.4228Z" fill="#EFF4F8"/>
<path d="M448.514 50.7183C443.04 50.7183 437.688 49.097 433.136 46.0595C428.585 43.022 425.037 38.7047 422.942 33.6535C420.847 28.6023 420.299 23.0441 421.367 17.6818C422.435 12.3195 425.071 7.39389 428.942 3.52788C432.813 -0.338134 437.745 -2.97092 443.114 -4.03755C448.483 -5.10418 454.049 -4.55675 459.106 -2.46448C464.164 -0.372205 468.487 3.17093 471.528 7.71688C474.57 12.2628 476.193 17.6074 476.193 23.0748C476.184 30.4036 473.265 37.4299 468.077 42.6122C462.888 47.7945 455.852 50.7097 448.514 50.7183ZM448.514 7.0082C445.332 7.0082 442.222 7.95049 439.576 9.71591C436.931 11.4813 434.869 13.9906 433.651 16.9264C432.434 19.8622 432.115 23.0926 432.736 26.2092C433.357 29.3258 434.889 32.1886 437.139 34.4356C439.388 36.6825 442.255 38.2127 445.376 38.8326C448.496 39.4526 451.731 39.1344 454.67 37.9184C457.61 36.7023 460.122 34.643 461.89 32.0009C463.658 29.3588 464.601 26.2525 464.601 23.0748C464.596 18.8151 462.9 14.7313 459.884 11.7193C456.868 8.70725 452.779 7.01299 448.514 7.0082Z" fill="#EFF4F8"/>
<path d="M448.514 155.569C443.04 155.569 437.688 153.948 433.136 150.91C428.585 147.873 425.037 143.555 422.942 138.504C420.847 133.453 420.299 127.895 421.367 122.533C422.435 117.17 425.071 112.245 428.942 108.379C432.813 104.513 437.745 101.88 443.114 100.813C448.483 99.7466 454.049 100.294 459.106 102.386C464.164 104.479 468.487 108.022 471.528 112.568C474.57 117.114 476.193 122.458 476.193 127.926C476.184 135.254 473.265 142.281 468.077 147.463C462.888 152.645 455.852 155.56 448.514 155.569ZM448.514 111.859C445.332 111.859 442.222 112.801 439.576 114.567C436.931 116.332 434.869 118.841 433.651 121.777C432.434 124.713 432.115 127.943 432.736 131.06C433.357 134.177 434.889 137.039 437.139 139.286C439.388 141.533 442.255 143.063 445.376 143.683C448.496 144.303 451.731 143.985 454.67 142.769C457.61 141.553 460.122 139.494 461.89 136.852C463.658 134.21 464.601 131.103 464.601 127.926C464.596 123.666 462.9 119.582 459.884 116.57C456.868 113.558 452.779 111.864 448.514 111.859Z" fill="#EFF4F8"/>
<path d="M536.703 177.417C532.315 177.416 528.027 176.116 524.379 173.681C520.731 171.247 517.889 167.786 516.21 163.738C514.532 159.689 514.093 155.235 514.949 150.937C515.806 146.64 517.919 142.692 521.021 139.594C524.124 136.496 528.077 134.386 532.38 133.532C536.683 132.677 541.143 133.116 545.196 134.793C549.25 136.47 552.714 139.31 555.152 142.953C557.589 146.597 558.89 150.88 558.89 155.262C558.883 161.136 556.543 166.768 552.384 170.922C548.224 175.075 542.585 177.411 536.703 177.417ZM536.703 144.683C534.608 144.684 532.56 145.305 530.819 146.468C529.078 147.631 527.721 149.283 526.92 151.216C526.118 153.149 525.909 155.276 526.318 157.328C526.727 159.379 527.736 161.264 529.218 162.743C530.699 164.222 532.587 165.229 534.641 165.637C536.696 166.045 538.825 165.835 540.761 165.035C542.696 164.234 544.35 162.878 545.513 161.138C546.677 159.399 547.298 157.354 547.298 155.262C547.295 152.456 546.178 149.767 544.191 147.784C542.205 145.8 539.512 144.685 536.703 144.683Z" fill="#EFF4F8"/>
<path d="M394.428 103.144C388.954 103.144 383.602 101.522 379.05 98.4849C374.499 95.4474 370.951 91.1301 368.856 86.0789C366.761 81.0277 366.213 75.4695 367.281 70.1072C368.349 64.7449 370.985 59.8193 374.856 55.9533C378.727 52.0873 383.659 49.4545 389.028 48.3878C394.397 47.3212 399.963 47.8686 405.02 49.9609C410.078 52.0532 414.401 55.5963 417.442 60.1423C420.484 64.6882 422.107 70.0328 422.107 75.5002C422.099 82.8293 419.181 89.8561 413.992 95.0386C408.802 100.221 401.767 103.136 394.428 103.144ZM394.428 59.4336C391.246 59.4336 388.136 60.3759 385.49 62.1413C382.845 63.9067 380.783 66.416 379.565 69.3518C378.348 72.2875 378.029 75.518 378.65 78.6346C379.271 81.7512 380.803 84.614 383.053 86.8609C385.303 89.1079 388.169 90.6381 391.29 91.258C394.41 91.878 397.645 91.5598 400.584 90.3438C403.524 89.1277 406.036 87.0684 407.804 84.4263C409.572 81.7841 410.515 78.6778 410.515 75.5002C410.511 71.2405 408.814 67.1567 405.798 64.1447C402.782 61.1326 398.693 59.4384 394.428 59.4336Z" fill="#EFF4F8"/>
<path d="M502.601 103.144C497.126 103.144 491.774 101.524 487.222 98.4867C482.67 95.4496 479.121 91.1325 477.026 86.0814C474.93 81.0302 474.382 75.472 475.449 70.1094C476.517 64.7469 479.153 59.8209 483.024 55.9545C486.895 52.0882 491.826 49.455 497.196 48.3881C502.565 47.3212 508.131 47.8684 513.188 49.9606C518.246 52.0527 522.569 55.5959 525.611 60.1419C528.653 64.6879 530.276 70.0326 530.276 75.5002C530.268 82.8287 527.35 89.8549 522.162 95.0373C516.973 100.22 509.939 103.135 502.601 103.144ZM502.601 59.4336C499.419 59.4329 496.308 60.3746 493.662 62.1395C491.016 63.9045 488.954 66.4135 487.735 69.3492C486.517 72.285 486.198 75.5155 486.818 78.6324C487.439 81.7492 488.971 84.6124 491.22 86.8597C493.47 89.107 496.336 90.6376 499.457 91.2578C502.578 91.878 505.813 91.56 508.753 90.3441C511.692 89.1282 514.205 87.0689 515.973 84.4266C517.741 81.7844 518.684 78.678 518.684 75.5002C518.679 71.2411 516.984 67.1579 513.968 64.1459C510.953 61.134 506.865 59.4393 502.601 59.4336Z" fill="#EFF4F8"/>
<rect x="605" y="10" width="50" height="50" rx="25" fill="#009EE3"/>
<path d="M622.556 42.4476C622.555 42.6368 622.624 42.8263 622.763 42.97C622.901 43.114 623.083 43.1858 623.265 43.1852C623.445 43.1846 623.626 43.1127 623.762 42.9695L629.39 37.1486C629.707 36.8205 630.222 36.8205 630.539 37.1486L636.164 42.9695C636.301 43.113 636.481 43.1848 636.662 43.1852C636.844 43.1848 637.025 43.1132 637.163 42.9704C637.163 42.9703 637.163 42.9703 637.163 42.9702C637.302 42.827 637.371 42.6376 637.37 42.4482C637.37 42.2606 637.301 42.0731 637.163 41.9306L631.566 36.0774C631.251 35.7481 631.251 35.2121 631.566 34.8827L637.163 29.0324C637.301 28.8897 637.37 28.7017 637.37 28.5138C637.37 28.3252 637.301 28.1366 637.164 27.9934C637.164 27.9933 637.164 27.9931 637.164 27.993C637.163 27.9928 637.163 27.9927 637.163 27.9925C637.025 27.8499 636.844 27.7783 636.663 27.7778C636.482 27.7783 636.301 27.8502 636.164 27.9934L630.539 33.8144C630.222 34.1425 629.707 34.1425 629.39 33.8144L623.762 27.9934C623.625 27.8504 623.445 27.7785 623.264 27.7778C623.082 27.777 622.9 27.8488 622.762 27.9932C622.762 27.9933 622.762 27.9933 622.762 27.9934C622.625 28.1368 622.556 28.3256 622.556 28.5145C622.556 28.7025 622.625 28.8902 622.763 29.0324L628.36 34.8827C628.676 35.2121 628.676 35.7481 628.36 36.0774L622.763 41.9306C622.625 42.0725 622.556 42.2599 622.556 42.4476Z" fill="#EFF4F8"/>
<path d="M73.488 52.992L65.712 66.312H73.104V69H60.528L68.304 55.68H61.752V52.992H73.488ZM82.6256 59.952V58.608H85.5536V69H82.6256V67.656C81.5696 69.168 80.1776 69.336 79.4336 69.336C76.2416 69.336 74.1296 66.84 74.1296 63.792C74.1296 60.72 76.2176 58.272 79.2896 58.272C80.0816 58.272 81.6416 58.416 82.6256 59.952ZM80.0336 60.864C78.3536 60.864 77.1536 62.136 77.1536 63.792C77.1536 65.448 78.3536 66.744 80.0336 66.744C81.7136 66.744 82.9136 65.448 82.9136 63.792C82.9136 62.136 81.7136 60.864 80.0336 60.864ZM88.3451 69V58.608H91.2731V60.168C91.7291 59.28 92.3531 58.848 92.5691 58.728C93.0251 58.44 93.6011 58.272 94.2971 58.272C94.8011 58.272 95.2091 58.392 95.5451 58.512L95.1611 61.248C94.7771 60.984 94.3931 60.864 93.7931 60.864C93.2411 60.864 92.4251 60.984 91.8491 61.704C91.2971 62.4 91.2731 63.288 91.2731 64.008V69H88.3451ZM106.672 58.608L100.768 66.504H106.264V69H95.6318L101.536 61.104H96.5438V58.608H106.672ZM116.094 59.952V58.608H119.022V69H118.062C117.726 69.216 117.366 69.48 117.054 69.864C116.838 70.104 116.574 70.464 116.574 70.896C116.574 71.208 116.718 71.424 116.934 71.592C117.126 71.736 117.39 71.808 117.678 71.808C117.774 71.808 118.254 71.808 118.782 71.52L118.446 73.128C117.99 73.416 117.534 73.536 116.958 73.536C116.526 73.536 115.83 73.464 115.302 72.96C115.014 72.672 114.75 72.24 114.75 71.592C114.75 71.016 114.942 70.488 115.374 69.96C115.686 69.6 116.142 69.24 116.526 69H116.094V67.656C115.038 69.168 113.646 69.336 112.902 69.336C111.51 69.336 110.238 68.928 109.158 67.824C108.342 66.984 107.598 65.664 107.598 63.792C107.598 61.944 108.342 60.528 109.206 59.688C109.998 58.92 111.174 58.272 112.758 58.272C113.55 58.272 115.11 58.416 116.094 59.952ZM113.502 60.864C112.638 60.864 111.918 61.2 111.438 61.704C110.91 62.256 110.622 63.024 110.622 63.792C110.622 64.704 110.958 65.424 111.438 65.904C111.918 66.384 112.638 66.744 113.502 66.744C114.486 66.744 115.182 66.312 115.566 65.904C116.046 65.424 116.382 64.704 116.382 63.792C116.382 62.928 116.046 62.16 115.542 61.68C115.014 61.152 114.246 60.864 113.502 60.864ZM129.782 59.952V51.504H132.71V69H129.782V67.656C128.726 69.168 127.334 69.336 126.59 69.336C123.398 69.336 121.286 66.84 121.286 63.792C121.286 60.72 123.374 58.272 126.446 58.272C127.238 58.272 128.798 58.416 129.782 59.952ZM127.19 60.864C125.51 60.864 124.31 62.136 124.31 63.792C124.31 65.448 125.51 66.744 127.19 66.744C128.87 66.744 130.07 65.448 130.07 63.792C130.07 62.136 128.87 60.864 127.19 60.864ZM145.437 58.608L139.533 66.504H145.029V69H134.397L140.301 61.104H135.309V58.608H145.437ZM154.86 59.952V58.608H157.788V69H154.86V67.656C153.804 69.168 152.412 69.336 151.668 69.336C148.476 69.336 146.364 66.84 146.364 63.792C146.364 60.72 148.452 58.272 151.524 58.272C152.316 58.272 153.876 58.416 154.86 59.952ZM152.268 60.864C150.588 60.864 149.388 62.136 149.388 63.792C149.388 65.448 150.588 66.744 152.268 66.744C153.948 66.744 155.148 65.448 155.148 63.792C155.148 62.136 153.948 60.864 152.268 60.864ZM160.58 58.608H163.508V74.496H160.58V58.608ZM160.292 54.216C160.292 53.256 161.084 52.464 162.044 52.464C163.004 52.464 163.796 53.256 163.796 54.216C163.796 55.176 163.004 55.968 162.044 55.968C161.084 55.968 160.292 55.176 160.292 54.216ZM179.724 58.896V61.776C179.1 61.2 178.332 60.864 177.324 60.864C175.38 60.864 174.396 62.28 174.396 63.792C174.396 65.496 175.668 66.744 177.42 66.744C178.068 66.744 178.932 66.552 179.724 65.832V68.688C179.148 68.976 178.236 69.336 177.036 69.336C175.404 69.336 173.964 68.712 173.028 67.824C172.236 67.08 171.372 65.784 171.372 63.84C171.372 62.016 172.116 60.552 173.172 59.616C174.444 58.488 175.908 58.272 176.916 58.272C177.996 58.272 178.884 58.488 179.724 58.896ZM181.931 58.608H184.859V69H181.931V58.608ZM181.643 54.216C181.643 53.256 182.435 52.464 183.395 52.464C184.355 52.464 185.147 53.256 185.147 54.216C185.147 55.176 184.355 55.968 183.395 55.968C182.435 55.968 181.643 55.176 181.643 54.216ZM195.618 59.952V58.608H198.546V69H195.618V67.656C194.562 69.168 193.17 69.336 192.426 69.336C189.234 69.336 187.122 66.84 187.122 63.792C187.122 60.72 189.21 58.272 192.282 58.272C193.074 58.272 194.634 58.416 195.618 59.952ZM193.026 60.864C191.346 60.864 190.146 62.136 190.146 63.792C190.146 65.448 191.346 66.744 193.026 66.744C194.706 66.744 195.906 65.448 195.906 63.792C195.906 62.136 194.706 60.864 193.026 60.864ZM208.441 59.376L207.001 61.08C206.305 60.432 205.609 60.384 205.297 60.384C204.601 60.384 204.169 60.72 204.169 61.224C204.169 61.488 204.289 61.896 205.105 62.16L205.801 62.376C206.617 62.64 207.841 63.048 208.441 63.864C208.753 64.296 208.969 64.92 208.969 65.592C208.969 66.528 208.657 67.464 207.817 68.232C206.977 69 205.969 69.336 204.697 69.336C202.537 69.336 201.313 68.304 200.665 67.608L202.201 65.832C202.777 66.504 203.641 67.032 204.505 67.032C205.321 67.032 205.945 66.624 205.945 65.904C205.945 65.256 205.417 64.992 205.033 64.848L204.361 64.608C203.617 64.344 202.753 64.008 202.129 63.36C201.649 62.856 201.337 62.208 201.337 61.368C201.337 60.36 201.817 59.52 202.417 59.016C203.233 58.368 204.289 58.272 205.129 58.272C205.897 58.272 207.121 58.368 208.441 59.376ZM215.984 61.104H213.968V69H211.04V61.104H209.888V58.608H211.04V55.056H213.968V58.608H215.984V61.104ZM225.021 65.664L227.709 66.096C227.397 66.864 226.221 69.336 222.597 69.336C220.917 69.336 219.645 68.856 218.613 67.872C217.461 66.792 216.981 65.448 216.981 63.816C216.981 61.752 217.821 60.48 218.565 59.736C219.789 58.536 221.229 58.272 222.477 58.272C224.589 58.272 225.813 59.112 226.533 59.976C227.637 61.296 227.781 62.928 227.781 64.056V64.296H220.005C220.005 64.92 220.173 65.592 220.509 66.048C220.821 66.48 221.469 67.032 222.597 67.032C223.701 67.032 224.541 66.504 225.021 65.664ZM220.101 62.424H225.021C224.781 61.008 223.629 60.336 222.549 60.336C221.469 60.336 220.341 61.032 220.101 62.424ZM237.872 58.896V61.776C237.248 61.2 236.48 60.864 235.472 60.864C233.528 60.864 232.544 62.28 232.544 63.792C232.544 65.496 233.816 66.744 235.568 66.744C236.216 66.744 237.08 66.552 237.872 65.832V68.688C237.296 68.976 236.384 69.336 235.184 69.336C233.552 69.336 232.112 68.712 231.176 67.824C230.384 67.08 229.52 65.784 229.52 63.84C229.52 62.016 230.264 60.552 231.32 59.616C232.592 58.488 234.056 58.272 235.064 58.272C236.144 58.272 237.032 58.488 237.872 58.896ZM250.016 58.608L244.112 66.504H249.608V69H238.976L244.88 61.104H239.888V58.608H250.016ZM251.705 51.504H254.633V62.4L258.521 58.608H262.312L257.441 63.168L262.697 69H258.809L254.945 64.56L254.633 64.848V69H251.705V51.504ZM271.954 59.952V58.608H274.882V69H271.954V67.656C270.898 69.168 269.506 69.336 268.762 69.336C265.57 69.336 263.458 66.84 263.458 63.792C263.458 60.72 265.546 58.272 268.618 58.272C269.41 58.272 270.97 58.416 271.954 59.952ZM269.362 60.864C267.682 60.864 266.482 62.136 266.482 63.792C266.482 65.448 267.682 66.744 269.362 66.744C271.042 66.744 272.242 65.448 272.242 63.792C272.242 62.136 271.042 60.864 269.362 60.864ZM277.673 69V58.608H280.601V59.784C281.705 58.392 283.073 58.272 283.697 58.272C285.881 58.272 286.721 59.64 286.985 60.168C287.489 59.352 288.521 58.272 290.321 58.272C291.929 58.272 292.721 59.016 293.129 59.544C293.801 60.432 293.849 61.32 293.849 62.472V69H290.921V63.336C290.921 62.112 290.657 61.56 290.441 61.296C290.057 60.816 289.529 60.768 289.241 60.768C288.449 60.768 287.945 61.128 287.633 61.68C287.249 62.304 287.225 63.144 287.225 63.696V69H284.297V63.336C284.297 62.112 284.033 61.56 283.817 61.296C283.433 60.816 282.905 60.768 282.617 60.768C281.825 60.768 281.321 61.128 281.009 61.68C280.625 62.304 280.601 63.144 280.601 63.696V69H277.673ZM296.634 58.608H299.562V69H296.634V58.608ZM296.346 54.216C296.346 53.256 297.138 52.464 298.098 52.464C299.058 52.464 299.85 53.256 299.85 54.216C299.85 55.176 299.058 55.968 298.098 55.968C297.138 55.968 296.346 55.176 296.346 54.216Z" fill="#1A1A18"/>
<path d="M63.2 126H61.72V112.1L72.12 123V112.66H73.6V126.6L63.2 115.7V126ZM83.0325 118.88V117.7H84.4725V126H83.0325V124.84C82.5525 125.46 81.6525 126.24 80.1925 126.24C78.0925 126.24 76.1525 124.76 76.1525 121.84C76.1525 118.98 78.0725 117.5 80.1925 117.5C81.7925 117.5 82.6525 118.38 83.0325 118.88ZM80.3525 118.78C78.9325 118.78 77.6325 119.82 77.6325 121.84C77.6325 123.62 78.6325 124.96 80.3525 124.96C82.1125 124.96 83.1125 123.5 83.1125 121.86C83.1125 119.72 81.6325 118.78 80.3525 118.78ZM91.7998 119L90.6198 119.62C90.4198 119.14 89.9998 118.78 89.4598 118.78C88.9398 118.78 88.4598 119.08 88.4598 119.72C88.4598 120.32 88.8598 120.5 89.7998 120.9C90.9998 121.4 91.5598 121.78 91.8798 122.18C92.2398 122.62 92.3198 123.06 92.3198 123.52C92.3198 125.26 91.0598 126.24 89.4598 126.24C89.1198 126.24 87.2598 126.2 86.5598 124.12L87.7998 123.6C87.9598 124.04 88.4398 124.96 89.4798 124.96C90.4198 124.96 90.8398 124.26 90.8398 123.64C90.8398 122.86 90.2798 122.6 89.4998 122.26C88.4998 121.82 87.8598 121.5 87.4798 121.04C87.1598 120.64 87.0998 120.24 87.0998 119.82C87.0998 118.36 88.1198 117.5 89.5198 117.5C89.9598 117.5 91.1398 117.58 91.7998 119ZM101.911 117.7L95.9111 124.68H101.671V126H93.0311L99.0311 119.02H94.1911V117.7H101.911ZM109.595 118.88V117.7H111.035V126H109.595V124.84C109.115 125.46 108.215 126.24 106.755 126.24C104.655 126.24 102.715 124.76 102.715 121.84C102.715 118.98 104.635 117.5 106.755 117.5C108.355 117.5 109.215 118.38 109.595 118.88ZM106.915 118.78C105.495 118.78 104.195 119.82 104.195 121.84C104.195 123.62 105.195 124.96 106.915 124.96C108.675 124.96 109.675 123.5 109.675 121.86C109.675 119.72 108.195 118.78 106.915 118.78ZM123.03 119L121.85 119.62C121.65 119.14 121.23 118.78 120.69 118.78C120.17 118.78 119.69 119.08 119.69 119.72C119.69 120.32 120.09 120.5 121.03 120.9C122.23 121.4 122.79 121.78 123.11 122.18C123.47 122.62 123.55 123.06 123.55 123.52C123.55 125.26 122.29 126.24 120.69 126.24C120.35 126.24 118.49 126.2 117.79 124.12L119.03 123.6C119.19 124.04 119.67 124.96 120.71 124.96C121.65 124.96 122.07 124.26 122.07 123.64C122.07 122.86 121.51 122.6 120.73 122.26C119.73 121.82 119.09 121.5 118.71 121.04C118.39 120.64 118.33 120.24 118.33 119.82C118.33 118.36 119.35 117.5 120.75 117.5C121.19 117.5 122.37 117.58 123.03 119ZM128.382 119.02H126.942V126H125.502V119.02H124.622V117.7H125.502V114.7H126.942V117.7H128.382V119.02ZM129.739 126V117.7H131.179V118.6C131.319 118.38 131.939 117.5 133.059 117.5C133.499 117.5 133.979 117.66 134.339 117.84L133.659 119.14C133.339 118.92 133.039 118.86 132.819 118.86C132.239 118.86 131.879 119.1 131.659 119.38C131.419 119.7 131.179 120.26 131.179 121.62V126H129.739ZM139.049 126.24C136.529 126.24 134.649 124.4 134.649 121.88C134.649 119.36 136.509 117.5 139.049 117.5C141.589 117.5 143.449 119.36 143.449 121.88C143.449 124.4 141.569 126.24 139.049 126.24ZM139.049 118.78C137.529 118.78 136.129 119.86 136.129 121.88C136.129 123.92 137.569 124.96 139.049 124.96C140.549 124.96 141.969 123.9 141.969 121.88C141.969 119.84 140.569 118.78 139.049 118.78ZM145.657 126V117.7H147.097V118.66C147.357 118.32 148.097 117.5 149.477 117.5C150.457 117.5 151.357 117.9 151.857 118.64C152.277 119.26 152.337 119.94 152.337 120.86V126H150.897V120.9C150.897 120.4 150.857 119.82 150.517 119.38C150.237 119.02 149.797 118.78 149.157 118.78C148.657 118.78 148.117 118.92 147.697 119.42C147.137 120.08 147.097 121.06 147.097 121.66V126H145.657ZM161.411 118.88V117.7H162.851V126H161.411V124.84C160.931 125.46 160.031 126.24 158.571 126.24C156.471 126.24 154.531 124.76 154.531 121.84C154.531 118.98 156.451 117.5 158.571 117.5C160.171 117.5 161.031 118.38 161.411 118.88ZM158.731 118.78C157.311 118.78 156.011 119.82 156.011 121.84C156.011 123.62 157.011 124.96 158.731 124.96C160.491 124.96 161.491 123.5 161.491 121.86C161.491 119.72 160.011 118.78 158.731 118.78ZM170.247 111.42H171.687V120.78L174.727 117.7H176.607L173.047 121.26L177.247 126H175.367L172.047 122.22L171.687 122.58V126H170.247V111.42ZM182.271 126.24C179.751 126.24 177.871 124.4 177.871 121.88C177.871 119.36 179.731 117.5 182.271 117.5C184.811 117.5 186.671 119.36 186.671 121.88C186.671 124.4 184.791 126.24 182.271 126.24ZM182.271 118.78C180.751 118.78 179.351 119.86 179.351 121.88C179.351 123.92 180.791 124.96 182.271 124.96C183.771 124.96 185.191 123.9 185.191 121.88C185.191 119.84 183.791 118.78 182.271 118.78ZM188.88 126V117.7H190.32V118.6C190.46 118.38 191.08 117.5 192.2 117.5C192.64 117.5 193.12 117.66 193.48 117.84L192.8 119.14C192.48 118.92 192.18 118.86 191.96 118.86C191.38 118.86 191.02 119.1 190.8 119.38C190.56 119.7 190.32 120.26 190.32 121.62V126H188.88ZM202.263 117.7L196.263 124.68H202.023V126H193.383L199.383 119.02H194.543V117.7H202.263ZM203.762 130.6L206.402 125.22L202.582 117.7H204.222L207.162 123.64L209.862 117.7H211.462L205.362 130.6H203.762ZM217.386 119L216.206 119.62C216.006 119.14 215.586 118.78 215.046 118.78C214.526 118.78 214.046 119.08 214.046 119.72C214.046 120.32 214.446 120.5 215.386 120.9C216.586 121.4 217.146 121.78 217.466 122.18C217.826 122.62 217.906 123.06 217.906 123.52C217.906 125.26 216.646 126.24 215.046 126.24C214.706 126.24 212.846 126.2 212.146 124.12L213.386 123.6C213.546 124.04 214.026 124.96 215.066 124.96C216.006 124.96 216.426 124.26 216.426 123.64C216.426 122.86 215.866 122.6 215.086 122.26C214.086 121.82 213.446 121.5 213.066 121.04C212.746 120.64 212.686 120.24 212.686 119.82C212.686 118.36 213.706 117.5 215.106 117.5C215.546 117.5 216.726 117.58 217.386 119ZM222.737 119.02H221.297V126H219.857V119.02H218.977V117.7H219.857V114.7H221.297V117.7H222.737V119.02ZM230.454 118.88V117.7H231.894V126H230.454V124.84C229.974 125.46 229.074 126.24 227.614 126.24C225.514 126.24 223.574 124.76 223.574 121.84C223.574 118.98 225.494 117.5 227.614 117.5C229.214 117.5 230.074 118.38 230.454 118.88ZM227.774 118.78C226.354 118.78 225.054 119.82 225.054 121.84C225.054 123.62 226.054 124.96 227.774 124.96C229.534 124.96 230.534 123.5 230.534 121.86C230.534 119.72 229.054 118.78 227.774 118.78ZM246.97 117.7L240.97 124.68H246.73V126H238.09L244.09 119.02H239.25V117.7H246.97ZM254.597 124.84V130.6H253.157V117.7H254.597V118.86C255.577 117.64 256.837 117.5 257.437 117.5C260.037 117.5 261.477 119.66 261.477 121.9C261.477 124.18 260.017 126.24 257.497 126.24C256.157 126.24 255.217 125.64 254.597 124.84ZM257.297 124.96C258.977 124.96 259.997 123.56 259.997 121.9C259.997 119.86 258.617 118.78 257.277 118.78C255.937 118.78 254.517 119.88 254.517 121.88C254.517 123.58 255.597 124.96 257.297 124.96ZM263.684 111.42H265.124V126H263.684V111.42ZM267.844 117.7H269.284V126H267.844V117.7ZM267.544 114.56C267.544 114 268.004 113.54 268.564 113.54C269.124 113.54 269.584 114 269.584 114.56C269.584 115.12 269.124 115.58 268.564 115.58C268.004 115.58 267.544 115.12 267.544 114.56ZM272.005 111.42H273.445V120.78L276.485 117.7H278.365L274.805 121.26L279.005 126H277.125L273.805 122.22L273.445 122.58V126H272.005V111.42ZM284.029 126.24C281.509 126.24 279.629 124.4 279.629 121.88C279.629 119.36 281.489 117.5 284.029 117.5C286.569 117.5 288.429 119.36 288.429 121.88C288.429 124.4 286.549 126.24 284.029 126.24ZM284.029 118.78C282.509 118.78 281.109 119.86 281.109 121.88C281.109 123.92 282.549 124.96 284.029 124.96C285.529 124.96 286.949 123.9 286.949 121.88C286.949 119.84 285.549 118.78 284.029 118.78ZM285.269 112.68L286.749 113.36L284.069 116.06L283.169 115.58L285.269 112.68ZM289.437 117.7H291.037L293.497 123.34L296.097 117.06L298.677 123.34L301.157 117.7H302.757L298.637 126.58L296.077 120.38L293.517 126.58L289.437 117.7ZM315.438 118.3V120.02C314.678 119.06 313.578 118.78 312.838 118.78C311.298 118.78 309.898 119.86 309.898 121.88C309.898 123.9 311.338 124.96 312.818 124.96C313.678 124.96 314.738 124.58 315.498 123.66V125.38C314.598 126.04 313.638 126.24 312.858 126.24C310.278 126.24 308.418 124.4 308.418 121.9C308.418 119.36 310.298 117.5 312.858 117.5C314.178 117.5 315.038 118.02 315.438 118.3ZM321.588 126.24C319.068 126.24 317.188 124.4 317.188 121.88C317.188 119.36 319.048 117.5 321.588 117.5C324.128 117.5 325.988 119.36 325.988 121.88C325.988 124.4 324.108 126.24 321.588 126.24ZM321.588 118.78C320.068 118.78 318.668 119.86 318.668 121.88C318.668 123.92 320.108 124.96 321.588 124.96C323.088 124.96 324.508 123.9 324.508 121.88C324.508 119.84 323.108 118.78 321.588 118.78ZM332.076 126.24C329.556 126.24 327.676 124.4 327.676 121.88C327.676 119.36 329.536 117.5 332.076 117.5C334.616 117.5 336.476 119.36 336.476 121.88C336.476 124.4 334.596 126.24 332.076 126.24ZM332.076 118.78C330.556 118.78 329.156 119.86 329.156 121.88C329.156 123.92 330.596 124.96 332.076 124.96C333.576 124.96 334.996 123.9 334.996 121.88C334.996 119.84 333.596 118.78 332.076 118.78ZM338.684 111.42H340.124V120.78L343.164 117.7H345.044L341.484 121.26L345.684 126H343.804L340.484 122.22L340.124 122.58V126H338.684V111.42ZM347.122 117.7H348.562V126H347.122V117.7ZM346.822 114.56C346.822 114 347.282 113.54 347.842 113.54C348.402 113.54 348.862 114 348.862 114.56C348.862 115.12 348.402 115.58 347.842 115.58C347.282 115.58 346.822 115.12 346.822 114.56ZM357.442 123.22L358.642 123.88C358.402 124.34 358.042 124.84 357.622 125.22C356.862 125.9 355.922 126.24 354.862 126.24C352.862 126.24 350.762 124.98 350.762 121.9C350.762 119.42 352.282 117.5 354.782 117.5C356.402 117.5 357.422 118.3 357.922 119.02C358.442 119.76 358.742 121.04 358.702 122.14H352.242C352.262 123.86 353.442 124.96 354.882 124.96C355.562 124.96 356.102 124.76 356.582 124.36C356.962 124.04 357.262 123.62 357.442 123.22ZM352.342 120.94H357.222C356.982 119.64 356.002 118.78 354.782 118.78C353.562 118.78 352.562 119.7 352.342 120.94ZM365.511 119L364.331 119.62C364.131 119.14 363.711 118.78 363.171 118.78C362.651 118.78 362.171 119.08 362.171 119.72C362.171 120.32 362.571 120.5 363.511 120.9C364.711 121.4 365.271 121.78 365.591 122.18C365.951 122.62 366.031 123.06 366.031 123.52C366.031 125.26 364.771 126.24 363.171 126.24C362.831 126.24 360.971 126.2 360.271 124.12L361.511 123.6C361.671 124.04 362.151 124.96 363.191 124.96C364.131 124.96 364.551 124.26 364.551 123.64C364.551 122.86 363.991 122.6 363.211 122.26C362.211 121.82 361.571 121.5 361.191 121.04C360.871 120.64 360.811 120.24 360.811 119.82C360.811 118.36 361.831 117.5 363.231 117.5C363.671 117.5 364.851 117.58 365.511 119ZM374.59 111.2L375.85 111.78C375.49 112.72 375.11 113.88 374.83 115.24C374.47 116.98 374.33 118.54 374.33 120.28C374.33 121.92 374.43 123.36 374.81 125.16C375.07 126.46 375.43 127.66 375.85 128.82L374.59 129.4C373.71 127.1 373.33 125.2 373.27 124.88C372.99 123.4 372.85 121.72 372.85 120.24C372.85 118.9 372.95 117.04 373.41 115.04C373.71 113.76 374.19 112.26 374.59 111.2ZM381.409 119.02H379.969V126H378.529V119.02H377.649V117.7H378.529V114.7H379.969V117.7H381.409V119.02ZM390.446 117.7L384.446 124.68H390.206V126H381.566L387.566 119.02H382.726V117.7H390.446ZM390.765 117.7H392.365L394.825 123.34L397.425 117.06L400.005 123.34L402.485 117.7H404.085L399.965 126.58L397.405 120.38L394.845 126.58L390.765 117.7ZM404.678 125.2C404.678 124.66 405.138 124.2 405.678 124.2C406.218 124.2 406.678 124.66 406.678 125.2C406.678 125.74 406.218 126.2 405.678 126.2C405.138 126.2 404.678 125.74 404.678 125.2ZM420.477 118.3V120.02C419.717 119.06 418.617 118.78 417.877 118.78C416.337 118.78 414.937 119.86 414.937 121.88C414.937 123.9 416.377 124.96 417.857 124.96C418.717 124.96 419.777 124.58 420.537 123.66V125.38C419.637 126.04 418.677 126.24 417.897 126.24C415.317 126.24 413.457 124.4 413.457 121.9C413.457 119.36 415.337 117.5 417.897 117.5C419.217 117.5 420.077 118.02 420.477 118.3ZM422.747 117.7H424.187V126H422.747V117.7ZM422.447 114.56C422.447 114 422.907 113.54 423.467 113.54C424.027 113.54 424.487 114 424.487 114.56C424.487 115.12 424.027 115.58 423.467 115.58C422.907 115.58 422.447 115.12 422.447 114.56ZM433.267 118.88V117.7H434.707V126H433.267V124.84C432.787 125.46 431.887 126.24 430.427 126.24C428.327 126.24 426.387 124.76 426.387 121.84C426.387 118.98 428.307 117.5 430.427 117.5C432.027 117.5 432.887 118.38 433.267 118.88ZM430.587 118.78C429.167 118.78 427.867 119.82 427.867 121.84C427.867 123.62 428.867 124.96 430.587 124.96C432.347 124.96 433.347 123.5 433.347 121.86C433.347 119.72 431.867 118.78 430.587 118.78ZM442.034 119L440.854 119.62C440.654 119.14 440.234 118.78 439.694 118.78C439.174 118.78 438.694 119.08 438.694 119.72C438.694 120.32 439.094 120.5 440.034 120.9C441.234 121.4 441.794 121.78 442.114 122.18C442.474 122.62 442.554 123.06 442.554 123.52C442.554 125.26 441.294 126.24 439.694 126.24C439.354 126.24 437.494 126.2 436.794 124.12L438.034 123.6C438.194 124.04 438.674 124.96 439.714 124.96C440.654 124.96 441.074 124.26 441.074 123.64C441.074 122.86 440.514 122.6 439.734 122.26C438.734 121.82 438.094 121.5 437.714 121.04C437.394 120.64 437.334 120.24 437.334 119.82C437.334 118.36 438.354 117.5 439.754 117.5C440.194 117.5 441.374 117.58 442.034 119ZM447.385 119.02H445.945V126H444.505V119.02H443.625V117.7H444.505V114.7H445.945V117.7H447.385V119.02ZM454.903 123.22L456.103 123.88C455.863 124.34 455.503 124.84 455.083 125.22C454.323 125.9 453.383 126.24 452.323 126.24C450.323 126.24 448.223 124.98 448.223 121.9C448.223 119.42 449.743 117.5 452.243 117.5C453.863 117.5 454.883 118.3 455.383 119.02C455.903 119.76 456.203 121.04 456.163 122.14H449.703C449.723 123.86 450.903 124.96 452.343 124.96C453.023 124.96 453.563 124.76 454.043 124.36C454.423 124.04 454.723 123.62 454.903 123.22ZM449.803 120.94H454.683C454.443 119.64 453.463 118.78 452.243 118.78C451.023 118.78 450.023 119.7 449.803 120.94ZM464.872 118.3V120.02C464.112 119.06 463.012 118.78 462.272 118.78C460.732 118.78 459.332 119.86 459.332 121.88C459.332 123.9 460.772 124.96 462.252 124.96C463.112 124.96 464.172 124.58 464.932 123.66V125.38C464.032 126.04 463.072 126.24 462.292 126.24C459.712 126.24 457.852 124.4 457.852 121.9C457.852 119.36 459.732 117.5 462.292 117.5C463.612 117.5 464.472 118.02 464.872 118.3ZM474.821 117.7L468.821 124.68H474.581V126H465.941L471.941 119.02H467.101V117.7H474.821ZM482.305 123.22L483.505 123.88C483.265 124.34 482.905 124.84 482.485 125.22C481.725 125.9 480.785 126.24 479.725 126.24C477.725 126.24 475.625 124.98 475.625 121.9C475.625 119.42 477.145 117.5 479.645 117.5C481.265 117.5 482.285 118.3 482.785 119.02C483.305 119.76 483.605 121.04 483.565 122.14H477.105C477.125 123.86 478.305 124.96 479.745 124.96C480.425 124.96 480.965 124.76 481.445 124.36C481.825 124.04 482.125 123.62 482.305 123.22ZM477.205 120.94H482.085C481.845 119.64 480.865 118.78 479.645 118.78C478.425 118.78 477.425 119.7 477.205 120.94ZM485.774 111.42H487.214V120.78L490.254 117.7H492.134L488.574 121.26L492.774 126H490.894L487.574 122.22L487.214 122.58V126H485.774V111.42ZM494.132 111.78L495.392 111.2C495.792 112.26 496.272 113.76 496.572 115.04C497.032 117.04 497.132 118.9 497.132 120.24C497.132 121.72 496.992 123.4 496.712 124.88C496.652 125.2 496.272 127.1 495.392 129.4L494.132 128.82C494.552 127.66 494.912 126.46 495.172 125.16C495.552 123.36 495.652 121.92 495.652 120.28C495.652 118.54 495.512 116.98 495.152 115.24C494.872 113.88 494.492 112.72 494.132 111.78ZM512.438 117.7L506.438 124.68H512.198V126H503.558L509.558 119.02H504.718V117.7H512.438ZM520.318 118.88V117.7H521.758V125.8C521.758 126.7 521.758 127.98 520.958 129.06C520.338 129.9 519.198 130.6 517.638 130.6C516.218 130.6 515.238 130.04 514.678 129.48C514.118 128.92 513.598 128.02 513.598 126.8H515.018C515.018 127.5 515.298 128.12 515.658 128.52C516.258 129.18 517.018 129.32 517.658 129.32C518.678 129.32 519.378 128.96 519.858 128.16C520.278 127.48 520.318 126.74 520.318 126.04V124.84C519.838 125.46 518.938 126.24 517.478 126.24C516.258 126.24 515.278 125.76 514.638 125.12C514.078 124.56 513.438 123.52 513.438 121.84C513.438 120.22 514.038 119.22 514.638 118.62C515.338 117.94 516.358 117.5 517.478 117.5C518.698 117.5 519.658 118.02 520.318 118.88ZM517.638 118.78C516.758 118.78 516.158 119.16 515.758 119.56C515.058 120.28 514.918 121.16 514.918 121.84C514.918 122.56 515.058 123.54 515.858 124.28C516.318 124.7 516.878 124.96 517.638 124.96C518.398 124.96 518.998 124.72 519.458 124.26C520.018 123.72 520.398 122.84 520.398 121.86C520.398 120.88 520.038 120.02 519.518 119.52C519.058 119.06 518.378 118.78 517.638 118.78ZM528.365 126.24C525.845 126.24 523.965 124.4 523.965 121.88C523.965 119.36 525.825 117.5 528.365 117.5C530.905 117.5 532.765 119.36 532.765 121.88C532.765 124.4 530.885 126.24 528.365 126.24ZM528.365 118.78C526.845 118.78 525.445 119.86 525.445 121.88C525.445 123.92 526.885 124.96 528.365 124.96C529.865 124.96 531.285 123.9 531.285 121.88C531.285 119.84 529.885 118.78 528.365 118.78ZM541.333 118.88V111.42H542.773V126H541.333V124.84C540.853 125.46 539.953 126.24 538.493 126.24C536.393 126.24 534.453 124.76 534.453 121.84C534.453 118.98 536.373 117.5 538.493 117.5C540.093 117.5 540.953 118.38 541.333 118.88ZM538.653 118.78C537.233 118.78 535.933 119.82 535.933 121.84C535.933 123.62 536.933 124.96 538.653 124.96C540.413 124.96 541.413 123.5 541.413 121.86C541.413 119.72 539.933 118.78 538.653 118.78ZM545.501 126V117.7H546.941V118.66C547.201 118.32 547.941 117.5 549.321 117.5C550.301 117.5 551.201 117.9 551.701 118.64C552.121 119.26 552.181 119.94 552.181 120.86V126H550.741V120.9C550.741 120.4 550.701 119.82 550.361 119.38C550.081 119.02 549.641 118.78 549.001 118.78C548.501 118.78 547.961 118.92 547.541 119.42C546.981 120.08 546.941 121.06 546.941 121.66V126H545.501ZM554.895 117.7H556.335V126H554.895V117.7ZM554.595 114.56C554.595 114 555.055 113.54 555.615 113.54C556.175 113.54 556.635 114 556.635 114.56C556.635 115.12 556.175 115.58 555.615 115.58C555.055 115.58 554.595 115.12 554.595 114.56ZM565.215 123.22L566.415 123.88C566.175 124.34 565.815 124.84 565.395 125.22C564.635 125.9 563.695 126.24 562.635 126.24C560.635 126.24 558.535 124.98 558.535 121.9C558.535 119.42 560.055 117.5 562.555 117.5C564.175 117.5 565.195 118.3 565.695 119.02C566.215 119.76 566.515 121.04 566.475 122.14H560.015C560.035 123.86 561.215 124.96 562.655 124.96C563.335 124.96 563.875 124.76 564.355 124.36C564.735 124.04 565.035 123.62 565.215 123.22ZM560.115 120.94H564.995C564.755 119.64 563.775 118.78 562.555 118.78C561.335 118.78 560.335 119.7 560.115 120.94ZM581.032 117.7L575.032 124.68H580.792V126H572.152L578.152 119.02H573.312V117.7H581.032ZM62.8 150.84V156.6H61.36V143.7H62.8V144.86C63.78 143.64 65.04 143.5 65.64 143.5C68.24 143.5 69.68 145.66 69.68 147.9C69.68 150.18 68.22 152.24 65.7 152.24C64.36 152.24 63.42 151.64 62.8 150.84ZM65.5 150.96C67.18 150.96 68.2 149.56 68.2 147.9C68.2 145.86 66.82 144.78 65.48 144.78C64.14 144.78 62.72 145.88 62.72 147.88C62.72 149.58 63.8 150.96 65.5 150.96ZM75.7673 152.24C73.2473 152.24 71.3673 150.4 71.3673 147.88C71.3673 145.36 73.2273 143.5 75.7673 143.5C78.3073 143.5 80.1673 145.36 80.1673 147.88C80.1673 150.4 78.2873 152.24 75.7673 152.24ZM75.7673 144.78C74.2473 144.78 72.8473 145.86 72.8473 147.88C72.8473 149.92 74.2873 150.96 75.7673 150.96C77.2673 150.96 78.6873 149.9 78.6873 147.88C78.6873 145.84 77.2873 144.78 75.7673 144.78ZM82.3756 137.42H83.8156V152H82.3756V137.42ZM86.5358 143.7H87.9758V152H86.5358V143.7ZM86.2358 140.56C86.2358 140 86.6958 139.54 87.2558 139.54C87.8158 139.54 88.2758 140 88.2758 140.56C88.2758 141.12 87.8158 141.58 87.2558 141.58C86.6958 141.58 86.2358 141.12 86.2358 140.56ZM93.6159 145.02H92.1759V152H90.7359V145.02H89.8559V143.7H90.7359V140.7H92.1759V143.7H93.6159V145.02ZM95.5588 156.6L98.1988 151.22L94.3788 143.7H96.0188L98.9588 149.64L101.659 143.7H103.259L97.1587 156.6H95.5588ZM104.778 137.42H106.218V146.78L109.258 143.7H111.138L107.578 147.26L111.778 152H109.898L106.578 148.22L106.218 148.58V152H104.778V137.42ZM119.575 144.88V143.7H121.015V152H120.735C120.435 152.18 120.075 152.48 119.795 152.78C119.615 152.98 119.335 153.34 119.335 153.8C119.335 154.06 119.435 154.26 119.575 154.38C119.815 154.6 120.275 154.6 120.375 154.6C120.555 154.6 120.975 154.56 121.335 154.34L121.175 155.44C120.735 155.7 120.235 155.72 120.055 155.72C119.575 155.72 118.955 155.54 118.575 155.16C118.375 154.96 118.135 154.58 118.135 154.04C118.135 153.14 118.815 152.44 119.575 152V150.84C119.255 151.22 118.835 151.58 118.455 151.8C117.835 152.16 117.195 152.24 116.735 152.24C115.455 152.24 114.495 151.72 113.875 151.1C113.495 150.7 112.695 149.68 112.695 147.84C112.695 146.42 113.195 145.3 113.895 144.6C114.555 143.94 115.595 143.5 116.735 143.5C117.955 143.5 118.915 144.02 119.575 144.88ZM116.895 144.78C116.075 144.78 115.435 145.12 114.995 145.58C114.535 146.08 114.175 146.82 114.175 147.92C114.175 149.24 114.715 149.94 115.055 150.26C115.495 150.66 116.175 150.96 116.935 150.96C117.675 150.96 118.255 150.72 118.755 150.22C119.175 149.78 119.655 149.04 119.655 147.86C119.655 146.82 119.295 146.08 118.875 145.62C118.435 145.14 117.735 144.78 116.895 144.78ZM129.851 150.84V156.6H128.411V143.7H129.851V144.86C130.831 143.64 132.091 143.5 132.691 143.5C135.291 143.5 136.731 145.66 136.731 147.9C136.731 150.18 135.271 152.24 132.751 152.24C131.411 152.24 130.471 151.64 129.851 150.84ZM132.551 150.96C134.231 150.96 135.251 149.56 135.251 147.9C135.251 145.86 133.871 144.78 132.531 144.78C131.191 144.78 129.771 145.88 129.771 147.88C129.771 149.58 130.851 150.96 132.551 150.96ZM138.938 152V143.7H140.378V144.6C140.518 144.38 141.138 143.5 142.258 143.5C142.698 143.5 143.178 143.66 143.538 143.84L142.858 145.14C142.538 144.92 142.238 144.86 142.018 144.86C141.438 144.86 141.078 145.1 140.858 145.38C140.618 145.7 140.378 146.26 140.378 147.62V152H138.938ZM145.461 156.6L148.101 151.22L144.281 143.7H145.921L148.861 149.64L151.561 143.7H153.161L147.061 156.6H145.461ZM153.48 143.7H155.08L157.54 149.34L160.14 143.06L162.72 149.34L165.2 143.7H166.8L162.68 152.58L160.12 146.38L157.56 152.58L153.48 143.7ZM174.673 144.88V143.7H176.113V152H174.673V150.84C174.193 151.46 173.293 152.24 171.833 152.24C169.733 152.24 167.793 150.76 167.793 147.84C167.793 144.98 169.713 143.5 171.833 143.5C173.433 143.5 174.293 144.38 174.673 144.88ZM171.993 144.78C170.573 144.78 169.273 145.82 169.273 147.84C169.273 149.62 170.273 150.96 171.993 150.96C173.753 150.96 174.753 149.5 174.753 147.86C174.753 145.72 173.273 144.78 171.993 144.78ZM181.76 145.02H180.32V152H178.88V145.02H178V143.7H178.88V140.7H180.32V143.7H181.76V145.02ZM183.118 152V143.7H184.558V144.66C184.818 144.32 185.558 143.5 186.938 143.5C187.918 143.5 188.818 143.9 189.318 144.64C189.738 145.26 189.798 145.94 189.798 146.86V152H188.358V146.9C188.358 146.4 188.318 145.82 187.978 145.38C187.698 145.02 187.258 144.78 186.618 144.78C186.118 144.78 185.578 144.92 185.158 145.42C184.598 146.08 184.558 147.06 184.558 147.66V152H183.118ZM196.392 152.24C193.872 152.24 191.992 150.4 191.992 147.88C191.992 145.36 193.852 143.5 196.392 143.5C198.932 143.5 200.792 145.36 200.792 147.88C200.792 150.4 198.912 152.24 196.392 152.24ZM196.392 144.78C194.872 144.78 193.472 145.86 193.472 147.88C193.472 149.92 194.912 150.96 196.392 150.96C197.892 150.96 199.312 149.9 199.312 147.88C199.312 145.84 197.912 144.78 196.392 144.78ZM207.601 145L206.421 145.62C206.221 145.14 205.801 144.78 205.261 144.78C204.741 144.78 204.261 145.08 204.261 145.72C204.261 146.32 204.661 146.5 205.601 146.9C206.801 147.4 207.361 147.78 207.681 148.18C208.041 148.62 208.121 149.06 208.121 149.52C208.121 151.26 206.861 152.24 205.261 152.24C204.921 152.24 203.061 152.2 202.361 150.12L203.601 149.6C203.761 150.04 204.241 150.96 205.281 150.96C206.221 150.96 206.641 150.26 206.641 149.64C206.641 148.86 206.081 148.6 205.301 148.26C204.301 147.82 203.661 147.5 203.281 147.04C202.961 146.64 202.901 146.24 202.901 145.82C202.901 144.36 203.921 143.5 205.321 143.5C205.761 143.5 206.941 143.58 207.601 145ZM206.401 138.68L207.881 139.36L205.201 142.06L204.301 141.58L206.401 138.68ZM216.532 144.3V146.02C215.772 145.06 214.672 144.78 213.932 144.78C212.392 144.78 210.992 145.86 210.992 147.88C210.992 149.9 212.432 150.96 213.912 150.96C214.772 150.96 215.832 150.58 216.592 149.66V151.38C215.692 152.04 214.732 152.24 213.952 152.24C211.372 152.24 209.512 150.4 209.512 147.9C209.512 145.36 211.392 143.5 213.952 143.5C215.272 143.5 216.132 144.02 216.532 144.3ZM218.801 143.7H220.241V152H218.801V143.7ZM218.501 140.56C218.501 140 218.961 139.54 219.521 139.54C220.081 139.54 220.541 140 220.541 140.56C220.541 141.12 220.081 141.58 219.521 141.58C218.961 141.58 218.501 141.12 218.501 140.56ZM222.882 151.2C222.882 150.66 223.342 150.2 223.882 150.2C224.422 150.2 224.882 150.66 224.882 151.2C224.882 151.74 224.422 152.2 223.882 152.2C223.342 152.2 222.882 151.74 222.882 151.2ZM234.02 138.66V144.38L239.7 138.66H241.7L235.46 144.88L241.9 152H239.86L234.4 145.88L234.02 146.26V152H232.54V138.66H234.02ZM243.548 137.42H244.988V152H243.548V137.42ZM247.708 143.7H249.148V152H247.708V143.7ZM247.408 140.56C247.408 140 247.868 139.54 248.428 139.54C248.988 139.54 249.448 140 249.448 140.56C249.448 141.12 248.988 141.58 248.428 141.58C247.868 141.58 247.408 141.12 247.408 140.56ZM251.868 137.42H253.308V146.78L256.348 143.7H258.228L254.668 147.26L258.868 152H256.988L253.668 148.22L253.308 148.58V152H251.868V137.42ZM260.305 152V143.7H261.745V144.66C262.005 144.32 262.745 143.5 264.125 143.5C265.105 143.5 266.005 143.9 266.505 144.64C266.925 145.26 266.985 145.94 266.985 146.86V152H265.545V146.9C265.545 146.4 265.505 145.82 265.165 145.38C264.885 145.02 264.445 144.78 263.805 144.78C263.305 144.78 262.765 144.92 262.345 145.42C261.785 146.08 261.745 147.06 261.745 147.66V152H260.305ZM269.7 143.7H271.14V152H269.7V143.7ZM269.4 140.56C269.4 140 269.86 139.54 270.42 139.54C270.98 139.54 271.44 140 271.44 140.56C271.44 141.12 270.98 141.58 270.42 141.58C269.86 141.58 269.4 141.12 269.4 140.56ZM273.86 143.7H275.3V156.6H273.86V143.7ZM273.56 140.56C273.56 140 274.02 139.54 274.58 139.54C275.14 139.54 275.6 140 275.6 140.56C275.6 141.12 275.14 141.58 274.58 141.58C274.02 141.58 273.56 141.12 273.56 140.56ZM285.448 138.66L283.788 143.28L282.488 142.8L284.508 138.28L285.448 138.66ZM288.368 138.66L286.748 143.28L285.408 142.8L287.428 138.28L288.368 138.66ZM299.136 152L297.576 148.24H291.896L290.296 152H288.656L294.796 138.02L300.776 152H299.136ZM292.476 146.84H296.996L294.756 141.5L292.476 146.84ZM302.298 137.42H303.738V146.78L306.778 143.7H308.658L305.098 147.26L309.298 152H307.418L304.098 148.22L303.738 148.58V152H302.298V137.42ZM317.04 144.3V146.02C316.28 145.06 315.18 144.78 314.44 144.78C312.9 144.78 311.5 145.86 311.5 147.88C311.5 149.9 312.94 150.96 314.42 150.96C315.28 150.96 316.34 150.58 317.1 149.66V151.38C316.2 152.04 315.24 152.24 314.46 152.24C311.88 152.24 310.02 150.4 310.02 147.9C310.02 145.36 311.9 143.5 314.46 143.5C315.78 143.5 316.64 144.02 317.04 144.3ZM325.469 149.22L326.669 149.88C326.429 150.34 326.069 150.84 325.649 151.22C324.889 151.9 323.949 152.24 322.889 152.24C320.889 152.24 318.789 150.98 318.789 147.9C318.789 145.42 320.309 143.5 322.809 143.5C324.429 143.5 325.449 144.3 325.949 145.02C326.469 145.76 326.769 147.04 326.729 148.14H320.269C320.289 149.86 321.469 150.96 322.909 150.96C323.589 150.96 324.129 150.76 324.609 150.36C324.989 150.04 325.289 149.62 325.469 149.22ZM320.369 146.94H325.249C325.009 145.64 324.029 144.78 322.809 144.78C321.589 144.78 320.589 145.7 320.369 146.94ZM330.378 150.84V156.6H328.938V143.7H330.378V144.86C331.358 143.64 332.618 143.5 333.218 143.5C335.818 143.5 337.258 145.66 337.258 147.9C337.258 150.18 335.798 152.24 333.278 152.24C331.938 152.24 330.998 151.64 330.378 150.84ZM333.078 150.96C334.758 150.96 335.778 149.56 335.778 147.9C335.778 145.86 334.398 144.78 333.058 144.78C331.718 144.78 330.298 145.88 330.298 147.88C330.298 149.58 331.378 150.96 333.078 150.96ZM342.385 145.02H340.945V152H339.505V145.02H338.625V143.7H339.505V140.7H340.945V143.7H342.385V145.02ZM345.183 143.7V148.54C345.183 149.12 345.183 149.8 345.583 150.32C345.803 150.6 346.243 150.96 347.043 150.96C347.843 150.96 348.283 150.6 348.503 150.32C348.903 149.8 348.903 149.12 348.903 148.54V143.7H350.343V148.7C350.343 149.72 350.243 150.48 349.583 151.2C348.843 151.98 347.863 152.24 347.043 152.24C346.223 152.24 345.243 151.98 344.503 151.2C343.843 150.48 343.743 149.72 343.743 148.7V143.7H345.183ZM353.059 143.7H354.499V156.6H353.059V143.7ZM352.759 140.56C352.759 140 353.219 139.54 353.779 139.54C354.339 139.54 354.799 140 354.799 140.56C354.799 141.12 354.339 141.58 353.779 141.58C353.219 141.58 352.759 141.12 352.759 140.56ZM357.019 142.8L358.639 138.18L359.979 138.66L357.959 143.18L357.019 142.8ZM359.939 142.8L361.599 138.18L362.899 138.66L360.879 143.18L359.939 142.8ZM364.263 154.66L365.903 150.04L367.223 150.52L365.203 155.04L364.263 154.66ZM374.641 143.7H376.081V156.6H374.641V143.7ZM374.341 140.56C374.341 140 374.801 139.54 375.361 139.54C375.921 139.54 376.381 140 376.381 140.56C376.381 141.12 375.921 141.58 375.361 141.58C374.801 141.58 374.341 141.12 374.341 140.56ZM384.961 149.22L386.161 149.88C385.921 150.34 385.561 150.84 385.141 151.22C384.381 151.9 383.441 152.24 382.381 152.24C380.381 152.24 378.281 150.98 378.281 147.9C378.281 145.42 379.801 143.5 382.301 143.5C383.921 143.5 384.941 144.3 385.441 145.02C385.961 145.76 386.261 147.04 386.221 148.14H379.761C379.781 149.86 380.961 150.96 382.401 150.96C383.081 150.96 383.621 150.76 384.101 150.36C384.481 150.04 384.781 149.62 384.961 149.22ZM379.861 146.94H384.741C384.501 145.64 383.521 144.78 382.301 144.78C381.081 144.78 380.081 145.7 379.861 146.94ZM393.03 145L391.85 145.62C391.65 145.14 391.23 144.78 390.69 144.78C390.17 144.78 389.69 145.08 389.69 145.72C389.69 146.32 390.09 146.5 391.03 146.9C392.23 147.4 392.79 147.78 393.11 148.18C393.47 148.62 393.55 149.06 393.55 149.52C393.55 151.26 392.29 152.24 390.69 152.24C390.35 152.24 388.49 152.2 387.79 150.12L389.03 149.6C389.19 150.04 389.67 150.96 390.71 150.96C391.65 150.96 392.07 150.26 392.07 149.64C392.07 148.86 391.51 148.6 390.73 148.26C389.73 147.82 389.09 147.5 388.71 147.04C388.39 146.64 388.33 146.24 388.33 145.82C388.33 144.36 389.35 143.5 390.75 143.5C391.19 143.5 392.37 143.58 393.03 145ZM391.83 138.68L393.31 139.36L390.63 142.06L389.73 141.58L391.83 138.68ZM395.462 137.42H396.902V152H395.462V137.42ZM399.622 143.7H401.062V152H399.622V143.7ZM399.322 140.56C399.322 140 399.782 139.54 400.342 139.54C400.902 139.54 401.362 140 401.362 140.56C401.362 141.12 400.902 141.58 400.342 141.58C399.782 141.58 399.322 141.12 399.322 140.56ZM416.13 143.7L410.13 150.68H415.89V152H407.25L413.25 145.02H408.41V143.7H416.13ZM424.009 144.88V143.7H425.449V151.8C425.449 152.7 425.449 153.98 424.649 155.06C424.029 155.9 422.889 156.6 421.329 156.6C419.909 156.6 418.929 156.04 418.369 155.48C417.809 154.92 417.289 154.02 417.289 152.8H418.709C418.709 153.5 418.989 154.12 419.349 154.52C419.949 155.18 420.709 155.32 421.349 155.32C422.369 155.32 423.069 154.96 423.549 154.16C423.969 153.48 424.009 152.74 424.009 152.04V150.84C423.529 151.46 422.629 152.24 421.169 152.24C419.949 152.24 418.969 151.76 418.329 151.12C417.769 150.56 417.129 149.52 417.129 147.84C417.129 146.22 417.729 145.22 418.329 144.62C419.029 143.94 420.049 143.5 421.169 143.5C422.389 143.5 423.349 144.02 424.009 144.88ZM421.329 144.78C420.449 144.78 419.849 145.16 419.449 145.56C418.749 146.28 418.609 147.16 418.609 147.84C418.609 148.56 418.749 149.54 419.549 150.28C420.009 150.7 420.569 150.96 421.329 150.96C422.089 150.96 422.689 150.72 423.149 150.26C423.709 149.72 424.089 148.84 424.089 147.86C424.089 146.88 423.729 146.02 423.209 145.52C422.749 145.06 422.069 144.78 421.329 144.78ZM434.536 144.88V143.7H435.976V152H434.536V150.84C434.056 151.46 433.156 152.24 431.696 152.24C429.596 152.24 427.656 150.76 427.656 147.84C427.656 144.98 429.576 143.5 431.696 143.5C433.296 143.5 434.156 144.38 434.536 144.88ZM431.856 144.78C430.436 144.78 429.136 145.82 429.136 147.84C429.136 149.62 430.136 150.96 431.856 150.96C433.616 150.96 434.616 149.5 434.616 147.86C434.616 145.72 433.136 144.78 431.856 144.78ZM445.064 144.88V137.42H446.504V152H445.064V150.84C444.584 151.46 443.684 152.24 442.224 152.24C440.124 152.24 438.184 150.76 438.184 147.84C438.184 144.98 440.104 143.5 442.224 143.5C443.824 143.5 444.684 144.38 445.064 144.88ZM442.384 144.78C440.964 144.78 439.664 145.82 439.664 147.84C439.664 149.62 440.664 150.96 442.384 150.96C444.144 150.96 445.144 149.5 445.144 147.86C445.144 145.72 443.664 144.78 442.384 144.78ZM456.716 143.7L450.716 150.68H456.476V152H447.836L453.836 145.02H448.996V143.7H456.716ZM464.4 144.88V143.7H465.84V152H464.4V150.84C463.92 151.46 463.02 152.24 461.56 152.24C459.46 152.24 457.52 150.76 457.52 147.84C457.52 144.98 459.44 143.5 461.56 143.5C463.16 143.5 464.02 144.38 464.4 144.88ZM461.72 144.78C460.3 144.78 459 145.82 459 147.84C459 149.62 460 150.96 461.72 150.96C463.48 150.96 464.48 149.5 464.48 147.86C464.48 145.72 463 144.78 461.72 144.78ZM473.167 145L471.987 145.62C471.787 145.14 471.367 144.78 470.827 144.78C470.307 144.78 469.827 145.08 469.827 145.72C469.827 146.32 470.227 146.5 471.167 146.9C472.367 147.4 472.927 147.78 473.247 148.18C473.607 148.62 473.687 149.06 473.687 149.52C473.687 151.26 472.427 152.24 470.827 152.24C470.487 152.24 468.627 152.2 467.927 150.12L469.167 149.6C469.327 150.04 469.807 150.96 470.847 150.96C471.787 150.96 472.207 150.26 472.207 149.64C472.207 148.86 471.647 148.6 470.867 148.26C469.867 147.82 469.227 147.5 468.847 147.04C468.527 146.64 468.467 146.24 468.467 145.82C468.467 144.36 469.487 143.5 470.887 143.5C471.327 143.5 472.507 143.58 473.167 145ZM483.278 143.7L477.278 150.68H483.038V152H474.398L480.398 145.02H475.558V143.7H483.278ZM494.065 145L492.885 145.62C492.685 145.14 492.265 144.78 491.725 144.78C491.205 144.78 490.725 145.08 490.725 145.72C490.725 146.32 491.125 146.5 492.065 146.9C493.265 147.4 493.825 147.78 494.145 148.18C494.505 148.62 494.585 149.06 494.585 149.52C494.585 151.26 493.325 152.24 491.725 152.24C491.385 152.24 489.525 152.2 488.825 150.12L490.065 149.6C490.225 150.04 490.705 150.96 491.745 150.96C492.685 150.96 493.105 150.26 493.105 149.64C493.105 148.86 492.545 148.6 491.765 148.26C490.765 147.82 490.125 147.5 489.745 147.04C489.425 146.64 489.365 146.24 489.365 145.82C489.365 144.36 490.385 143.5 491.785 143.5C492.225 143.5 493.405 143.58 494.065 145ZM496.497 143.7H497.937V152H496.497V143.7ZM496.197 140.56C496.197 140 496.657 139.54 497.217 139.54C497.777 139.54 498.237 140 498.237 140.56C498.237 141.12 497.777 141.58 497.217 141.58C496.657 141.58 496.197 141.12 496.197 140.56ZM506.837 149.22L508.037 149.88C507.797 150.4 507.497 150.78 507.017 151.2C506.517 151.64 506.257 151.76 505.777 152.04C505.197 152.38 504.917 152.64 504.757 152.8C504.377 153.2 504.297 153.58 504.297 153.8C504.297 154.12 504.477 154.3 504.517 154.34C504.717 154.54 505.077 154.6 505.337 154.6C505.577 154.6 505.877 154.56 506.297 154.34L506.137 155.44C505.737 155.66 505.337 155.72 505.017 155.72C504.437 155.72 503.897 155.52 503.557 155.18C503.317 154.96 503.097 154.58 503.097 154.04C503.097 153.62 503.237 153.26 503.457 152.96C503.637 152.7 503.897 152.44 504.157 152.24C502.857 152.24 501.917 151.68 501.357 151.14C500.797 150.6 500.137 149.6 500.137 147.9C500.137 146.52 500.617 145.34 501.377 144.58C501.937 144.02 502.837 143.5 504.177 143.5C505.357 143.5 506.337 143.94 506.957 144.58C508.077 145.72 508.097 147.54 508.097 148.14H501.617C501.637 148.86 501.917 149.7 502.417 150.22C502.857 150.68 503.537 150.96 504.277 150.96C505.057 150.96 505.617 150.66 505.977 150.36C506.337 150.06 506.637 149.62 506.837 149.22ZM501.737 146.94H506.617C506.497 146.22 506.157 145.74 505.857 145.46C505.337 144.96 504.717 144.78 504.177 144.78C503.477 144.78 502.877 145.06 502.477 145.48C502.097 145.88 501.837 146.44 501.737 146.94ZM514.973 152V143.7H516.413V144.66C516.673 144.32 517.413 143.5 518.793 143.5C519.773 143.5 520.673 143.9 521.173 144.64C521.593 145.26 521.653 145.94 521.653 146.86V152H520.213V146.9C520.213 146.4 520.173 145.82 519.833 145.38C519.553 145.02 519.113 144.78 518.473 144.78C517.973 144.78 517.433 144.92 517.013 145.42C516.453 146.08 516.413 147.06 516.413 147.66V152H514.973ZM530.728 144.88V143.7H532.168V152H530.728V150.84C530.248 151.46 529.348 152.24 527.888 152.24C525.788 152.24 523.848 150.76 523.848 147.84C523.848 144.98 525.768 143.5 527.888 143.5C529.488 143.5 530.348 144.38 530.728 144.88ZM528.048 144.78C526.628 144.78 525.328 145.82 525.328 147.84C525.328 149.62 526.328 150.96 528.048 150.96C529.808 150.96 530.808 149.5 530.808 147.86C530.808 145.72 529.328 144.78 528.048 144.78ZM539.563 143.7H541.003V152H539.563V143.7ZM539.263 140.56C539.263 140 539.723 139.54 540.283 139.54C540.843 139.54 541.303 140 541.303 140.56C541.303 141.12 540.843 141.58 540.283 141.58C539.723 141.58 539.263 141.12 539.263 140.56ZM550.223 144.3V146.02C549.463 145.06 548.363 144.78 547.623 144.78C546.083 144.78 544.683 145.86 544.683 147.88C544.683 149.9 546.123 150.96 547.603 150.96C548.463 150.96 549.523 150.58 550.283 149.66V151.38C549.383 152.04 548.423 152.24 547.643 152.24C545.063 152.24 543.203 150.4 543.203 147.9C543.203 145.36 545.083 143.5 547.643 143.5C548.963 143.5 549.823 144.02 550.223 144.3ZM552.493 152V137.42H553.933V144.66C554.193 144.32 554.933 143.5 556.313 143.5C557.293 143.5 558.193 143.9 558.693 144.64C559.113 145.26 559.173 145.94 559.173 146.86V152H557.733V146.9C557.733 146.4 557.693 145.82 557.353 145.38C557.073 145.02 556.633 144.78 555.993 144.78C555.493 144.78 554.953 144.92 554.533 145.42C553.973 146.08 553.933 147.06 553.933 147.66V152H552.493ZM62.8 169.7V174.54C62.8 175.12 62.8 175.8 63.2 176.32C63.42 176.6 63.86 176.96 64.66 176.96C65.46 176.96 65.9 176.6 66.12 176.32C66.52 175.8 66.52 175.12 66.52 174.54V169.7H67.96V174.7C67.96 175.72 67.86 176.48 67.2 177.2C66.46 177.98 65.48 178.24 64.66 178.24C63.84 178.24 62.86 177.98 62.12 177.2C61.46 176.48 61.36 175.72 61.36 174.7V169.7H62.8ZM78.3564 169.7L72.3564 176.68H78.1164V178H69.4764L75.4764 171.02H70.6364V169.7H78.3564ZM73.2564 166.94C73.2564 166.34 73.7164 165.88 74.3164 165.88C74.9164 165.88 75.3764 166.34 75.3764 166.94C75.3764 167.54 74.9164 168 74.3164 168C73.7164 168 73.2564 167.54 73.2564 166.94ZM79.8556 182.6L82.4956 177.22L78.6756 169.7H80.3156L83.2556 175.64L85.9556 169.7H87.5556L81.4556 182.6H79.8556ZM95.5748 170.3V172.02C94.8148 171.06 93.7148 170.78 92.9748 170.78C91.4348 170.78 90.0348 171.86 90.0348 173.88C90.0348 175.9 91.4748 176.96 92.9548 176.96C93.8148 176.96 94.8748 176.58 95.6348 175.66V177.38C94.7348 178.04 93.7748 178.24 92.9948 178.24C90.4148 178.24 88.5548 176.4 88.5548 173.9C88.5548 171.36 90.4348 169.5 92.9948 169.5C94.3148 169.5 95.1748 170.02 95.5748 170.3ZM97.8444 169.7H99.2844V178H97.8444V169.7ZM97.5444 166.56C97.5444 166 98.0044 165.54 98.5644 165.54C99.1244 165.54 99.5844 166 99.5844 166.56C99.5844 167.12 99.1244 167.58 98.5644 167.58C98.0044 167.58 97.5444 167.12 97.5444 166.56ZM108.165 175.22L109.365 175.88C109.125 176.34 108.765 176.84 108.345 177.22C107.585 177.9 106.645 178.24 105.585 178.24C103.585 178.24 101.485 176.98 101.485 173.9C101.485 171.42 103.005 169.5 105.505 169.5C107.125 169.5 108.145 170.3 108.645 171.02C109.165 171.76 109.465 173.04 109.425 174.14H102.965C102.985 175.86 104.165 176.96 105.605 176.96C106.285 176.96 106.825 176.76 107.305 176.36C107.685 176.04 107.985 175.62 108.165 175.22ZM103.065 172.94H107.945C107.705 171.64 106.725 170.78 105.505 170.78C104.285 170.78 103.285 171.7 103.065 172.94ZM116.301 163.42H117.741V178H116.301V163.42ZM121.902 169.7V174.54C121.902 175.12 121.902 175.8 122.302 176.32C122.522 176.6 122.962 176.96 123.762 176.96C124.562 176.96 125.002 176.6 125.222 176.32C125.622 175.8 125.622 175.12 125.622 174.54V169.7H127.062V174.7C127.062 175.72 126.962 176.48 126.302 177.2C125.562 177.98 124.582 178.24 123.762 178.24C122.942 178.24 121.962 177.98 121.222 177.2C120.562 176.48 120.462 175.72 120.462 174.7V169.7H121.902ZM131.218 176.84V178H129.778V163.42H131.218V170.86C132.198 169.64 133.458 169.5 134.058 169.5C136.658 169.5 138.098 171.66 138.098 173.9C138.098 176.18 136.638 178.24 134.118 178.24C132.778 178.24 131.838 177.64 131.218 176.84ZM133.918 176.96C135.598 176.96 136.618 175.56 136.618 173.9C136.618 171.86 135.238 170.78 133.898 170.78C132.558 170.78 131.138 171.88 131.138 173.88C131.138 175.58 132.218 176.96 133.918 176.96ZM147.733 164.66L146.073 169.28L144.773 168.8L146.793 164.28L147.733 164.66ZM150.653 164.66L149.033 169.28L147.693 168.8L149.713 164.28L150.653 164.66ZM162.056 164.66L154.776 176.6H161.856V178H152.296L159.576 166.06H153.236V164.66H162.056ZM167.388 178.24C164.868 178.24 162.988 176.4 162.988 173.88C162.988 171.36 164.848 169.5 167.388 169.5C169.928 169.5 171.788 171.36 171.788 173.88C171.788 176.4 169.908 178.24 167.388 178.24ZM167.388 170.78C165.868 170.78 164.468 171.86 164.468 173.88C164.468 175.92 165.908 176.96 167.388 176.96C168.888 176.96 170.308 175.9 170.308 173.88C170.308 171.84 168.908 170.78 167.388 170.78ZM175.437 176.84V178H173.997V163.42H175.437V170.86C176.417 169.64 177.677 169.5 178.277 169.5C180.877 169.5 182.317 171.66 182.317 173.9C182.317 176.18 180.857 178.24 178.337 178.24C176.997 178.24 176.057 177.64 175.437 176.84ZM178.137 176.96C179.817 176.96 180.837 175.56 180.837 173.9C180.837 171.86 179.457 170.78 178.117 170.78C176.777 170.78 175.357 171.88 175.357 173.88C175.357 175.58 176.437 176.96 178.137 176.96ZM190.884 170.88V169.7H192.324V178H190.884V176.84C190.404 177.46 189.504 178.24 188.044 178.24C185.944 178.24 184.004 176.76 184.004 173.84C184.004 170.98 185.924 169.5 188.044 169.5C189.644 169.5 190.504 170.38 190.884 170.88ZM188.204 170.78C186.784 170.78 185.484 171.82 185.484 173.84C185.484 175.62 186.484 176.96 188.204 176.96C189.964 176.96 190.964 175.5 190.964 173.86C190.964 171.72 189.484 170.78 188.204 170.78ZM201.551 170.3V172.02C200.791 171.06 199.691 170.78 198.951 170.78C197.411 170.78 196.011 171.86 196.011 173.88C196.011 175.9 197.451 176.96 198.931 176.96C199.791 176.96 200.851 176.58 201.611 175.66V177.38C200.711 178.04 199.751 178.24 198.971 178.24C196.391 178.24 194.531 176.4 194.531 173.9C194.531 171.36 196.411 169.5 198.971 169.5C200.291 169.5 201.151 170.02 201.551 170.3ZM211.501 169.7L205.501 176.68H211.261V178H202.621L208.621 171.02H203.781V169.7H211.501ZM219.128 176.84V182.6H217.688V169.7H219.128V170.86C220.108 169.64 221.368 169.5 221.968 169.5C224.568 169.5 226.008 171.66 226.008 173.9C226.008 176.18 224.548 178.24 222.028 178.24C220.688 178.24 219.748 177.64 219.128 176.84ZM221.828 176.96C223.508 176.96 224.528 175.56 224.528 173.9C224.528 171.86 223.148 170.78 221.808 170.78C220.468 170.78 219.048 171.88 219.048 173.88C219.048 175.58 220.128 176.96 221.828 176.96ZM228.215 178V169.7H229.655V170.6C229.795 170.38 230.415 169.5 231.535 169.5C231.975 169.5 232.455 169.66 232.815 169.84L232.135 171.14C231.815 170.92 231.515 170.86 231.295 170.86C230.715 170.86 230.355 171.1 230.135 171.38C229.895 171.7 229.655 172.26 229.655 173.62V178H228.215ZM239.805 175.22L241.005 175.88C240.765 176.34 240.405 176.84 239.985 177.22C239.225 177.9 238.285 178.24 237.225 178.24C235.225 178.24 233.125 176.98 233.125 173.9C233.125 171.42 234.645 169.5 237.145 169.5C238.765 169.5 239.785 170.3 240.285 171.02C240.805 171.76 241.105 173.04 241.065 174.14H234.605C234.625 175.86 235.805 176.96 237.245 176.96C237.925 176.96 238.465 176.76 238.945 176.36C239.325 176.04 239.625 175.62 239.805 175.22ZM234.705 172.94H239.585C239.345 171.64 238.365 170.78 237.145 170.78C235.925 170.78 234.925 171.7 234.705 172.94ZM246.794 171.02H244.754V178H243.314V171.02H242.514V169.7H243.314V166.08C243.314 165.32 243.374 164.36 244.114 163.74C244.514 163.4 245.114 163.2 245.774 163.2C246.294 163.2 246.634 163.32 246.794 163.38V164.78C246.494 164.66 246.154 164.6 245.854 164.6C245.534 164.6 245.154 164.68 244.934 165.04C244.754 165.34 244.754 165.8 244.754 166.24V169.7H246.794V171.02ZM254.239 175.22L255.439 175.88C255.199 176.34 254.839 176.84 254.419 177.22C253.659 177.9 252.719 178.24 251.659 178.24C249.659 178.24 247.559 176.98 247.559 173.9C247.559 171.42 249.079 169.5 251.579 169.5C253.199 169.5 254.219 170.3 254.719 171.02C255.239 171.76 255.539 173.04 255.499 174.14H249.039C249.059 175.86 250.239 176.96 251.679 176.96C252.359 176.96 252.899 176.76 253.379 176.36C253.759 176.04 254.059 175.62 254.239 175.22ZM249.139 172.94H254.019C253.779 171.64 252.799 170.78 251.579 170.78C250.359 170.78 249.359 171.7 249.139 172.94ZM257.708 178V169.7H259.148V170.6C259.288 170.38 259.908 169.5 261.028 169.5C261.468 169.5 261.948 169.66 262.308 169.84L261.628 171.14C261.308 170.92 261.008 170.86 260.788 170.86C260.208 170.86 259.848 171.1 259.628 171.38C259.388 171.7 259.148 172.26 259.148 173.62V178H257.708ZM269.297 175.22L270.497 175.88C270.257 176.34 269.897 176.84 269.477 177.22C268.717 177.9 267.777 178.24 266.717 178.24C264.717 178.24 262.617 176.98 262.617 173.9C262.617 171.42 264.137 169.5 266.637 169.5C268.257 169.5 269.277 170.3 269.777 171.02C270.297 171.76 270.597 173.04 270.557 174.14H264.097C264.117 175.86 265.297 176.96 266.737 176.96C267.417 176.96 267.957 176.76 268.437 176.36C268.817 176.04 269.117 175.62 269.297 175.22ZM264.197 172.94H269.077C268.837 171.64 267.857 170.78 266.637 170.78C265.417 170.78 264.417 171.7 264.197 172.94ZM272.766 178V169.7H274.206V170.66C274.466 170.32 275.206 169.5 276.586 169.5C277.566 169.5 278.466 169.9 278.966 170.64C279.386 171.26 279.446 171.94 279.446 172.86V178H278.006V172.9C278.006 172.4 277.966 171.82 277.626 171.38C277.346 171.02 276.906 170.78 276.266 170.78C275.766 170.78 275.226 170.92 274.806 171.42C274.246 172.08 274.206 173.06 274.206 173.66V178H272.766ZM288.661 170.3V172.02C287.901 171.06 286.801 170.78 286.061 170.78C284.521 170.78 283.121 171.86 283.121 173.88C283.121 175.9 284.561 176.96 286.041 176.96C286.901 176.96 287.961 176.58 288.721 175.66V177.38C287.821 178.04 286.861 178.24 286.081 178.24C283.501 178.24 281.641 176.4 281.641 173.9C281.641 171.36 283.521 169.5 286.081 169.5C287.401 169.5 288.261 170.02 288.661 170.3ZM290.93 169.7H292.37V182.6H290.93V169.7ZM290.63 166.56C290.63 166 291.09 165.54 291.65 165.54C292.21 165.54 292.67 166 292.67 166.56C292.67 167.12 292.21 167.58 291.65 167.58C291.09 167.58 290.63 167.12 290.63 166.56ZM301.25 175.22L302.45 175.88C302.21 176.34 301.85 176.84 301.43 177.22C300.67 177.9 299.73 178.24 298.67 178.24C296.67 178.24 294.57 176.98 294.57 173.9C294.57 171.42 296.09 169.5 298.59 169.5C300.21 169.5 301.23 170.3 301.73 171.02C302.25 171.76 302.55 173.04 302.51 174.14H296.05C296.07 175.86 297.25 176.96 298.69 176.96C299.37 176.96 299.91 176.76 300.39 176.36C300.77 176.04 301.07 175.62 301.25 175.22ZM296.15 172.94H301.03C300.79 171.64 299.81 170.78 298.59 170.78C297.37 170.78 296.37 171.7 296.15 172.94ZM304.519 168.8L306.139 164.18L307.479 164.66L305.459 169.18L304.519 168.8ZM307.439 168.8L309.099 164.18L310.399 164.66L308.379 169.18L307.439 168.8ZM311.763 180.66L313.403 176.04L314.723 176.52L312.703 181.04L311.763 180.66ZM328.501 170.88V169.7H329.941V178H328.501V176.84C328.021 177.46 327.121 178.24 325.661 178.24C323.561 178.24 321.621 176.76 321.621 173.84C321.621 170.98 323.541 169.5 325.661 169.5C327.261 169.5 328.121 170.38 328.501 170.88ZM325.821 170.78C324.401 170.78 323.101 171.82 323.101 173.84C323.101 175.62 324.101 176.96 325.821 176.96C327.581 176.96 328.581 175.5 328.581 173.86C328.581 171.72 327.101 170.78 325.821 170.78ZM334.109 176.84V178H332.669V163.42H334.109V170.86C335.089 169.64 336.349 169.5 336.949 169.5C339.549 169.5 340.989 171.66 340.989 173.9C340.989 176.18 339.529 178.24 337.009 178.24C335.669 178.24 334.729 177.64 334.109 176.84ZM336.809 176.96C338.489 176.96 339.509 175.56 339.509 173.9C339.509 171.86 338.129 170.78 336.789 170.78C335.449 170.78 334.029 171.88 334.029 173.88C334.029 175.58 335.109 176.96 336.809 176.96ZM343.176 182.6L345.816 177.22L341.996 169.7H343.636L346.576 175.64L349.276 169.7H350.876L344.776 182.6H343.176ZM363.423 170.88V163.42H364.863V178H363.423V176.84C362.943 177.46 362.043 178.24 360.583 178.24C358.483 178.24 356.543 176.76 356.543 173.84C356.543 170.98 358.463 169.5 360.583 169.5C362.183 169.5 363.043 170.38 363.423 170.88ZM360.743 170.78C359.323 170.78 358.023 171.82 358.023 173.84C358.023 175.62 359.023 176.96 360.743 176.96C362.503 176.96 363.503 175.5 363.503 173.86C363.503 171.72 362.023 170.78 360.743 170.78ZM371.47 178.24C368.95 178.24 367.07 176.4 367.07 173.88C367.07 171.36 368.93 169.5 371.47 169.5C374.01 169.5 375.87 171.36 375.87 173.88C375.87 176.4 373.99 178.24 371.47 178.24ZM371.47 170.78C369.95 170.78 368.55 171.86 368.55 173.88C368.55 175.92 369.99 176.96 371.47 176.96C372.97 176.96 374.39 175.9 374.39 173.88C374.39 171.84 372.99 170.78 371.47 170.78ZM376.879 169.7H378.479L380.939 175.34L383.539 169.06L386.119 175.34L388.599 169.7H390.199L386.079 178.58L383.519 172.38L380.959 178.58L376.879 169.7ZM391.712 169.7H393.152V178H391.712V169.7ZM391.412 166.56C391.412 166 391.872 165.54 392.432 165.54C392.992 165.54 393.452 166 393.452 166.56C393.452 167.12 392.992 167.58 392.432 167.58C391.872 167.58 391.412 167.12 391.412 166.56ZM402.032 175.22L403.232 175.88C402.992 176.34 402.632 176.84 402.212 177.22C401.452 177.9 400.512 178.24 399.452 178.24C397.452 178.24 395.352 176.98 395.352 173.9C395.352 171.42 396.872 169.5 399.372 169.5C400.992 169.5 402.012 170.3 402.512 171.02C403.032 171.76 403.332 173.04 403.292 174.14H396.832C396.852 175.86 398.032 176.96 399.472 176.96C400.152 176.96 400.692 176.76 401.172 176.36C401.552 176.04 401.852 175.62 402.032 175.22ZM396.932 172.94H401.812C401.572 171.64 400.592 170.78 399.372 170.78C398.152 170.78 397.152 171.7 396.932 172.94ZM411.861 170.88V163.42H413.301V178H411.861V176.84C411.381 177.46 410.481 178.24 409.021 178.24C406.921 178.24 404.981 176.76 404.981 173.84C404.981 170.98 406.901 169.5 409.021 169.5C410.621 169.5 411.481 170.38 411.861 170.88ZM409.181 170.78C407.761 170.78 406.461 171.82 406.461 173.84C406.461 175.62 407.461 176.96 409.181 176.96C410.941 176.96 411.941 175.5 411.941 173.86C411.941 171.72 410.461 170.78 409.181 170.78ZM423.513 169.7L417.513 176.68H423.273V178H414.633L420.633 171.02H415.793V169.7H423.513ZM425.032 169.7H426.472V178H425.032V169.7ZM424.732 166.56C424.732 166 425.192 165.54 425.752 165.54C426.312 165.54 426.772 166 426.772 166.56C426.772 167.12 426.312 167.58 425.752 167.58C425.192 167.58 424.732 167.12 424.732 166.56ZM435.352 175.22L436.552 175.88C436.312 176.34 435.952 176.84 435.532 177.22C434.772 177.9 433.832 178.24 432.772 178.24C430.772 178.24 428.672 176.98 428.672 173.9C428.672 171.42 430.192 169.5 432.692 169.5C434.312 169.5 435.332 170.3 435.832 171.02C436.352 171.76 436.652 173.04 436.612 174.14H430.152C430.172 175.86 431.352 176.96 432.792 176.96C433.472 176.96 434.012 176.76 434.492 176.36C434.872 176.04 435.172 175.62 435.352 175.22ZM430.252 172.94H435.132C434.892 171.64 433.912 170.78 432.692 170.78C431.472 170.78 430.472 171.7 430.252 172.94ZM445.321 170.3V172.02C444.561 171.06 443.461 170.78 442.721 170.78C441.181 170.78 439.781 171.86 439.781 173.88C439.781 175.9 441.221 176.96 442.701 176.96C443.561 176.96 444.621 176.58 445.381 175.66V177.38C444.481 178.04 443.521 178.24 442.741 178.24C440.161 178.24 438.301 176.4 438.301 173.9C438.301 171.36 440.181 169.5 442.741 169.5C444.061 169.5 444.921 170.02 445.321 170.3ZM443.301 164.68L444.781 165.36L442.101 168.06L441.201 167.58L443.301 164.68ZM456.858 171L455.678 171.62C455.478 171.14 455.058 170.78 454.518 170.78C453.998 170.78 453.518 171.08 453.518 171.72C453.518 172.32 453.918 172.5 454.858 172.9C456.058 173.4 456.618 173.78 456.938 174.18C457.298 174.62 457.378 175.06 457.378 175.52C457.378 177.26 456.118 178.24 454.518 178.24C454.178 178.24 452.318 178.2 451.618 176.12L452.858 175.6C453.018 176.04 453.498 176.96 454.538 176.96C455.478 176.96 455.898 176.26 455.898 175.64C455.898 174.86 455.338 174.6 454.558 174.26C453.558 173.82 452.918 173.5 452.538 173.04C452.218 172.64 452.158 172.24 452.158 171.82C452.158 170.36 453.178 169.5 454.578 169.5C455.018 169.5 456.198 169.58 456.858 171ZM459.29 169.7H460.73V178H459.29V169.7ZM458.99 166.56C458.99 166 459.45 165.54 460.01 165.54C460.57 165.54 461.03 166 461.03 166.56C461.03 167.12 460.57 167.58 460.01 167.58C459.45 167.58 458.99 167.12 458.99 166.56ZM469.63 175.22L470.83 175.88C470.59 176.4 470.29 176.78 469.81 177.2C469.31 177.64 469.05 177.76 468.57 178.04C467.99 178.38 467.71 178.64 467.55 178.8C467.17 179.2 467.09 179.58 467.09 179.8C467.09 180.12 467.27 180.3 467.31 180.34C467.51 180.54 467.87 180.6 468.13 180.6C468.37 180.6 468.67 180.56 469.09 180.34L468.93 181.44C468.53 181.66 468.13 181.72 467.81 181.72C467.23 181.72 466.69 181.52 466.35 181.18C466.11 180.96 465.89 180.58 465.89 180.04C465.89 179.62 466.03 179.26 466.25 178.96C466.43 178.7 466.69 178.44 466.95 178.24C465.65 178.24 464.71 177.68 464.15 177.14C463.59 176.6 462.93 175.6 462.93 173.9C462.93 172.52 463.41 171.34 464.17 170.58C464.73 170.02 465.63 169.5 466.97 169.5C468.15 169.5 469.13 169.94 469.75 170.58C470.87 171.72 470.89 173.54 470.89 174.14H464.41C464.43 174.86 464.71 175.7 465.21 176.22C465.65 176.68 466.33 176.96 467.07 176.96C467.85 176.96 468.41 176.66 468.77 176.36C469.13 176.06 469.43 175.62 469.63 175.22ZM464.53 172.94H469.41C469.29 172.22 468.95 171.74 468.65 171.46C468.13 170.96 467.51 170.78 466.97 170.78C466.27 170.78 465.67 171.06 465.27 171.48C464.89 171.88 464.63 172.44 464.53 172.94ZM476.566 169.7H478.166L480.626 175.34L483.226 169.06L485.806 175.34L488.286 169.7H489.886L485.766 178.58L483.206 172.38L480.646 178.58L476.566 169.7ZM491.399 169.7H492.839V178H491.399V169.7ZM491.099 166.56C491.099 166 491.559 165.54 492.119 165.54C492.679 165.54 493.139 166 493.139 166.56C493.139 167.12 492.679 167.58 492.119 167.58C491.559 167.58 491.099 167.12 491.099 166.56ZM501.739 175.22L502.939 175.88C502.699 176.4 502.399 176.78 501.919 177.2C501.419 177.64 501.159 177.76 500.679 178.04C500.099 178.38 499.819 178.64 499.659 178.8C499.279 179.2 499.199 179.58 499.199 179.8C499.199 180.12 499.379 180.3 499.419 180.34C499.619 180.54 499.979 180.6 500.239 180.6C500.479 180.6 500.779 180.56 501.199 180.34L501.039 181.44C500.639 181.66 500.239 181.72 499.919 181.72C499.339 181.72 498.799 181.52 498.459 181.18C498.219 180.96 497.999 180.58 497.999 180.04C497.999 179.62 498.139 179.26 498.359 178.96C498.539 178.7 498.799 178.44 499.059 178.24C497.759 178.24 496.819 177.68 496.259 177.14C495.699 176.6 495.039 175.6 495.039 173.9C495.039 172.52 495.519 171.34 496.279 170.58C496.839 170.02 497.739 169.5 499.079 169.5C500.259 169.5 501.239 169.94 501.859 170.58C502.979 171.72 502.999 173.54 502.999 174.14H496.519C496.539 174.86 496.819 175.7 497.319 176.22C497.759 176.68 498.439 176.96 499.179 176.96C499.959 176.96 500.519 176.66 500.879 176.36C501.239 176.06 501.539 175.62 501.739 175.22ZM496.639 172.94H501.519C501.399 172.22 501.059 171.74 500.759 171.46C500.239 170.96 499.619 170.78 499.079 170.78C498.379 170.78 497.779 171.06 497.379 171.48C496.999 171.88 496.739 172.44 496.639 172.94ZM511.708 170.3V172.02C510.948 171.06 509.848 170.78 509.108 170.78C507.568 170.78 506.168 171.86 506.168 173.88C506.168 175.9 507.608 176.96 509.088 176.96C509.948 176.96 511.008 176.58 511.768 175.66V177.38C510.868 178.04 509.908 178.24 509.128 178.24C506.548 178.24 504.688 176.4 504.688 173.9C504.688 171.36 506.568 169.5 509.128 169.5C510.448 169.5 511.308 170.02 511.708 170.3ZM520.137 175.22L521.337 175.88C521.097 176.34 520.737 176.84 520.317 177.22C519.557 177.9 518.617 178.24 517.557 178.24C515.557 178.24 513.457 176.98 513.457 173.9C513.457 171.42 514.977 169.5 517.477 169.5C519.097 169.5 520.117 170.3 520.617 171.02C521.137 171.76 521.437 173.04 521.397 174.14H514.937C514.957 175.86 516.137 176.96 517.577 176.96C518.257 176.96 518.797 176.76 519.277 176.36C519.657 176.04 519.957 175.62 520.137 175.22ZM515.037 172.94H519.917C519.677 171.64 518.697 170.78 517.477 170.78C516.257 170.78 515.257 171.7 515.037 172.94ZM523.606 169.7H525.046V182.6H523.606V169.7ZM523.306 166.56C523.306 166 523.766 165.54 524.326 165.54C524.886 165.54 525.346 166 525.346 166.56C525.346 167.12 524.886 167.58 524.326 167.58C523.766 167.58 523.306 167.12 523.306 166.56ZM527.686 177.2C527.686 176.66 528.146 176.2 528.686 176.2C529.226 176.2 529.686 176.66 529.686 177.2C529.686 177.74 529.226 178.2 528.686 178.2C528.146 178.2 527.686 177.74 527.686 177.2Z" fill="#1A1A18"/>
<rect x="61.5" y="215.5" width="229" height="63" rx="31.5" fill="#E1E4E5"/>
<rect x="61.5" y="215.5" width="229" height="63" rx="31.5" stroke="#0074A7" stroke-width="3"/>
<path d="M110.24 240.66L102.96 252.6H110.04V254H100.48L107.76 242.06H101.42V240.66H110.24ZM115.572 254.24C113.052 254.24 111.172 252.4 111.172 249.88C111.172 247.36 113.032 245.5 115.572 245.5C118.112 245.5 119.972 247.36 119.972 249.88C119.972 252.4 118.092 254.24 115.572 254.24ZM115.572 246.78C114.052 246.78 112.652 247.86 112.652 249.88C112.652 251.92 114.092 252.96 115.572 252.96C117.072 252.96 118.492 251.9 118.492 249.88C118.492 247.84 117.092 246.78 115.572 246.78ZM123.62 252.84V254H122.18V239.42H123.62V246.86C124.6 245.64 125.86 245.5 126.46 245.5C129.06 245.5 130.5 247.66 130.5 249.9C130.5 252.18 129.04 254.24 126.52 254.24C125.18 254.24 124.24 253.64 123.62 252.84ZM126.32 252.96C128 252.96 129.02 251.56 129.02 249.9C129.02 247.86 127.64 246.78 126.3 246.78C124.96 246.78 123.54 247.88 123.54 249.88C123.54 251.58 124.62 252.96 126.32 252.96ZM139.068 246.88V245.7H140.508V254H139.068V252.84C138.588 253.46 137.688 254.24 136.228 254.24C134.128 254.24 132.188 252.76 132.188 249.84C132.188 246.98 134.108 245.5 136.228 245.5C137.828 245.5 138.688 246.38 139.068 246.88ZM136.388 246.78C134.968 246.78 133.668 247.82 133.668 249.84C133.668 251.62 134.668 252.96 136.388 252.96C138.148 252.96 139.148 251.5 139.148 249.86C139.148 247.72 137.668 246.78 136.388 246.78ZM149.735 246.3V248.02C148.975 247.06 147.875 246.78 147.135 246.78C145.595 246.78 144.195 247.86 144.195 249.88C144.195 251.9 145.635 252.96 147.115 252.96C147.975 252.96 149.035 252.58 149.795 251.66V253.38C148.895 254.04 147.935 254.24 147.155 254.24C144.575 254.24 142.715 252.4 142.715 249.9C142.715 247.36 144.595 245.5 147.155 245.5C148.475 245.5 149.335 246.02 149.735 246.3ZM159.685 245.7L153.685 252.68H159.445V254H150.805L156.805 247.02H151.965V245.7H159.685ZM167.312 252.84V258.6H165.872V245.7H167.312V246.86C168.292 245.64 169.552 245.5 170.152 245.5C172.752 245.5 174.192 247.66 174.192 249.9C174.192 252.18 172.732 254.24 170.212 254.24C168.872 254.24 167.932 253.64 167.312 252.84ZM170.012 252.96C171.692 252.96 172.712 251.56 172.712 249.9C172.712 247.86 171.332 246.78 169.992 246.78C168.652 246.78 167.232 247.88 167.232 249.88C167.232 251.58 168.312 252.96 170.012 252.96ZM176.399 254V245.7H177.839V246.6C177.979 246.38 178.599 245.5 179.719 245.5C180.159 245.5 180.639 245.66 180.999 245.84L180.319 247.14C179.999 246.92 179.699 246.86 179.479 246.86C178.899 246.86 178.539 247.1 178.319 247.38C178.079 247.7 177.839 248.26 177.839 249.62V254H176.399ZM187.989 251.22L189.189 251.88C188.949 252.34 188.589 252.84 188.169 253.22C187.409 253.9 186.469 254.24 185.409 254.24C183.409 254.24 181.309 252.98 181.309 249.9C181.309 247.42 182.829 245.5 185.329 245.5C186.949 245.5 187.969 246.3 188.469 247.02C188.989 247.76 189.289 249.04 189.249 250.14H182.789C182.809 251.86 183.989 252.96 185.429 252.96C186.109 252.96 186.649 252.76 187.129 252.36C187.509 252.04 187.809 251.62 187.989 251.22ZM182.889 248.94H187.769C187.529 247.64 186.549 246.78 185.329 246.78C184.109 246.78 183.109 247.7 182.889 248.94ZM194.978 247.02H192.938V254H191.498V247.02H190.698V245.7H191.498V242.08C191.498 241.32 191.558 240.36 192.298 239.74C192.698 239.4 193.298 239.2 193.958 239.2C194.478 239.2 194.818 239.32 194.978 239.38V240.78C194.678 240.66 194.338 240.6 194.038 240.6C193.718 240.6 193.338 240.68 193.118 241.04C192.938 241.34 192.938 241.8 192.938 242.24V245.7H194.978V247.02ZM202.422 251.22L203.622 251.88C203.382 252.34 203.022 252.84 202.602 253.22C201.842 253.9 200.902 254.24 199.842 254.24C197.842 254.24 195.742 252.98 195.742 249.9C195.742 247.42 197.262 245.5 199.762 245.5C201.382 245.5 202.402 246.3 202.902 247.02C203.422 247.76 203.722 249.04 203.682 250.14H197.222C197.242 251.86 198.422 252.96 199.862 252.96C200.542 252.96 201.082 252.76 201.562 252.36C201.942 252.04 202.242 251.62 202.422 251.22ZM197.322 248.94H202.202C201.962 247.64 200.982 246.78 199.762 246.78C198.542 246.78 197.542 247.7 197.322 248.94ZM205.891 254V245.7H207.331V246.6C207.471 246.38 208.091 245.5 209.211 245.5C209.651 245.5 210.131 245.66 210.491 245.84L209.811 247.14C209.491 246.92 209.191 246.86 208.971 246.86C208.391 246.86 208.031 247.1 207.811 247.38C207.571 247.7 207.331 248.26 207.331 249.62V254H205.891ZM217.481 251.22L218.681 251.88C218.441 252.34 218.081 252.84 217.661 253.22C216.901 253.9 215.961 254.24 214.901 254.24C212.901 254.24 210.801 252.98 210.801 249.9C210.801 247.42 212.321 245.5 214.821 245.5C216.441 245.5 217.461 246.3 217.961 247.02C218.481 247.76 218.781 249.04 218.741 250.14H212.281C212.301 251.86 213.481 252.96 214.921 252.96C215.601 252.96 216.141 252.76 216.621 252.36C217.001 252.04 217.301 251.62 217.481 251.22ZM212.381 248.94H217.261C217.021 247.64 216.041 246.78 214.821 246.78C213.601 246.78 212.601 247.7 212.381 248.94ZM220.95 254V245.7H222.39V246.66C222.65 246.32 223.39 245.5 224.77 245.5C225.75 245.5 226.65 245.9 227.15 246.64C227.57 247.26 227.63 247.94 227.63 248.86V254H226.19V248.9C226.19 248.4 226.15 247.82 225.81 247.38C225.53 247.02 225.09 246.78 224.45 246.78C223.95 246.78 223.41 246.92 222.99 247.42C222.43 248.08 222.39 249.06 222.39 249.66V254H220.95ZM236.844 246.3V248.02C236.084 247.06 234.984 246.78 234.244 246.78C232.704 246.78 231.304 247.86 231.304 249.88C231.304 251.9 232.744 252.96 234.224 252.96C235.084 252.96 236.144 252.58 236.904 251.66V253.38C236.004 254.04 235.044 254.24 234.264 254.24C231.684 254.24 229.824 252.4 229.824 249.9C229.824 247.36 231.704 245.5 234.264 245.5C235.584 245.5 236.444 246.02 236.844 246.3ZM239.114 245.7H240.554V258.6H239.114V245.7ZM238.814 242.56C238.814 242 239.274 241.54 239.834 241.54C240.394 241.54 240.854 242 240.854 242.56C240.854 243.12 240.394 243.58 239.834 243.58C239.274 243.58 238.814 243.12 238.814 242.56ZM249.434 251.22L250.634 251.88C250.394 252.34 250.034 252.84 249.614 253.22C248.854 253.9 247.914 254.24 246.854 254.24C244.854 254.24 242.754 252.98 242.754 249.9C242.754 247.42 244.274 245.5 246.774 245.5C248.394 245.5 249.414 246.3 249.914 247.02C250.434 247.76 250.734 249.04 250.694 250.14H244.234C244.254 251.86 245.434 252.96 246.874 252.96C247.554 252.96 248.094 252.76 248.574 252.36C248.954 252.04 249.254 251.62 249.434 251.22ZM244.334 248.94H249.214C248.974 247.64 247.994 246.78 246.774 246.78C245.554 246.78 244.554 247.7 244.334 248.94Z" fill="#0074A7"/>
<rect x="303.5" y="215.5" width="142" height="63" rx="31.5" fill="#E1E4E5"/>
<rect x="303.5" y="215.5" width="142" height="63" rx="31.5" stroke="#0074A7" stroke-width="3"/>
<path d="M349.94 254.24C346.08 254.24 343 251.3 343 247.34C343 243.36 346.1 240.44 349.94 240.44C353.78 240.44 356.88 243.36 356.88 247.34C356.88 251.3 353.8 254.24 349.94 254.24ZM349.94 241.84C346.94 241.84 344.52 244.28 344.52 247.34C344.52 250.4 346.94 252.84 349.94 252.84C352.94 252.84 355.36 250.4 355.36 247.34C355.36 244.28 352.94 241.84 349.94 241.84ZM365.599 246.88V239.42H367.039V254H365.599V252.84C365.119 253.46 364.219 254.24 362.759 254.24C360.659 254.24 358.719 252.76 358.719 249.84C358.719 246.98 360.639 245.5 362.759 245.5C364.359 245.5 365.219 246.38 365.599 246.88ZM362.919 246.78C361.499 246.78 360.199 247.82 360.199 249.84C360.199 251.62 361.199 252.96 362.919 252.96C364.679 252.96 365.679 251.5 365.679 249.86C365.679 247.72 364.199 246.78 362.919 246.78ZM369.766 254V245.7H371.206V246.58C371.666 245.9 372.386 245.5 373.266 245.5C374.766 245.5 375.366 246.56 375.526 246.84C376.326 245.58 377.466 245.5 378.026 245.5C380.486 245.5 380.726 247.56 380.726 248.74V254H379.286V248.96C379.286 248.02 379.166 246.78 377.806 246.78C376.146 246.78 375.966 248.38 375.966 249.38V254H374.526V249.08C374.526 248.5 374.546 246.78 373.026 246.78C371.386 246.78 371.206 248.48 371.206 249.48V254H369.766ZM387.338 254.24C384.818 254.24 382.938 252.4 382.938 249.88C382.938 247.36 384.798 245.5 387.338 245.5C389.878 245.5 391.738 247.36 391.738 249.88C391.738 252.4 389.858 254.24 387.338 254.24ZM387.338 246.78C385.818 246.78 384.418 247.86 384.418 249.88C384.418 251.92 385.858 252.96 387.338 252.96C388.838 252.96 390.258 251.9 390.258 249.88C390.258 247.84 388.858 246.78 387.338 246.78ZM388.578 240.68L390.058 241.36L387.378 244.06L386.478 243.58L388.578 240.68ZM392.746 245.7H394.346L396.806 251.34L399.406 245.06L401.986 251.34L404.466 245.7H406.066L401.946 254.58L399.386 248.38L396.826 254.58L392.746 245.7Z" fill="#0074A7"/>
<rect x="457" y="214" width="148" height="66" rx="33" fill="#0074A7"/>
<path d="M507.64 254L506.08 250.24H500.4L498.8 254H497.16L503.3 240.02L509.28 254H507.64ZM500.98 248.84H505.5L503.26 243.5L500.98 248.84ZM510.801 239.42H512.241V248.78L515.281 245.7H517.161L513.601 249.26L517.801 254H515.921L512.601 250.22L512.241 250.58V254H510.801V239.42ZM525.544 246.3V248.02C524.784 247.06 523.684 246.78 522.944 246.78C521.404 246.78 520.004 247.86 520.004 249.88C520.004 251.9 521.444 252.96 522.924 252.96C523.784 252.96 524.844 252.58 525.604 251.66V253.38C524.704 254.04 523.744 254.24 522.964 254.24C520.384 254.24 518.524 252.4 518.524 249.9C518.524 247.36 520.404 245.5 522.964 245.5C524.284 245.5 525.144 246.02 525.544 246.3ZM533.973 251.22L535.173 251.88C534.933 252.34 534.573 252.84 534.153 253.22C533.393 253.9 532.453 254.24 531.393 254.24C529.393 254.24 527.293 252.98 527.293 249.9C527.293 247.42 528.813 245.5 531.313 245.5C532.933 245.5 533.953 246.3 534.453 247.02C534.973 247.76 535.273 249.04 535.233 250.14H528.773C528.793 251.86 529.973 252.96 531.413 252.96C532.093 252.96 532.633 252.76 533.113 252.36C533.493 252.04 533.793 251.62 533.973 251.22ZM528.873 248.94H533.753C533.513 247.64 532.533 246.78 531.313 246.78C530.093 246.78 529.093 247.7 528.873 248.94ZM538.882 252.84V258.6H537.442V245.7H538.882V246.86C539.862 245.64 541.122 245.5 541.722 245.5C544.322 245.5 545.762 247.66 545.762 249.9C545.762 252.18 544.302 254.24 541.782 254.24C540.442 254.24 539.502 253.64 538.882 252.84ZM541.582 252.96C543.262 252.96 544.282 251.56 544.282 249.9C544.282 247.86 542.902 246.78 541.562 246.78C540.222 246.78 538.802 247.88 538.802 249.88C538.802 251.58 539.882 252.96 541.582 252.96ZM550.889 247.02H549.449V254H548.009V247.02H547.129V245.7H548.009V242.7H549.449V245.7H550.889V247.02ZM553.687 245.7V250.54C553.687 251.12 553.687 251.8 554.087 252.32C554.307 252.6 554.747 252.96 555.547 252.96C556.347 252.96 556.787 252.6 557.007 252.32C557.407 251.8 557.407 251.12 557.407 250.54V245.7H558.847V250.7C558.847 251.72 558.747 252.48 558.087 253.2C557.347 253.98 556.367 254.24 555.547 254.24C554.727 254.24 553.747 253.98 553.007 253.2C552.347 252.48 552.247 251.72 552.247 250.7V245.7H553.687ZM561.563 245.7H563.003V258.6H561.563V245.7ZM561.263 242.56C561.263 242 561.723 241.54 562.283 241.54C562.843 241.54 563.303 242 563.303 242.56C563.303 243.12 562.843 243.58 562.283 243.58C561.723 243.58 561.263 243.12 561.263 242.56Z" fill="#EFF4F8"/>
<path d="M188.704 304.662H190.398C191.336 304.662 192.12 304.774 192.75 305.32C193.436 305.908 193.604 306.734 193.604 307.322C193.604 308.638 192.778 309.94 190.65 309.94H189.74V314H188.704V304.662ZM189.74 305.642V308.96H190.594C191.826 308.96 192.568 308.344 192.568 307.266C192.568 305.782 191.182 305.642 190.51 305.642H189.74ZM197.457 314.168C195.693 314.168 194.377 312.88 194.377 311.116C194.377 309.352 195.679 308.05 197.457 308.05C199.235 308.05 200.537 309.352 200.537 311.116C200.537 312.88 199.221 314.168 197.457 314.168ZM197.457 308.946C196.393 308.946 195.413 309.702 195.413 311.116C195.413 312.544 196.421 313.272 197.457 313.272C198.507 313.272 199.501 312.53 199.501 311.116C199.501 309.688 198.521 308.946 197.457 308.946ZM202.083 303.794H203.091V314H202.083V303.794ZM204.995 308.19H206.003V314H204.995V308.19ZM204.785 305.992C204.785 305.6 205.107 305.278 205.499 305.278C205.891 305.278 206.213 305.6 206.213 305.992C206.213 306.384 205.891 306.706 205.499 306.706C205.107 306.706 204.785 306.384 204.785 305.992ZM209.951 309.114H208.943V314H207.935V309.114H207.319V308.19H207.935V306.09H208.943V308.19H209.951V309.114ZM211.311 317.22L213.159 313.454L210.485 308.19H211.633L213.691 312.348L215.581 308.19H216.701L212.431 317.22H211.311ZM217.765 303.794H218.773V310.346L220.901 308.19H222.217L219.725 310.682L222.665 314H221.349L219.025 311.354L218.773 311.606V314H217.765V303.794ZM228.123 309.016V308.19H229.131V314H228.123V313.188C227.787 313.622 227.157 314.168 226.135 314.168C224.665 314.168 223.307 313.132 223.307 311.088C223.307 309.086 224.651 308.05 226.135 308.05C227.255 308.05 227.857 308.666 228.123 309.016ZM226.247 308.946C225.253 308.946 224.343 309.674 224.343 311.088C224.343 312.334 225.043 313.272 226.247 313.272C227.479 313.272 228.179 312.25 228.179 311.102C228.179 309.604 227.143 308.946 226.247 308.946ZM235.315 313.188V317.22H234.307V308.19H235.315V309.002C236.001 308.148 236.883 308.05 237.303 308.05C239.123 308.05 240.131 309.562 240.131 311.13C240.131 312.726 239.109 314.168 237.345 314.168C236.407 314.168 235.749 313.748 235.315 313.188ZM237.205 313.272C238.381 313.272 239.095 312.292 239.095 311.13C239.095 309.702 238.129 308.946 237.191 308.946C236.253 308.946 235.259 309.716 235.259 311.116C235.259 312.306 236.015 313.272 237.205 313.272ZM241.677 303.794H242.685V314H241.677V303.794ZM244.589 308.19H245.597V314H244.589V308.19ZM244.379 305.992C244.379 305.6 244.701 305.278 245.093 305.278C245.485 305.278 245.807 305.6 245.807 305.992C245.807 306.384 245.485 306.706 245.093 306.706C244.701 306.706 244.379 306.384 244.379 305.992ZM247.501 303.794H248.509V310.346L250.637 308.19H251.953L249.461 310.682L252.401 314H251.085L248.761 311.354L248.509 311.606V314H247.501V303.794ZM255.918 314.168C254.154 314.168 252.838 312.88 252.838 311.116C252.838 309.352 254.14 308.05 255.918 308.05C257.696 308.05 258.998 309.352 258.998 311.116C258.998 312.88 257.682 314.168 255.918 314.168ZM255.918 308.946C254.854 308.946 253.874 309.702 253.874 311.116C253.874 312.544 254.882 313.272 255.918 313.272C256.968 313.272 257.962 312.53 257.962 311.116C257.962 309.688 256.982 308.946 255.918 308.946ZM256.786 304.676L257.822 305.152L255.946 307.042L255.316 306.706L256.786 304.676ZM259.704 308.19H260.824L262.546 312.138L264.366 307.742L266.172 312.138L267.908 308.19H269.028L266.144 314.406L264.352 310.066L262.56 314.406L259.704 308.19ZM277.904 308.61V309.814C277.372 309.142 276.602 308.946 276.084 308.946C275.006 308.946 274.026 309.702 274.026 311.116C274.026 312.53 275.034 313.272 276.07 313.272C276.672 313.272 277.414 313.006 277.946 312.362V313.566C277.316 314.028 276.644 314.168 276.098 314.168C274.292 314.168 272.99 312.88 272.99 311.13C272.99 309.352 274.306 308.05 276.098 308.05C277.022 308.05 277.624 308.414 277.904 308.61ZM282.209 314.168C280.445 314.168 279.129 312.88 279.129 311.116C279.129 309.352 280.431 308.05 282.209 308.05C283.987 308.05 285.289 309.352 285.289 311.116C285.289 312.88 283.973 314.168 282.209 314.168ZM282.209 308.946C281.145 308.946 280.165 309.702 280.165 311.116C280.165 312.544 281.173 313.272 282.209 313.272C283.259 313.272 284.253 312.53 284.253 311.116C284.253 309.688 283.273 308.946 282.209 308.946ZM289.551 314.168C287.787 314.168 286.471 312.88 286.471 311.116C286.471 309.352 287.773 308.05 289.551 308.05C291.329 308.05 292.631 309.352 292.631 311.116C292.631 312.88 291.315 314.168 289.551 314.168ZM289.551 308.946C288.487 308.946 287.507 309.702 287.507 311.116C287.507 312.544 288.515 313.272 289.551 313.272C290.601 313.272 291.595 312.53 291.595 311.116C291.595 309.688 290.615 308.946 289.551 308.946ZM294.177 303.794H295.185V310.346L297.313 308.19H298.629L296.137 310.682L299.077 314H297.761L295.437 311.354L295.185 311.606V314H294.177V303.794ZM300.083 308.19H301.091V314H300.083V308.19ZM299.873 305.992C299.873 305.6 300.195 305.278 300.587 305.278C300.979 305.278 301.301 305.6 301.301 305.992C301.301 306.384 300.979 306.706 300.587 306.706C300.195 306.706 299.873 306.384 299.873 305.992ZM307.307 312.054L308.147 312.516C307.979 312.838 307.727 313.188 307.433 313.454C306.901 313.93 306.243 314.168 305.501 314.168C304.101 314.168 302.631 313.286 302.631 311.13C302.631 309.394 303.695 308.05 305.445 308.05C306.579 308.05 307.293 308.61 307.643 309.114C308.007 309.632 308.217 310.528 308.189 311.298H303.667C303.681 312.502 304.507 313.272 305.515 313.272C305.991 313.272 306.369 313.132 306.705 312.852C306.971 312.628 307.181 312.334 307.307 312.054ZM303.737 310.458H307.153C306.985 309.548 306.299 308.946 305.445 308.946C304.591 308.946 303.891 309.59 303.737 310.458ZM312.955 309.1L312.129 309.534C311.989 309.198 311.695 308.946 311.317 308.946C310.953 308.946 310.617 309.156 310.617 309.604C310.617 310.024 310.897 310.15 311.555 310.43C312.395 310.78 312.787 311.046 313.011 311.326C313.263 311.634 313.319 311.942 313.319 312.264C313.319 313.482 312.437 314.168 311.317 314.168C311.079 314.168 309.777 314.14 309.287 312.684L310.155 312.32C310.267 312.628 310.603 313.272 311.331 313.272C311.989 313.272 312.283 312.782 312.283 312.348C312.283 311.802 311.891 311.62 311.345 311.382C310.645 311.074 310.197 310.85 309.931 310.528C309.707 310.248 309.665 309.968 309.665 309.674C309.665 308.652 310.379 308.05 311.359 308.05C311.667 308.05 312.493 308.106 312.955 309.1Z" fill="#1A1A18"/>
<path d="M187.5 315.4H193.884V316.1H187.5V315.4ZM193.789 315.4H216.813V316.1H193.789V315.4ZM216.812 315.4H222.721V316.1H216.812V315.4ZM222.719 315.4H252.457V316.1H222.719V315.4ZM252.25 315.4H269.14V316.1H252.25V315.4ZM269.135 315.4H299.133V316.1H269.135V315.4ZM299.131 315.4H313.711V316.1H299.131V315.4Z" fill="#1A1A18"/>
<path d="M365.704 304.662H367.398C368.336 304.662 369.12 304.774 369.75 305.32C370.436 305.908 370.604 306.734 370.604 307.322C370.604 308.638 369.778 309.94 367.65 309.94H366.74V314H365.704V304.662ZM366.74 305.642V308.96H367.594C368.826 308.96 369.568 308.344 369.568 307.266C369.568 305.782 368.182 305.642 367.51 305.642H366.74ZM374.457 314.168C372.693 314.168 371.377 312.88 371.377 311.116C371.377 309.352 372.679 308.05 374.457 308.05C376.235 308.05 377.537 309.352 377.537 311.116C377.537 312.88 376.221 314.168 374.457 314.168ZM374.457 308.946C373.393 308.946 372.413 309.702 372.413 311.116C372.413 312.544 373.421 313.272 374.457 313.272C375.507 313.272 376.501 312.53 376.501 311.116C376.501 309.688 375.521 308.946 374.457 308.946ZM379.083 303.794H380.091V314H379.083V303.794ZM381.995 308.19H383.003V314H381.995V308.19ZM381.785 305.992C381.785 305.6 382.107 305.278 382.499 305.278C382.891 305.278 383.213 305.6 383.213 305.992C383.213 306.384 382.891 306.706 382.499 306.706C382.107 306.706 381.785 306.384 381.785 305.992ZM386.951 309.114H385.943V314H384.935V309.114H384.319V308.19H384.935V306.09H385.943V308.19H386.951V309.114ZM388.311 317.22L390.159 313.454L387.485 308.19H388.633L390.691 312.348L392.581 308.19H393.701L389.431 317.22H388.311ZM394.765 303.794H395.773V310.346L397.901 308.19H399.217L396.725 310.682L399.665 314H398.349L396.025 311.354L395.773 311.606V314H394.765V303.794ZM405.123 309.016V308.19H406.131V314H405.123V313.188C404.787 313.622 404.157 314.168 403.135 314.168C401.665 314.168 400.307 313.132 400.307 311.088C400.307 309.086 401.651 308.05 403.135 308.05C404.255 308.05 404.857 308.666 405.123 309.016ZM403.247 308.946C402.253 308.946 401.343 309.674 401.343 311.088C401.343 312.334 402.043 313.272 403.247 313.272C404.479 313.272 405.179 312.25 405.179 311.102C405.179 309.604 404.143 308.946 403.247 308.946ZM412.315 313.188V317.22H411.307V308.19H412.315V309.002C413.001 308.148 413.883 308.05 414.303 308.05C416.123 308.05 417.131 309.562 417.131 311.13C417.131 312.726 416.109 314.168 414.345 314.168C413.407 314.168 412.749 313.748 412.315 313.188ZM414.205 313.272C415.381 313.272 416.095 312.292 416.095 311.13C416.095 309.702 415.129 308.946 414.191 308.946C413.253 308.946 412.259 309.716 412.259 311.116C412.259 312.306 413.015 313.272 414.205 313.272ZM418.677 314V308.19H419.685V308.82C419.783 308.666 420.217 308.05 421.001 308.05C421.309 308.05 421.645 308.162 421.897 308.288L421.421 309.198C421.197 309.044 420.987 309.002 420.833 309.002C420.427 309.002 420.175 309.17 420.021 309.366C419.853 309.59 419.685 309.982 419.685 310.934V314H418.677ZM423.243 317.22L425.091 313.454L422.417 308.19H423.565L425.623 312.348L427.513 308.19H428.633L424.363 317.22H423.243ZM428.856 308.19H429.976L431.698 312.138L433.518 307.742L435.324 312.138L437.06 308.19H438.18L435.296 314.406L433.504 310.066L431.712 314.406L428.856 308.19ZM443.691 309.016V308.19H444.699V314H443.691V313.188C443.355 313.622 442.725 314.168 441.703 314.168C440.233 314.168 438.875 313.132 438.875 311.088C438.875 309.086 440.219 308.05 441.703 308.05C442.823 308.05 443.425 308.666 443.691 309.016ZM441.815 308.946C440.821 308.946 439.911 309.674 439.911 311.088C439.911 312.334 440.611 313.272 441.815 313.272C443.047 313.272 443.747 312.25 443.747 311.102C443.747 309.604 442.711 308.946 441.815 308.946ZM448.652 309.114H447.644V314H446.636V309.114H446.02V308.19H446.636V306.09H447.644V308.19H448.652V309.114ZM449.602 314V308.19H450.61V308.862C450.792 308.624 451.31 308.05 452.276 308.05C452.962 308.05 453.592 308.33 453.942 308.848C454.236 309.282 454.278 309.758 454.278 310.402V314H453.27V310.43C453.27 310.08 453.242 309.674 453.004 309.366C452.808 309.114 452.5 308.946 452.052 308.946C451.702 308.946 451.324 309.044 451.03 309.394C450.638 309.856 450.61 310.542 450.61 310.962V314H449.602ZM458.895 314.168C457.131 314.168 455.815 312.88 455.815 311.116C455.815 309.352 457.117 308.05 458.895 308.05C460.673 308.05 461.975 309.352 461.975 311.116C461.975 312.88 460.659 314.168 458.895 314.168ZM458.895 308.946C457.831 308.946 456.851 309.702 456.851 311.116C456.851 312.544 457.859 313.272 458.895 313.272C459.945 313.272 460.939 312.53 460.939 311.116C460.939 309.688 459.959 308.946 458.895 308.946ZM466.74 309.1L465.914 309.534C465.774 309.198 465.48 308.946 465.102 308.946C464.738 308.946 464.402 309.156 464.402 309.604C464.402 310.024 464.682 310.15 465.34 310.43C466.18 310.78 466.572 311.046 466.796 311.326C467.048 311.634 467.104 311.942 467.104 312.264C467.104 313.482 466.222 314.168 465.102 314.168C464.864 314.168 463.562 314.14 463.072 312.684L463.94 312.32C464.052 312.628 464.388 313.272 465.116 313.272C465.774 313.272 466.068 312.782 466.068 312.348C466.068 311.802 465.676 311.62 465.13 311.382C464.43 311.074 463.982 310.85 463.716 310.528C463.492 310.248 463.45 309.968 463.45 309.674C463.45 308.652 464.164 308.05 465.144 308.05C465.452 308.05 466.278 308.106 466.74 309.1ZM465.9 304.676L466.936 305.152L465.06 307.042L464.43 306.706L465.9 304.676ZM472.992 308.61V309.814C472.46 309.142 471.69 308.946 471.172 308.946C470.094 308.946 469.114 309.702 469.114 311.116C469.114 312.53 470.122 313.272 471.158 313.272C471.76 313.272 472.502 313.006 473.034 312.362V313.566C472.404 314.028 471.732 314.168 471.186 314.168C469.38 314.168 468.078 312.88 468.078 311.13C468.078 309.352 469.394 308.05 471.186 308.05C472.11 308.05 472.712 308.414 472.992 308.61ZM474.581 308.19H475.589V314H474.581V308.19ZM474.371 305.992C474.371 305.6 474.693 305.278 475.085 305.278C475.477 305.278 475.799 305.6 475.799 305.992C475.799 306.384 475.477 306.706 475.085 306.706C474.693 306.706 474.371 306.384 474.371 305.992Z" fill="#1A1A18"/>
<path d="M364.5 315.4H370.884V316.1H364.5V315.4ZM370.789 315.4H393.813V316.1H370.789V315.4ZM393.812 315.4H399.721V316.1H393.812V315.4ZM399.719 315.4H428.745V316.1H399.719V315.4ZM428.744 315.4H438.292V316.1H428.744V315.4ZM438.287 315.4H448.652V316.1H438.287V315.4ZM448.65 315.4H455.23V316.1H448.65V315.4ZM455.227 315.4H467.496V316.1H455.227V315.4ZM467.49 315.4H476.541V316.1H467.49V315.4Z" fill="#1A1A18"/>
</g>
<defs>
<clipPath id="clip0_1395_4863">
<rect width="665" height="338" rx="35" fill="white"/>
</clipPath>
</defs>
</svg>
