<svg width="440" height="250" viewBox="0 0 440 250" fill="none" xmlns="http://www.w3.org/2000/svg">
<rect width="440" height="250" rx="50" fill="#E1E4E5"/>
<path d="M41.36 91V82.7H42.8V83.66C43.06 83.32 43.8 82.5 45.18 82.5C46.16 82.5 47.06 82.9 47.56 83.64C47.98 84.26 48.04 84.94 48.04 85.86V91H46.6V85.9C46.6 85.4 46.56 84.82 46.22 84.38C45.94 84.02 45.5 83.78 44.86 83.78C44.36 83.78 43.82 83.92 43.4 84.42C42.84 85.08 42.8 86.06 42.8 86.66V91H41.36ZM57.1145 83.88V82.7H58.5545V91H57.1145V89.84C56.6345 90.46 55.7345 91.24 54.2745 91.24C52.1745 91.24 50.2345 89.76 50.2345 86.84C50.2345 83.98 52.1545 82.5 54.2745 82.5C55.8745 82.5 56.7345 83.38 57.1145 83.88ZM54.4345 83.78C53.0145 83.78 51.7145 84.82 51.7145 86.84C51.7145 88.62 52.7145 89.96 54.4345 89.96C56.1945 89.96 57.1945 88.5 57.1945 86.86C57.1945 84.72 55.7145 83.78 54.4345 83.78ZM68.7666 82.7L62.7666 89.68H68.5266V91H59.8866L65.8866 84.02H61.0466V82.7H68.7666ZM69.0858 82.7H70.6858L73.1458 88.34L75.7458 82.06L78.3258 88.34L80.8058 82.7H82.4058L78.2858 91.58L75.7258 85.38L73.1658 91.58L69.0858 82.7ZM90.2786 83.88V82.7H91.7186V91H90.2786V89.84C89.7986 90.46 88.8986 91.24 87.4386 91.24C85.3386 91.24 83.3986 89.76 83.3986 86.84C83.3986 83.98 85.3186 82.5 87.4386 82.5C89.0386 82.5 89.8986 83.38 90.2786 83.88ZM87.5986 83.78C86.1786 83.78 84.8786 84.82 84.8786 86.84C84.8786 88.62 85.8786 89.96 87.5986 89.96C89.3586 89.96 90.3586 88.5 90.3586 86.86C90.3586 84.72 88.8786 83.78 87.5986 83.78Z" fill="#1A1A18"/>
<path d="M44.716 104.38V105.412C44.26 104.836 43.6 104.668 43.156 104.668C42.232 104.668 41.392 105.316 41.392 106.528C41.392 107.74 42.256 108.376 43.144 108.376C43.66 108.376 44.296 108.148 44.752 107.596V108.628C44.212 109.024 43.636 109.144 43.168 109.144C41.62 109.144 40.504 108.04 40.504 106.54C40.504 105.016 41.632 103.9 43.168 103.9C43.96 103.9 44.476 104.212 44.716 104.38ZM50.6857 104.02L47.0857 108.208H50.5417V109H45.3577L48.9577 104.812H46.0537V104.02H50.6857ZM55.2961 104.728V104.02H56.1601V109H55.2961V108.304C55.0081 108.676 54.4681 109.144 53.5921 109.144C52.3321 109.144 51.1681 108.256 51.1681 106.504C51.1681 104.788 52.3201 103.9 53.5921 103.9C54.5521 103.9 55.0681 104.428 55.2961 104.728ZM53.6881 104.668C52.8361 104.668 52.0561 105.292 52.0561 106.504C52.0561 107.572 52.6561 108.376 53.6881 108.376C54.7441 108.376 55.3441 107.5 55.3441 106.516C55.3441 105.232 54.4561 104.668 53.6881 104.668ZM60.5565 104.8L59.8485 105.172C59.7285 104.884 59.4765 104.668 59.1525 104.668C58.8405 104.668 58.5525 104.848 58.5525 105.232C58.5525 105.592 58.7925 105.7 59.3565 105.94C60.0765 106.24 60.4125 106.468 60.6045 106.708C60.8205 106.972 60.8685 107.236 60.8685 107.512C60.8685 108.556 60.1125 109.144 59.1525 109.144C58.9485 109.144 57.8325 109.12 57.4125 107.872L58.1565 107.56C58.2525 107.824 58.5405 108.376 59.1645 108.376C59.7285 108.376 59.9805 107.956 59.9805 107.584C59.9805 107.116 59.6445 106.96 59.1765 106.756C58.5765 106.492 58.1925 106.3 57.9645 106.024C57.7725 105.784 57.7365 105.544 57.7365 105.292C57.7365 104.416 58.3485 103.9 59.1885 103.9C59.4525 103.9 60.1605 103.948 60.5565 104.8Z" fill="#1A1A18"/>
<path d="M56.9131 39.1436L57.0293 39.4365L57.3438 39.458L66.4121 40.0811L59.4297 45.9893L59.1924 46.1904L59.2676 46.4912L61.4961 55.458L53.7676 50.5449L53.499 50.375L53.2314 50.5449L45.502 55.458L47.7314 46.4912L47.8066 46.1904L47.5693 45.9893L40.5869 40.0811L49.6621 39.458L49.9766 39.4365L50.0928 39.1436L53.5029 30.5469L56.9131 39.1436ZM66.541 40.0479H66.54L66.541 40.0459H66.542L66.541 40.0479Z" stroke="#009EE3"/>
<path d="M88.9131 39.1436L89.0293 39.4365L89.3438 39.458L98.4121 40.0811L91.4297 45.9893L91.1924 46.1904L91.2676 46.4912L93.4961 55.458L85.7676 50.5449L85.499 50.375L85.2314 50.5449L77.502 55.458L79.7314 46.4912L79.8066 46.1904L79.5693 45.9893L72.5869 40.0811L81.6621 39.458L81.9766 39.4365L82.0928 39.1436L85.5029 30.5469L88.9131 39.1436ZM98.541 40.0479H98.54L98.541 40.0459H98.542L98.541 40.0479Z" stroke="#009EE3"/>
<path d="M120.913 39.1436L121.029 39.4365L121.344 39.458L130.412 40.0811L123.43 45.9893L123.192 46.1904L123.268 46.4912L125.496 55.458L117.768 50.5449L117.499 50.375L117.231 50.5449L109.502 55.458L111.731 46.4912L111.807 46.1904L111.569 45.9893L104.587 40.0811L113.662 39.458L113.977 39.4365L114.093 39.1436L117.503 30.5469L120.913 39.1436ZM130.541 40.0479H130.54L130.541 40.0459H130.542L130.541 40.0479Z" stroke="#009EE3"/>
<path d="M152.913 39.1436L153.029 39.4365L153.344 39.458L162.412 40.0811L155.43 45.9893L155.192 46.1904L155.268 46.4912L157.496 55.458L149.768 50.5449L149.499 50.375L149.231 50.5449L141.502 55.458L143.731 46.4912L143.807 46.1904L143.569 45.9893L136.587 40.0811L145.662 39.458L145.977 39.4365L146.093 39.1436L149.503 30.5469L152.913 39.1436ZM162.541 40.0479H162.54L162.541 40.0459H162.542L162.541 40.0479Z" stroke="#009EE3"/>
<path d="M184.913 39.1436L185.029 39.4365L185.344 39.458L194.412 40.0811L187.43 45.9893L187.192 46.1904L187.268 46.4912L189.496 55.458L181.768 50.5449L181.499 50.375L181.231 50.5449L173.502 55.458L175.731 46.4912L175.807 46.1904L175.569 45.9893L168.587 40.0811L177.662 39.458L177.977 39.4365L178.093 39.1436L181.503 30.5469L184.913 39.1436ZM194.541 40.0479H194.54L194.541 40.0459H194.542L194.541 40.0479Z" stroke="#009EE3"/>
<path d="M41.72 148.66H43.2V160.6H46.88V162H41.72V148.66ZM52.408 162.24C49.888 162.24 48.008 160.4 48.008 157.88C48.008 155.36 49.868 153.5 52.408 153.5C54.948 153.5 56.808 155.36 56.808 157.88C56.808 160.4 54.928 162.24 52.408 162.24ZM52.408 154.78C50.888 154.78 49.488 155.86 49.488 157.88C49.488 159.92 50.928 160.96 52.408 160.96C53.908 160.96 55.328 159.9 55.328 157.88C55.328 155.84 53.928 154.78 52.408 154.78ZM59.0163 162V153.7H60.4563V154.6C60.5962 154.38 61.2163 153.5 62.3363 153.5C62.7763 153.5 63.2563 153.66 63.6163 153.84L62.9362 155.14C62.6163 154.92 62.3163 154.86 62.0963 154.86C61.5163 154.86 61.1563 155.1 60.9363 155.38C60.6963 155.7 60.4563 156.26 60.4563 157.62V162H59.0163ZM70.6059 159.22L71.8059 159.88C71.5659 160.34 71.2059 160.84 70.7859 161.22C70.0259 161.9 69.0859 162.24 68.0259 162.24C66.0259 162.24 63.9259 160.98 63.9259 157.9C63.9259 155.42 65.4459 153.5 67.9459 153.5C69.5659 153.5 70.5859 154.3 71.0859 155.02C71.6059 155.76 71.9059 157.04 71.8659 158.14H65.4059C65.4259 159.86 66.6059 160.96 68.0459 160.96C68.7259 160.96 69.2659 160.76 69.7459 160.36C70.1259 160.04 70.4259 159.62 70.6059 159.22ZM65.5059 156.94H70.3859C70.1459 155.64 69.1659 154.78 67.9459 154.78C66.7259 154.78 65.7259 155.7 65.5059 156.94ZM74.0748 162V153.7H75.5148V154.58C75.9748 153.9 76.6948 153.5 77.5748 153.5C79.0748 153.5 79.6748 154.56 79.8348 154.84C80.6348 153.58 81.7748 153.5 82.3348 153.5C84.7948 153.5 85.0348 155.56 85.0348 156.74V162H83.5948V156.96C83.5948 156.02 83.4748 154.78 82.1148 154.78C80.4548 154.78 80.2748 156.38 80.2748 157.38V162H78.8348V157.08C78.8348 156.5 78.8548 154.78 77.3348 154.78C75.6948 154.78 75.5148 156.48 75.5148 157.48V162H74.0748ZM92.4342 153.7H93.8742V162H92.4342V153.7ZM92.1342 150.56C92.1342 150 92.5942 149.54 93.1542 149.54C93.7142 149.54 94.1742 150 94.1742 150.56C94.1742 151.12 93.7142 151.58 93.1542 151.58C92.5942 151.58 92.1342 151.12 92.1342 150.56ZM98.0344 160.84V166.6H96.5944V153.7H98.0344V154.86C99.0144 153.64 100.274 153.5 100.874 153.5C103.474 153.5 104.914 155.66 104.914 157.9C104.914 160.18 103.454 162.24 100.934 162.24C99.5944 162.24 98.6544 161.64 98.0344 160.84ZM100.734 160.96C102.414 160.96 103.434 159.56 103.434 157.9C103.434 155.86 102.054 154.78 100.714 154.78C99.3744 154.78 97.9544 155.88 97.9544 157.88C97.9544 159.58 99.0344 160.96 100.734 160.96ZM111.722 155L110.542 155.62C110.342 155.14 109.922 154.78 109.382 154.78C108.862 154.78 108.382 155.08 108.382 155.72C108.382 156.32 108.782 156.5 109.722 156.9C110.922 157.4 111.482 157.78 111.802 158.18C112.162 158.62 112.242 159.06 112.242 159.52C112.242 161.26 110.982 162.24 109.382 162.24C109.042 162.24 107.182 162.2 106.482 160.12L107.722 159.6C107.882 160.04 108.362 160.96 109.402 160.96C110.342 160.96 110.762 160.26 110.762 159.64C110.762 158.86 110.202 158.6 109.422 158.26C108.422 157.82 107.782 157.5 107.402 157.04C107.082 156.64 107.022 156.24 107.022 155.82C107.022 154.36 108.042 153.5 109.442 153.5C109.882 153.5 111.062 153.58 111.722 155ZM115.593 153.7V158.54C115.593 159.12 115.593 159.8 115.993 160.32C116.213 160.6 116.653 160.96 117.453 160.96C118.253 160.96 118.693 160.6 118.913 160.32C119.313 159.8 119.313 159.12 119.313 158.54V153.7H120.753V158.7C120.753 159.72 120.653 160.48 119.993 161.2C119.253 161.98 118.273 162.24 117.453 162.24C116.633 162.24 115.653 161.98 114.913 161.2C114.253 160.48 114.153 159.72 114.153 158.7V153.7H115.593ZM123.469 162V153.7H124.909V154.58C125.369 153.9 126.089 153.5 126.969 153.5C128.469 153.5 129.069 154.56 129.229 154.84C130.029 153.58 131.169 153.5 131.729 153.5C134.189 153.5 134.429 155.56 134.429 156.74V162H132.989V156.96C132.989 156.02 132.869 154.78 131.509 154.78C129.849 154.78 129.669 156.38 129.669 157.38V162H128.229V157.08C128.229 156.5 128.249 154.78 126.729 154.78C125.089 154.78 124.909 156.48 124.909 157.48V162H123.469ZM148.189 154.88V147.42H149.629V162H148.189V160.84C147.709 161.46 146.809 162.24 145.349 162.24C143.249 162.24 141.309 160.76 141.309 157.84C141.309 154.98 143.229 153.5 145.349 153.5C146.949 153.5 147.809 154.38 148.189 154.88ZM145.509 154.78C144.089 154.78 142.789 155.82 142.789 157.84C142.789 159.62 143.789 160.96 145.509 160.96C147.269 160.96 148.269 159.5 148.269 157.86C148.269 155.72 146.789 154.78 145.509 154.78ZM156.236 162.24C153.716 162.24 151.836 160.4 151.836 157.88C151.836 155.36 153.696 153.5 156.236 153.5C158.776 153.5 160.636 155.36 160.636 157.88C160.636 160.4 158.756 162.24 156.236 162.24ZM156.236 154.78C154.716 154.78 153.316 155.86 153.316 157.88C153.316 159.92 154.756 160.96 156.236 160.96C157.736 160.96 159.156 159.9 159.156 157.88C159.156 155.84 157.756 154.78 156.236 154.78ZM162.844 147.42H164.284V162H162.844V147.42ZM170.885 162.24C168.365 162.24 166.485 160.4 166.485 157.88C166.485 155.36 168.345 153.5 170.885 153.5C173.425 153.5 175.285 155.36 175.285 157.88C175.285 160.4 173.405 162.24 170.885 162.24ZM170.885 154.78C169.365 154.78 167.965 155.86 167.965 157.88C167.965 159.92 169.405 160.96 170.885 160.96C172.385 160.96 173.805 159.9 173.805 157.88C173.805 155.84 172.405 154.78 170.885 154.78ZM177.493 162V153.7H178.933V154.6C179.073 154.38 179.693 153.5 180.813 153.5C181.253 153.5 181.733 153.66 182.093 153.84L181.413 155.14C181.093 154.92 180.793 154.86 180.573 154.86C179.993 154.86 179.633 155.1 179.413 155.38C179.173 155.7 178.933 156.26 178.933 157.62V162H177.493ZM192.679 155L191.499 155.62C191.299 155.14 190.879 154.78 190.339 154.78C189.819 154.78 189.339 155.08 189.339 155.72C189.339 156.32 189.739 156.5 190.679 156.9C191.879 157.4 192.439 157.78 192.759 158.18C193.119 158.62 193.199 159.06 193.199 159.52C193.199 161.26 191.939 162.24 190.339 162.24C189.999 162.24 188.139 162.2 187.439 160.12L188.679 159.6C188.839 160.04 189.319 160.96 190.359 160.96C191.299 160.96 191.719 160.26 191.719 159.64C191.719 158.86 191.159 158.6 190.379 158.26C189.379 157.82 188.739 157.5 188.359 157.04C188.039 156.64 187.979 156.24 187.979 155.82C187.979 154.36 188.999 153.5 190.399 153.5C190.839 153.5 192.019 153.58 192.679 155ZM195.11 153.7H196.55V162H195.11V153.7ZM194.81 150.56C194.81 150 195.27 149.54 195.83 149.54C196.39 149.54 196.85 150 196.85 150.56C196.85 151.12 196.39 151.58 195.83 151.58C195.27 151.58 194.81 151.12 194.81 150.56ZM202.19 155.02H200.75V162H199.31V155.02H198.43V153.7H199.31V150.7H200.75V153.7H202.19V155.02ZM214.575 154.88V153.7H216.015V162H214.575V160.84C214.095 161.46 213.195 162.24 211.735 162.24C209.635 162.24 207.695 160.76 207.695 157.84C207.695 154.98 209.615 153.5 211.735 153.5C213.335 153.5 214.195 154.38 214.575 154.88ZM211.895 154.78C210.475 154.78 209.175 155.82 209.175 157.84C209.175 159.62 210.175 160.96 211.895 160.96C213.655 160.96 214.655 159.5 214.655 157.86C214.655 155.72 213.175 154.78 211.895 154.78ZM218.743 162V153.7H220.183V154.58C220.643 153.9 221.363 153.5 222.243 153.5C223.743 153.5 224.343 154.56 224.503 154.84C225.303 153.58 226.443 153.5 227.003 153.5C229.463 153.5 229.703 155.56 229.703 156.74V162H228.263V156.96C228.263 156.02 228.143 154.78 226.783 154.78C225.123 154.78 224.943 156.38 224.943 157.38V162H223.503V157.08C223.503 156.5 223.523 154.78 222.003 154.78C220.363 154.78 220.183 156.48 220.183 157.48V162H218.743ZM238.594 159.22L239.794 159.88C239.554 160.34 239.194 160.84 238.774 161.22C238.014 161.9 237.074 162.24 236.014 162.24C234.014 162.24 231.914 160.98 231.914 157.9C231.914 155.42 233.434 153.5 235.934 153.5C237.554 153.5 238.574 154.3 239.074 155.02C239.594 155.76 239.894 157.04 239.854 158.14H233.394C233.414 159.86 234.594 160.96 236.034 160.96C236.714 160.96 237.254 160.76 237.734 160.36C238.114 160.04 238.414 159.62 238.594 159.22ZM233.494 156.94H238.374C238.134 155.64 237.154 154.78 235.934 154.78C234.714 154.78 233.714 155.7 233.494 156.94ZM244.983 155.02H243.543V162H242.103V155.02H241.223V153.7H242.103V150.7H243.543V153.7H244.983V155.02ZM245.18 164.66L246.82 160.04L248.14 160.52L246.12 165.04L245.18 164.66ZM262.059 154.3V156.02C261.299 155.06 260.199 154.78 259.459 154.78C257.919 154.78 256.519 155.86 256.519 157.88C256.519 159.9 257.959 160.96 259.439 160.96C260.299 160.96 261.359 160.58 262.119 159.66V161.38C261.219 162.04 260.259 162.24 259.479 162.24C256.899 162.24 255.039 160.4 255.039 157.9C255.039 155.36 256.919 153.5 259.479 153.5C260.799 153.5 261.659 154.02 262.059 154.3ZM268.209 162.24C265.689 162.24 263.809 160.4 263.809 157.88C263.809 155.36 265.669 153.5 268.209 153.5C270.749 153.5 272.609 155.36 272.609 157.88C272.609 160.4 270.729 162.24 268.209 162.24ZM268.209 154.78C266.689 154.78 265.289 155.86 265.289 157.88C265.289 159.92 266.729 160.96 268.209 160.96C269.709 160.96 271.129 159.9 271.129 157.88C271.129 155.84 269.729 154.78 268.209 154.78ZM274.817 162V153.7H276.257V154.66C276.517 154.32 277.257 153.5 278.637 153.5C279.617 153.5 280.517 153.9 281.017 154.64C281.437 155.26 281.497 155.94 281.497 156.86V162H280.057V156.9C280.057 156.4 280.017 155.82 279.677 155.38C279.397 155.02 278.957 154.78 278.317 154.78C277.817 154.78 277.277 154.92 276.857 155.42C276.297 156.08 276.257 157.06 276.257 157.66V162H274.817ZM288.812 155L287.632 155.62C287.432 155.14 287.012 154.78 286.472 154.78C285.952 154.78 285.472 155.08 285.472 155.72C285.472 156.32 285.872 156.5 286.812 156.9C288.012 157.4 288.572 157.78 288.892 158.18C289.252 158.62 289.332 159.06 289.332 159.52C289.332 161.26 288.072 162.24 286.472 162.24C286.132 162.24 284.272 162.2 283.572 160.12L284.812 159.6C284.972 160.04 285.452 160.96 286.492 160.96C287.432 160.96 287.852 160.26 287.852 159.64C287.852 158.86 287.292 158.6 286.512 158.26C285.512 157.82 284.872 157.5 284.492 157.04C284.172 156.64 284.112 156.24 284.112 155.82C284.112 154.36 285.132 153.5 286.532 153.5C286.972 153.5 288.152 153.58 288.812 155ZM297.403 159.22L298.603 159.88C298.363 160.34 298.003 160.84 297.583 161.22C296.823 161.9 295.883 162.24 294.823 162.24C292.823 162.24 290.723 160.98 290.723 157.9C290.723 155.42 292.243 153.5 294.743 153.5C296.363 153.5 297.383 154.3 297.883 155.02C298.403 155.76 298.703 157.04 298.663 158.14H292.203C292.223 159.86 293.403 160.96 294.843 160.96C295.523 160.96 296.063 160.76 296.543 160.36C296.923 160.04 297.223 159.62 297.403 159.22ZM292.303 156.94H297.183C296.943 155.64 295.963 154.78 294.743 154.78C293.523 154.78 292.523 155.7 292.303 156.94ZM307.372 154.3V156.02C306.612 155.06 305.512 154.78 304.772 154.78C303.232 154.78 301.832 155.86 301.832 157.88C301.832 159.9 303.272 160.96 304.752 160.96C305.612 160.96 306.672 160.58 307.432 159.66V161.38C306.532 162.04 305.572 162.24 304.792 162.24C302.212 162.24 300.352 160.4 300.352 157.9C300.352 155.36 302.232 153.5 304.792 153.5C306.112 153.5 306.972 154.02 307.372 154.3ZM312.561 155.02H311.121V162H309.681V155.02H308.801V153.7H309.681V150.7H311.121V153.7H312.561V155.02ZM320.079 159.22L321.279 159.88C321.039 160.34 320.679 160.84 320.259 161.22C319.499 161.9 318.559 162.24 317.499 162.24C315.499 162.24 313.399 160.98 313.399 157.9C313.399 155.42 314.919 153.5 317.419 153.5C319.039 153.5 320.059 154.3 320.559 155.02C321.079 155.76 321.379 157.04 321.339 158.14H314.879C314.899 159.86 316.079 160.96 317.519 160.96C318.199 160.96 318.739 160.76 319.219 160.36C319.599 160.04 319.899 159.62 320.079 159.22ZM314.979 156.94H319.859C319.619 155.64 318.639 154.78 317.419 154.78C316.199 154.78 315.199 155.7 314.979 156.94ZM326.468 155.02H325.028V162H323.588V155.02H322.708V153.7H323.588V150.7H325.028V153.7H326.468V155.02ZM329.265 153.7V158.54C329.265 159.12 329.265 159.8 329.665 160.32C329.885 160.6 330.325 160.96 331.125 160.96C331.925 160.96 332.365 160.6 332.585 160.32C332.985 159.8 332.985 159.12 332.985 158.54V153.7H334.425V158.7C334.425 159.72 334.325 160.48 333.665 161.2C332.925 161.98 331.945 162.24 331.125 162.24C330.305 162.24 329.325 161.98 328.585 161.2C327.925 160.48 327.825 159.72 327.825 158.7V153.7H329.265ZM337.141 162V153.7H338.581V154.6C338.721 154.38 339.341 153.5 340.461 153.5C340.901 153.5 341.381 153.66 341.741 153.84L341.061 155.14C340.741 154.92 340.441 154.86 340.221 154.86C339.641 154.86 339.281 155.1 339.061 155.38C338.821 155.7 338.581 156.26 338.581 157.62V162H337.141ZM47.72 180.88V179.7H49.16V188H47.72V186.84C47.24 187.46 46.34 188.24 44.88 188.24C42.78 188.24 40.84 186.76 40.84 183.84C40.84 180.98 42.76 179.5 44.88 179.5C46.48 179.5 47.34 180.38 47.72 180.88ZM45.04 180.78C43.62 180.78 42.32 181.82 42.32 183.84C42.32 185.62 43.32 186.96 45.04 186.96C46.8 186.96 47.8 185.5 47.8 183.86C47.8 181.72 46.32 180.78 45.04 180.78ZM58.2473 180.88V173.42H59.6873V188H58.2473V186.84C57.7673 187.46 56.8673 188.24 55.4073 188.24C53.3073 188.24 51.3673 186.76 51.3673 183.84C51.3673 180.98 53.2873 179.5 55.4073 179.5C57.0073 179.5 57.8673 180.38 58.2473 180.88ZM55.5673 180.78C54.1473 180.78 52.8473 181.82 52.8473 183.84C52.8473 185.62 53.8473 186.96 55.5673 186.96C57.3273 186.96 58.3273 185.5 58.3273 183.86C58.3273 181.72 56.8473 180.78 55.5673 180.78ZM62.2194 179.7H63.6594V188H62.2194V179.7ZM61.9194 176.56C61.9194 176 62.3794 175.54 62.9394 175.54C63.4994 175.54 63.9594 176 63.9594 176.56C63.9594 177.12 63.4994 177.58 62.9394 177.58C62.3794 177.58 61.9194 177.12 61.9194 176.56ZM67.8195 186.84V192.6H66.3795V179.7H67.8195V180.86C68.7995 179.64 70.0595 179.5 70.6595 179.5C73.2595 179.5 74.6995 181.66 74.6995 183.9C74.6995 186.18 73.2395 188.24 70.7195 188.24C69.3795 188.24 68.4395 187.64 67.8195 186.84ZM70.5195 186.96C72.1995 186.96 73.2195 185.56 73.2195 183.9C73.2195 181.86 71.8395 180.78 70.4995 180.78C69.1595 180.78 67.7395 181.88 67.7395 183.88C67.7395 185.58 68.8195 186.96 70.5195 186.96ZM76.9069 179.7H78.3469V188H76.9069V179.7ZM76.6069 176.56C76.6069 176 77.0669 175.54 77.6269 175.54C78.1869 175.54 78.6469 176 78.6469 176.56C78.6469 177.12 78.1869 177.58 77.6269 177.58C77.0669 177.58 76.6069 177.12 76.6069 176.56ZM85.667 181L84.487 181.62C84.287 181.14 83.867 180.78 83.327 180.78C82.807 180.78 82.327 181.08 82.327 181.72C82.327 182.32 82.727 182.5 83.667 182.9C84.867 183.4 85.427 183.78 85.747 184.18C86.107 184.62 86.187 185.06 86.187 185.52C86.187 187.26 84.927 188.24 83.327 188.24C82.987 188.24 81.127 188.2 80.427 186.12L81.667 185.6C81.827 186.04 82.307 186.96 83.347 186.96C84.287 186.96 84.707 186.26 84.707 185.64C84.707 184.86 84.147 184.6 83.367 184.26C82.367 183.82 81.727 183.5 81.347 183.04C81.027 182.64 80.967 182.24 80.967 181.82C80.967 180.36 81.987 179.5 83.387 179.5C83.827 179.5 85.007 179.58 85.667 181ZM94.5983 180.3V182.02C93.8383 181.06 92.7383 180.78 91.9983 180.78C90.4583 180.78 89.0583 181.86 89.0583 183.88C89.0583 185.9 90.4983 186.96 91.9783 186.96C92.8383 186.96 93.8983 186.58 94.6583 185.66V187.38C93.7583 188.04 92.7983 188.24 92.0183 188.24C89.4383 188.24 87.5783 186.4 87.5783 183.9C87.5783 181.36 89.4583 179.5 92.0183 179.5C93.3383 179.5 94.1983 180.02 94.5983 180.3ZM96.8678 179.7H98.3078V188H96.8678V179.7ZM96.5678 176.56C96.5678 176 97.0278 175.54 97.5878 175.54C98.1478 175.54 98.6078 176 98.6078 176.56C98.6078 177.12 98.1478 177.58 97.5878 177.58C97.0278 177.58 96.5678 177.12 96.5678 176.56ZM111.856 185.22L113.056 185.88C112.816 186.34 112.456 186.84 112.036 187.22C111.276 187.9 110.336 188.24 109.276 188.24C107.276 188.24 105.176 186.98 105.176 183.9C105.176 181.42 106.696 179.5 109.196 179.5C110.816 179.5 111.836 180.3 112.336 181.02C112.856 181.76 113.156 183.04 113.116 184.14H106.656C106.676 185.86 107.856 186.96 109.296 186.96C109.976 186.96 110.516 186.76 110.996 186.36C111.376 186.04 111.676 185.62 111.856 185.22ZM106.756 182.94H111.636C111.396 181.64 110.416 180.78 109.196 180.78C107.976 180.78 106.976 181.7 106.756 182.94ZM115.325 173.42H116.765V188H115.325V173.42ZM119.485 179.7H120.925V188H119.485V179.7ZM119.185 176.56C119.185 176 119.645 175.54 120.205 175.54C120.765 175.54 121.225 176 121.225 176.56C121.225 177.12 120.765 177.58 120.205 177.58C119.645 177.58 119.185 177.12 119.185 176.56ZM126.565 181.02H125.125V188H123.685V181.02H122.805V179.7H123.685V176.7H125.125V179.7H126.565V181.02ZM126.763 190.66L128.403 186.04L129.723 186.52L127.703 191.04L126.763 190.66ZM141.741 181L140.561 181.62C140.361 181.14 139.941 180.78 139.401 180.78C138.881 180.78 138.401 181.08 138.401 181.72C138.401 182.32 138.801 182.5 139.741 182.9C140.941 183.4 141.501 183.78 141.821 184.18C142.181 184.62 142.261 185.06 142.261 185.52C142.261 187.26 141.001 188.24 139.401 188.24C139.061 188.24 137.201 188.2 136.501 186.12L137.741 185.6C137.901 186.04 138.381 186.96 139.421 186.96C140.361 186.96 140.781 186.26 140.781 185.64C140.781 184.86 140.221 184.6 139.441 184.26C138.441 183.82 137.801 183.5 137.421 183.04C137.101 182.64 137.041 182.24 137.041 181.82C137.041 180.36 138.061 179.5 139.461 179.5C139.901 179.5 141.081 179.58 141.741 181ZM150.333 185.22L151.533 185.88C151.293 186.34 150.933 186.84 150.513 187.22C149.753 187.9 148.813 188.24 147.753 188.24C145.752 188.24 143.653 186.98 143.653 183.9C143.653 181.42 145.173 179.5 147.673 179.5C149.293 179.5 150.313 180.3 150.813 181.02C151.333 181.76 151.633 183.04 151.593 184.14H145.133C145.153 185.86 146.333 186.96 147.773 186.96C148.453 186.96 148.993 186.76 149.473 186.36C149.853 186.04 150.153 185.62 150.333 185.22ZM145.233 182.94H150.113C149.873 181.64 148.893 180.78 147.673 180.78C146.453 180.78 145.452 181.7 145.233 182.94ZM160.161 180.88V173.42H161.601V188H160.161V186.84C159.681 187.46 158.781 188.24 157.321 188.24C155.221 188.24 153.281 186.76 153.281 183.84C153.281 180.98 155.201 179.5 157.321 179.5C158.921 179.5 159.781 180.38 160.161 180.88ZM157.481 180.78C156.061 180.78 154.761 181.82 154.761 183.84C154.761 185.62 155.761 186.96 157.481 186.96C159.241 186.96 160.241 185.5 160.241 183.86C160.241 181.72 158.761 180.78 157.481 180.78ZM175.157 185.22L176.357 185.88C176.117 186.34 175.757 186.84 175.337 187.22C174.577 187.9 173.637 188.24 172.577 188.24C170.577 188.24 168.477 186.98 168.477 183.9C168.477 181.42 169.997 179.5 172.497 179.5C174.117 179.5 175.137 180.3 175.637 181.02C176.157 181.76 176.457 183.04 176.417 184.14H169.957C169.977 185.86 171.157 186.96 172.597 186.96C173.277 186.96 173.817 186.76 174.297 186.36C174.677 186.04 174.977 185.62 175.157 185.22ZM170.057 182.94H174.937C174.697 181.64 173.717 180.78 172.497 180.78C171.277 180.78 170.277 181.7 170.057 182.94ZM178.626 179.7H180.066V188H178.626V179.7ZM178.326 176.56C178.326 176 178.786 175.54 179.346 175.54C179.906 175.54 180.366 176 180.366 176.56C180.366 177.12 179.906 177.58 179.346 177.58C178.786 177.58 178.326 177.12 178.326 176.56ZM184.226 179.7V184.54C184.226 185.12 184.226 185.8 184.626 186.32C184.846 186.6 185.286 186.96 186.086 186.96C186.886 186.96 187.326 186.6 187.546 186.32C187.946 185.8 187.946 185.12 187.946 184.54V179.7H189.386V184.7C189.386 185.72 189.286 186.48 188.626 187.2C187.886 187.98 186.906 188.24 186.086 188.24C185.266 188.24 184.286 187.98 183.546 187.2C182.886 186.48 182.786 185.72 182.786 184.7V179.7H184.226ZM196.702 181L195.522 181.62C195.322 181.14 194.902 180.78 194.362 180.78C193.842 180.78 193.362 181.08 193.362 181.72C193.362 182.32 193.762 182.5 194.702 182.9C195.902 183.4 196.462 183.78 196.782 184.18C197.142 184.62 197.222 185.06 197.222 185.52C197.222 187.26 195.962 188.24 194.362 188.24C194.022 188.24 192.162 188.2 191.462 186.12L192.702 185.6C192.862 186.04 193.342 186.96 194.382 186.96C195.322 186.96 195.742 186.26 195.742 185.64C195.742 184.86 195.182 184.6 194.402 184.26C193.402 183.82 192.762 183.5 192.382 183.04C192.062 182.64 192.002 182.24 192.002 181.82C192.002 180.36 193.022 179.5 194.422 179.5C194.862 179.5 196.042 179.58 196.702 181ZM199.133 188V179.7H200.573V180.58C201.033 179.9 201.753 179.5 202.633 179.5C204.133 179.5 204.733 180.56 204.893 180.84C205.693 179.58 206.833 179.5 207.393 179.5C209.853 179.5 210.093 181.56 210.093 182.74V188H208.653V182.96C208.653 182.02 208.533 180.78 207.173 180.78C205.513 180.78 205.333 182.38 205.333 183.38V188H203.893V183.08C203.893 182.5 203.913 180.78 202.393 180.78C200.753 180.78 200.573 182.48 200.573 183.48V188H199.133ZM216.705 188.24C214.185 188.24 212.305 186.4 212.305 183.88C212.305 181.36 214.165 179.5 216.705 179.5C219.245 179.5 221.105 181.36 221.105 183.88C221.105 186.4 219.225 188.24 216.705 188.24ZM216.705 180.78C215.185 180.78 213.785 181.86 213.785 183.88C213.785 185.92 215.225 186.96 216.705 186.96C218.205 186.96 219.625 185.9 219.625 183.88C219.625 181.84 218.225 180.78 216.705 180.78ZM229.673 180.88V173.42H231.113V188H229.673V186.84C229.193 187.46 228.293 188.24 226.833 188.24C224.733 188.24 222.793 186.76 222.793 183.84C222.793 180.98 224.713 179.5 226.833 179.5C228.433 179.5 229.293 180.38 229.673 180.88ZM226.993 180.78C225.573 180.78 224.273 181.82 224.273 183.84C224.273 185.62 225.273 186.96 226.993 186.96C228.753 186.96 229.753 185.5 229.753 183.86C229.753 181.72 228.273 180.78 226.993 180.78ZM241.428 181.02H239.988V188H238.548V181.02H237.668V179.7H238.548V176.7H239.988V179.7H241.428V181.02ZM248.946 185.22L250.146 185.88C249.906 186.34 249.546 186.84 249.126 187.22C248.366 187.9 247.426 188.24 246.366 188.24C244.366 188.24 242.266 186.98 242.266 183.9C242.266 181.42 243.786 179.5 246.286 179.5C247.906 179.5 248.926 180.3 249.426 181.02C249.946 181.76 250.246 183.04 250.206 184.14H243.746C243.766 185.86 244.946 186.96 246.386 186.96C247.066 186.96 247.606 186.76 248.086 186.36C248.466 186.04 248.766 185.62 248.946 185.22ZM243.846 182.94H248.726C248.486 181.64 247.506 180.78 246.286 180.78C245.066 180.78 244.066 181.7 243.846 182.94ZM252.415 188V179.7H253.855V180.58C254.315 179.9 255.035 179.5 255.915 179.5C257.415 179.5 258.015 180.56 258.175 180.84C258.975 179.58 260.115 179.5 260.675 179.5C263.135 179.5 263.375 181.56 263.375 182.74V188H261.935V182.96C261.935 182.02 261.815 180.78 260.455 180.78C258.795 180.78 258.615 182.38 258.615 183.38V188H257.175V183.08C257.175 182.5 257.195 180.78 255.675 180.78C254.035 180.78 253.855 182.48 253.855 183.48V188H252.415ZM267.546 186.84V192.6H266.106V179.7H267.546V180.86C268.526 179.64 269.786 179.5 270.386 179.5C272.986 179.5 274.426 181.66 274.426 183.9C274.426 186.18 272.966 188.24 270.446 188.24C269.106 188.24 268.166 187.64 267.546 186.84ZM270.246 186.96C271.926 186.96 272.946 185.56 272.946 183.9C272.946 181.86 271.566 180.78 270.226 180.78C268.886 180.78 267.466 181.88 267.466 183.88C267.466 185.58 268.546 186.96 270.246 186.96ZM280.513 188.24C277.993 188.24 276.113 186.4 276.113 183.88C276.113 181.36 277.973 179.5 280.513 179.5C283.053 179.5 284.913 181.36 284.913 183.88C284.913 186.4 283.033 188.24 280.513 188.24ZM280.513 180.78C278.993 180.78 277.593 181.86 277.593 183.88C277.593 185.92 279.033 186.96 280.513 186.96C282.013 186.96 283.433 185.9 283.433 183.88C283.433 181.84 282.033 180.78 280.513 180.78ZM287.122 188V179.7H288.562V180.6C288.702 180.38 289.322 179.5 290.442 179.5C290.882 179.5 291.362 179.66 291.722 179.84L291.042 181.14C290.722 180.92 290.422 180.86 290.202 180.86C289.622 180.86 289.262 181.1 289.042 181.38C288.802 181.7 288.562 182.26 288.562 183.62V188H287.122ZM297.708 179.7H299.148V188H297.708V179.7ZM297.408 176.56C297.408 176 297.868 175.54 298.428 175.54C298.988 175.54 299.448 176 299.448 176.56C299.448 177.12 298.988 177.58 298.428 177.58C297.868 177.58 297.408 177.12 297.408 176.56ZM301.868 188V179.7H303.308V180.66C303.568 180.32 304.308 179.5 305.688 179.5C306.668 179.5 307.568 179.9 308.068 180.64C308.488 181.26 308.548 181.94 308.548 182.86V188H307.108V182.9C307.108 182.4 307.068 181.82 306.728 181.38C306.448 181.02 306.008 180.78 305.368 180.78C304.868 180.78 304.328 180.92 303.908 181.42C303.348 182.08 303.308 183.06 303.308 183.66V188H301.868ZM317.762 180.3V182.02C317.002 181.06 315.902 180.78 315.162 180.78C313.622 180.78 312.222 181.86 312.222 183.88C312.222 185.9 313.662 186.96 315.142 186.96C316.002 186.96 317.062 186.58 317.822 185.66V187.38C316.922 188.04 315.962 188.24 315.182 188.24C312.602 188.24 310.742 186.4 310.742 183.9C310.742 181.36 312.622 179.5 315.182 179.5C316.502 179.5 317.362 180.02 317.762 180.3ZM320.032 179.7H321.472V188H320.032V179.7ZM319.732 176.56C319.732 176 320.192 175.54 320.752 175.54C321.312 175.54 321.772 176 321.772 176.56C321.772 177.12 321.312 177.58 320.752 177.58C320.192 177.58 319.732 177.12 319.732 176.56ZM330.552 180.88V173.42H331.992V188H330.552V186.84C330.072 187.46 329.172 188.24 327.712 188.24C325.612 188.24 323.672 186.76 323.672 183.84C323.672 180.98 325.592 179.5 327.712 179.5C329.312 179.5 330.172 180.38 330.552 180.88ZM327.872 180.78C326.452 180.78 325.152 181.82 325.152 183.84C325.152 185.62 326.152 186.96 327.872 186.96C329.632 186.96 330.632 185.5 330.632 183.86C330.632 181.72 329.152 180.78 327.872 180.78ZM336.159 179.7V184.54C336.159 185.12 336.159 185.8 336.559 186.32C336.779 186.6 337.219 186.96 338.019 186.96C338.819 186.96 339.259 186.6 339.479 186.32C339.879 185.8 339.879 185.12 339.879 184.54V179.7H341.319V184.7C341.319 185.72 341.219 186.48 340.559 187.2C339.819 187.98 338.839 188.24 338.019 188.24C337.199 188.24 336.219 187.98 335.479 187.2C334.819 186.48 334.719 185.72 334.719 184.7V179.7H336.159ZM344.036 188V179.7H345.476V180.66C345.736 180.32 346.476 179.5 347.856 179.5C348.836 179.5 349.736 179.9 350.236 180.64C350.656 181.26 350.716 181.94 350.716 182.86V188H349.276V182.9C349.276 182.4 349.236 181.82 348.896 181.38C348.616 181.02 348.176 180.78 347.536 180.78C347.036 180.78 346.496 180.92 346.076 181.42C345.516 182.08 345.476 183.06 345.476 183.66V188H344.036ZM356.35 181.02H354.91V188H353.47V181.02H352.59V179.7H353.47V176.7H354.91V179.7H356.35V181.02ZM357.628 187.2C357.628 186.66 358.088 186.2 358.628 186.2C359.168 186.2 359.628 186.66 359.628 187.2C359.628 187.74 359.168 188.2 358.628 188.2C358.088 188.2 357.628 187.74 357.628 187.2Z" fill="#1A1A18"/>
</svg>
