<svg width="23" height="26" viewBox="0 0 23 26" fill="none" xmlns="http://www.w3.org/2000/svg">
<path d="M21.6766 6.091C20.3589 5.81333 19.1657 5.12829 18.2709 4.13574C17.3762 3.14319 16.8266 1.89503 16.7023 0.573225V0H12.1569V17.7713C12.1541 18.558 11.9011 19.3241 11.4335 19.962C10.9659 20.5998 10.3072 21.0772 9.54999 21.3272C8.79275 21.5772 7.97504 21.5872 7.21174 21.3558C6.44845 21.1243 5.77796 20.6631 5.29448 20.0369C4.80349 19.4002 4.53113 18.626 4.51689 17.8265C4.50265 17.0271 4.74727 16.2439 5.21527 15.5907C5.68328 14.9374 6.35034 14.448 7.11972 14.1934C7.88911 13.9388 8.72082 13.9322 9.49425 14.1746V9.62524C7.76955 9.39036 6.01346 9.69243 4.47161 10.4892C2.92976 11.286 1.67927 12.5376 0.895053 14.069C0.110832 15.6003 -0.167896 17.3349 0.0978563 19.03C0.363608 20.7252 1.16055 22.2961 2.37721 23.523C3.53746 24.6925 5.02516 25.4949 6.65041 25.8278C8.27565 26.1606 9.9647 26.0088 11.502 25.3917C13.0392 24.7746 14.355 23.7202 15.2812 22.3632C16.2075 21.0061 16.7022 19.4079 16.7023 17.7726V8.69196C18.5393 9.98573 20.7419 10.6795 23 10.6755V6.22618C22.5553 6.22673 22.1117 6.18142 21.6766 6.091Z" fill="#0074A7"/>
</svg>
