<svg width="26" height="20" viewBox="0 0 26 20" fill="none" xmlns="http://www.w3.org/2000/svg">
<path d="M14.25 1C14.4708 1.00001 14.7697 1.02749 15.001 1.23535C15.2432 1.45332 15.2997 1.76471 15.2998 2.0498V6.83594H12.8018C12.3018 6.83594 12.0207 6.98015 11.8496 7.15039C11.6786 7.32067 11.4503 7.73253 11.4502 8.15039V10.2998H9.87109L5.27441 12.9404C5.13523 13.0204 4.96415 13.0198 4.8252 12.9395C4.68622 12.859 4.60059 12.7104 4.60059 12.5498V10.4502C4.60055 10.4075 4.59194 10.3819 4.58594 10.3682C4.57997 10.3546 4.5725 10.3449 4.56348 10.3369C4.54346 10.3192 4.5042 10.2998 4.4502 10.2998H3.0498C2.72789 10.2997 2.45317 10.1751 2.26367 9.96191C2.08151 9.75694 2 9.49585 2 9.25V2.0498C2.00014 1.80418 2.08172 1.54365 2.26367 1.33887C2.45316 1.1258 2.72796 1.0001 3.0498 1H14.25ZM5.93164 7.7998C5.85515 7.97402 5.92257 8.18322 6.08301 8.2666C6.24346 8.34967 6.43568 8.27537 6.5127 8.10156L5.93164 7.7998ZM8.25 3.00098C8.15693 3.00101 8.07 3.04423 8.00977 3.11719L7.95898 3.19922L5.93164 7.7998L6.22266 7.9502L6.5127 8.10156L7.30664 6.2998H9.19141L9.98633 8.10156C10.0632 8.27533 10.2556 8.34929 10.416 8.2666C10.5766 8.18329 10.6448 7.97407 10.5684 7.7998L8.54102 3.19922C8.48738 3.07788 8.37403 3.00105 8.25 3.00098ZM8.88379 5.60059H7.61523L8.24902 4.16211L8.88379 5.60059Z" fill="#303036"/>
<path d="M23.9502 7.09961C24.2722 7.09961 24.5468 7.22539 24.7363 7.43848C24.9184 7.64329 24.9999 7.90372 25 8.14941V15.3496C25 15.5955 24.9185 15.8566 24.7363 16.0615C24.5468 16.2746 24.2721 16.3994 23.9502 16.3994H22.5508C22.4968 16.3994 22.4566 16.4188 22.4365 16.4365C22.4276 16.4445 22.42 16.4544 22.4141 16.4678C22.4081 16.4815 22.4004 16.5072 22.4004 16.5498V18.6494C22.4004 18.81 22.3147 18.9586 22.1758 19.0391C22.0369 19.1195 21.8658 19.1199 21.7266 19.04L17.1299 16.3994H12.75C12.5043 16.3993 12.2439 16.3178 12.0391 16.1357C11.8527 15.97 11.733 15.7394 11.7061 15.4688L11.7002 15.3496V8.14941C11.7003 7.90378 11.7819 7.64326 11.9639 7.43848C12.1533 7.22537 12.4281 7.09973 12.75 7.09961H23.9502ZM18.3506 9C18.1574 9 18.0012 9.1565 18.001 9.34961V10H16.1504C15.9572 10 15.801 10.1565 15.8008 10.3496C15.8008 10.5429 15.9571 10.6992 16.1504 10.6992H19.4541C19.4245 10.8501 19.3817 11.0319 19.3262 11.2295C19.217 11.6176 19.0734 12.0186 18.9375 12.291C18.7993 12.5317 18.6597 12.7432 18.5234 12.9316C18.2307 12.5437 17.9502 12.3302 17.7656 11.749L17.6924 11.4736L17.6699 11.4062C17.6034 11.2579 17.4393 11.1714 17.2744 11.208C17.1094 11.2448 16.9982 11.3929 17.001 11.5557L17.0088 11.626L17.0537 11.8057C17.2895 12.6699 17.7243 13.031 17.9707 13.3594C18.0003 13.3989 18.035 13.4393 18.0732 13.4805C17.8119 13.7598 17.5608 13.9679 17.3242 14.1396L16.8564 14.458C16.6957 14.5652 16.6528 14.7826 16.7598 14.9434C16.8536 15.0842 17.0318 15.1357 17.1826 15.0742L17.2451 15.041C17.6257 14.7873 18.0984 14.4839 18.6035 13.9395C18.7321 14.0373 18.8709 14.139 19.0156 14.2383C19.3515 14.4686 19.724 14.7005 20.0654 14.8896L20.3936 15.0625L20.46 15.0879C20.6173 15.1302 20.7876 15.0576 20.8633 14.9062C20.9388 14.7549 20.8948 14.575 20.7666 14.4746L20.707 14.4365L20.4033 14.2764C20.085 14.0999 19.7316 13.8809 19.4111 13.6611C19.2823 13.5728 19.1609 13.4844 19.0498 13.4004C19.2171 13.1744 19.3865 12.9173 19.5547 12.623C19.5577 12.6177 19.5607 12.6119 19.5635 12.6064L19.6846 12.3398C19.8031 12.0565 19.9134 11.7268 20 11.4189C20.0698 11.1708 20.1281 10.9165 20.1641 10.6992H20.751L20.8213 10.6924C20.9806 10.6596 21.1006 10.5186 21.1006 10.3496C21.1004 10.1808 20.9805 10.0396 20.8213 10.0068L20.751 10H18.7002V9.34961C18.7 9.15653 18.5437 9.00005 18.3506 9Z" fill="#303036"/>
</svg>
