<svg width="26" height="20" viewBox="0 0 26 20" fill="none" xmlns="http://www.w3.org/2000/svg">
<path fill-rule="evenodd" clip-rule="evenodd" d="M14.4003 2.0498C14.4002 1.98037 14.3931 1.93635 14.3876 1.91016C14.36 1.90507 14.3163 1.90039 14.2499 1.90039H3.04968C3.00704 1.90044 2.98135 1.90807 2.96765 1.91406C2.95412 1.92002 2.94442 1.92752 2.9364 1.93652C2.91866 1.95649 2.90036 1.99589 2.90027 2.0498V9.25C2.90027 9.30389 2.91868 9.34319 2.9364 9.36328C2.94446 9.37235 2.95401 9.38073 2.96765 9.38672C2.98135 9.39271 3.00704 9.40034 3.04968 9.40039H4.45007C4.69595 9.40039 4.957 9.48185 5.16199 9.66406C5.37505 9.85362 5.49988 10.1283 5.49988 10.4502V11.7725L9.52625 9.45996L9.57898 9.43457C9.63308 9.4123 9.69099 9.40042 9.74988 9.40039H10.9965C10.9965 9.40039 11.4501 9.40039 11.4501 9.8501C11.4501 10.2998 10.9965 10.2998 10.9965 10.2998H9.87097L5.27429 12.9404C5.13511 13.0204 4.96403 13.0198 4.82507 12.9395C4.68608 12.859 4.60046 12.7104 4.60046 12.5498V10.4502C4.60046 10.4073 4.59183 10.3819 4.58582 10.3682C4.57984 10.3545 4.57241 10.345 4.56335 10.3369C4.54334 10.3191 4.50419 10.2998 4.45007 10.2998H3.04968C2.72777 10.2997 2.45305 10.1751 2.26355 9.96191C2.08134 9.75693 1.99988 9.49588 1.99988 9.25V2.0498C1.99996 1.8041 2.08154 1.54372 2.26355 1.33887C2.45305 1.12569 2.72774 1.0001 3.04968 1H14.2499C14.4707 1 14.7695 1.02741 15.0009 1.23535C15.2432 1.45339 15.2996 1.76464 15.2997 2.0498V6.4502C15.2997 6.4502 15.2997 6.85645 14.85 6.85645C14.4003 6.85645 14.4003 6.4502 14.4003 6.4502V2.0498Z" fill="#303036"/>
<path d="M6.51313 8.10107C6.43624 8.27539 6.24361 8.3495 6.08293 8.26611C5.92236 8.18266 5.85494 7.97362 5.93173 7.79932L6.51313 8.10107ZM8.25012 3.00049C8.37415 3.00056 8.48719 3.07739 8.54082 3.19873L10.5685 7.79932C10.6452 7.97366 10.5771 8.18275 10.4164 8.26611C10.2558 8.34928 10.063 8.27535 9.98621 8.10107L8.24922 4.16162L6.51313 8.10107L6.22243 7.94971L5.93173 7.79932L7.95852 3.19873L8.00982 3.1167C8.07008 3.04372 8.15701 3.00049 8.25012 3.00049Z" fill="#303036"/>
<path d="M9.35587 5.60059L9.42067 5.60742C9.56773 5.64 9.67807 5.781 9.67807 5.9502C9.67807 6.11939 9.56773 6.26039 9.42067 6.29297L9.35587 6.2998H7.18328C7.00521 6.29971 6.86108 6.14344 6.86108 5.9502C6.86108 5.75695 7.00521 5.60068 7.18328 5.60059H9.35587Z" fill="#303036"/>
<path d="M24.1007 8.14941C24.1006 8.09561 24.0823 8.05614 24.0646 8.03613C24.0565 8.02704 24.046 8.01967 24.0323 8.01367C24.0186 8.00767 23.993 8 23.9503 8H12.7501C12.7075 8.00005 12.6818 8.00768 12.6681 8.01367C12.6546 8.01963 12.6449 8.02713 12.6368 8.03613C12.6191 8.0561 12.6008 8.0955 12.6007 8.14941V15.3496L12.6056 15.4014C12.6083 15.4148 12.6114 15.4247 12.6144 15.4316C12.6204 15.4453 12.6277 15.4558 12.6368 15.4639C12.6568 15.4816 12.6963 15.4999 12.7501 15.5H17.2501L17.3087 15.5039C17.367 15.5115 17.4235 15.5301 17.4747 15.5596L21.5001 17.8721V16.5498C21.5001 16.2278 21.6258 15.9532 21.839 15.7637C22.044 15.5815 22.305 15.5 22.5509 15.5H23.9503C23.9928 15.5 24.0185 15.4923 24.0323 15.4863C24.046 15.4803 24.0565 15.472 24.0646 15.4629C24.0822 15.4427 24.1007 15.4033 24.1007 15.3496V8.14941ZM25.0001 15.3496C25.0001 15.5955 24.9187 15.8565 24.7365 16.0615C24.5469 16.2746 24.2723 16.3994 23.9503 16.3994H22.5509C22.4968 16.3994 22.4567 16.4187 22.4366 16.4365C22.4277 16.4445 22.4201 16.4543 22.4142 16.4678C22.4082 16.4815 22.4005 16.5071 22.4005 16.5498V18.6494C22.4005 18.81 22.3148 18.9586 22.1759 19.0391C22.037 19.1195 21.8659 19.1199 21.7267 19.04L17.13 16.3994H12.7501C12.5044 16.3993 12.2441 16.3179 12.0392 16.1357C11.8527 15.97 11.7331 15.7395 11.7062 15.4688L11.7003 15.3496V8.14941C11.7004 7.90371 11.782 7.64333 11.964 7.43848C12.1535 7.2253 12.4282 7.09971 12.7501 7.09961H23.9503C24.2724 7.09961 24.5469 7.22528 24.7365 7.43848C24.9186 7.64336 25 7.90364 25.0001 8.14941V15.3496Z" fill="#303036"/>
<path d="M20.751 10.0002L20.8213 10.0071C20.9806 10.0398 21.1006 10.1808 21.1006 10.3499C21.1006 10.5189 20.9806 10.6599 20.8213 10.6926L20.751 10.6995H16.1504C15.9571 10.6995 15.8008 10.5432 15.8008 10.3499C15.8008 10.1566 15.9571 10.0002 16.1504 10.0002H20.751Z" fill="#303036"/>
<path d="M18.0009 10.3499V9.34985C18.0009 9.15655 18.1572 9.00024 18.3505 9.00024C18.5438 9.00024 18.7001 9.15655 18.7001 9.34985V10.3499C18.7001 10.5432 18.5438 10.6995 18.3505 10.6995C18.1572 10.6995 18.0009 10.5432 18.0009 10.3499Z" fill="#303036"/>
<path d="M19.5007 10.3499C19.5007 10.1566 19.6571 10.0004 19.8503 10.0002C20.0436 10.0002 20.2009 10.1566 20.2009 10.3499C20.2009 10.6025 20.1124 11.0183 19.9997 11.4192C19.9131 11.7273 19.8029 12.0566 19.6843 12.3401L19.5632 12.6067C19.5604 12.6123 19.5575 12.6178 19.5544 12.6233C18.7135 14.0949 17.8586 14.6321 17.2448 15.0413L17.1823 15.0745C17.0315 15.1359 16.8533 15.0844 16.7595 14.9436C16.6524 14.7828 16.6954 14.5654 16.8562 14.4583L17.3239 14.1399C17.8138 13.7843 18.371 13.2773 18.9372 12.2913C19.0732 12.0188 19.2167 11.6181 19.3259 11.2297C19.4381 10.8308 19.5007 10.4971 19.5007 10.3499Z" fill="#303036"/>
<path d="M17.2743 11.2081C17.4393 11.1714 17.6033 11.2579 17.6699 11.4064L17.6923 11.4737L17.7656 11.7491C17.9515 12.3344 18.2352 12.5463 18.5302 12.9396C18.5791 13.0048 18.6842 13.1087 18.8466 13.2423C19.0037 13.3715 19.1981 13.5152 19.4111 13.6612C19.7315 13.881 20.0849 14.1 20.4033 14.2765L20.707 14.4366L20.7665 14.4747C20.8948 14.5752 20.9389 14.755 20.8632 14.9064C20.7875 15.0577 20.6172 15.1303 20.4599 15.088L20.3935 15.0626L20.0654 14.8898C19.7239 14.7006 19.3514 14.4687 19.0156 14.2384C18.7911 14.0845 18.5785 13.9281 18.4013 13.7823C18.2295 13.641 18.0717 13.4942 17.9706 13.3595C17.7243 13.0311 17.2894 12.6701 17.0536 11.8058L17.0087 11.6261L17.0009 11.5558C16.998 11.3929 17.1092 11.2449 17.2743 11.2081Z" fill="#303036"/>
</svg>
