<svg width="26" height="26" viewBox="0 0 26 26" fill="none" xmlns="http://www.w3.org/2000/svg">
<path d="M12.8926 4.00488C17.673 4.00498 21.5487 7.88071 21.5488 12.6611C21.5488 14.2168 21.1364 15.6759 20.418 16.9375H20.1738L19.0215 16.293C19.2371 16.3589 19.4417 16.4251 19.6338 16.4932C20.2237 15.4576 20.5836 14.274 20.6396 13.0107H17.627C17.5987 13.8422 17.4698 14.6107 17.2744 15.3164L16.6416 14.9629C16.7968 14.3597 16.9002 13.7092 16.9258 13.0107H13.2422V15.4355C14.3253 15.4515 15.3313 15.5424 16.2441 15.6777V16.4756C16.244 16.7619 16.0853 16.9659 15.835 17.0293C15.9477 16.8187 16.0565 16.5991 16.1572 16.3701C15.2737 16.2383 14.2965 16.1508 13.2422 16.1348V20.167C13.4393 20.0061 13.6753 19.7987 13.9326 19.5469V21.252C13.5915 21.2928 13.2447 21.3174 12.8926 21.3174C8.11199 21.3174 4.23634 17.4417 4.23633 12.6611C4.23637 11.1527 4.62328 9.73493 5.30176 8.5H5.72656L6.51172 8.93848C6.50689 8.93697 6.50188 8.93608 6.49707 8.93457L6.15527 8.82031C5.56251 9.85788 5.20174 11.0448 5.14551 12.3115H8.15918C8.18684 11.4967 8.30852 10.742 8.49707 10.0479L9.12988 10.4014C8.981 10.9928 8.8834 11.6294 8.8584 12.3115H12.543V9.88574C11.5147 9.86943 10.5475 9.77942 9.65625 9.64746V8.96289C9.65625 8.95572 9.65703 8.94848 9.65723 8.94141C10.5442 9.07728 11.5116 9.16963 12.543 9.18652V5.1543C12.3757 5.29073 12.1805 5.46111 11.9678 5.66309V4.05469C12.2716 4.02242 12.5802 4.00488 12.8926 4.00488ZM8.92285 16.5039C8.02407 16.6745 7.22364 16.8893 6.54199 17.1104C7.71852 18.7866 9.53996 19.9753 11.6475 20.3154C10.8106 19.5508 9.66996 18.2784 8.92285 16.5039ZM12.543 16.1348C11.5019 16.1518 10.5256 16.2437 9.63184 16.3818C10.4742 18.2898 11.795 19.5577 12.543 20.168V16.1348ZM5.14551 13.0107C5.20171 14.2775 5.56251 15.4643 6.15527 16.502L6.49707 16.3887C7.13422 16.189 7.86356 15.9996 8.66992 15.8418C8.38361 14.9972 8.19453 14.0531 8.15918 13.0107H5.14551ZM8.8584 13.0107C8.89497 14.0093 9.08533 14.911 9.36816 15.7148C10.3376 15.558 11.4031 15.4536 12.543 15.4355V13.0107H8.8584ZM16.4199 9.61914C15.461 9.76951 14.3952 9.86874 13.2422 9.88574V12.3115H16.9268C16.8904 11.3178 16.7005 10.4201 16.4199 9.61914ZM19.6338 8.82812C18.9432 9.07286 18.097 9.30953 17.1201 9.49707C17.4034 10.3375 17.5928 11.2759 17.6279 12.3115H20.6396C20.5836 11.0479 20.224 9.8639 19.6338 8.82812ZM13.2422 9.18555C14.2962 9.16951 15.273 9.08198 16.1562 8.9502C15.3141 7.03714 13.9914 5.76551 13.2422 5.1543V9.18555ZM9.82129 8.53809C9.76711 8.64668 9.71514 8.75791 9.66406 8.87109C9.68132 8.7352 9.73522 8.62132 9.82129 8.53809ZM14.1406 5.00684C14.9795 5.77362 16.1225 7.05132 16.8691 8.83203C17.7908 8.66082 18.5915 8.44386 19.249 8.21973C18.0732 6.54011 16.2502 5.34818 14.1406 5.00684Z" fill="#303036"/>
<path d="M13.4824 17.6311C13.4824 17.3554 13.5766 17.0906 13.7734 16.8938C13.9703 16.6969 14.2351 16.6027 14.5107 16.6027H15.666C15.7371 16.6027 15.7612 16.5808 15.7666 16.5754C15.772 16.57 15.7939 16.5459 15.7939 16.4748V14.7414L15.7979 14.6818C15.816 14.5457 15.8963 14.4244 16.0166 14.3537C16.1543 14.2729 16.3245 14.271 16.4639 14.3488L20.292 16.4875H23.8721C24.1477 16.4875 24.4125 16.5816 24.6094 16.7785C24.8061 16.9753 24.9003 17.2394 24.9004 17.5148V23.4094C24.9004 23.7466 24.728 24.0141 24.5098 24.1838C24.2964 24.3497 24.0246 24.4377 23.7568 24.4377H14.3945C14.1328 24.4376 13.9086 24.3111 13.7588 24.1613C13.609 24.0115 13.4825 23.7874 13.4824 23.5256V17.6311ZM16.6943 16.4748C16.6943 16.7504 16.6002 17.0152 16.4033 17.2121C16.2064 17.409 15.9416 17.5031 15.666 17.5031H14.5107C14.4397 17.5031 14.4156 17.5251 14.4102 17.5305C14.4048 17.5359 14.3828 17.56 14.3828 17.6311V23.509C14.3835 23.5101 14.3838 23.5116 14.3848 23.5129C14.3875 23.5167 14.3915 23.5206 14.3955 23.5246C14.3996 23.5287 14.4034 23.5326 14.4072 23.5354C14.4083 23.5361 14.4093 23.5367 14.4102 23.5373H23.7568C23.8356 23.5373 23.9103 23.51 23.957 23.4738C23.9989 23.4413 24 23.4188 24 23.4094V17.5148C23.9999 17.4441 23.978 17.4196 23.9727 17.4143C23.9666 17.4084 23.9417 17.3869 23.8721 17.3869H20.1738C20.097 17.3869 20.0212 17.3678 19.9541 17.3303L16.6943 15.508V16.4748Z" fill="#303036"/>
<path d="M21.0982 18.4373L21.1695 18.4441C21.3287 18.4769 21.4488 18.6179 21.4488 18.7869C21.4488 18.9558 21.3287 19.0968 21.1695 19.1296L21.0982 19.1365H17.4C17.2067 19.1365 17.0504 18.9802 17.0504 18.7869C17.0504 18.5936 17.2067 18.4373 17.4 18.4373H21.0982Z" fill="#303036"/>
<path d="M18.784 18.7864V17.9778C18.784 17.7845 18.9403 17.6282 19.1336 17.6282C19.3269 17.6282 19.4832 17.7845 19.4832 17.9778V18.7864C19.4832 18.9797 19.3269 19.137 19.1336 19.137C18.9403 19.137 18.784 18.9797 18.784 18.7864Z" fill="#303036"/>
<path d="M20.055 18.7869C20.055 18.5937 20.2115 18.4375 20.4046 18.4373C20.5979 18.4373 20.7552 18.5936 20.7552 18.7869C20.7552 19.0111 20.6864 19.3678 20.5814 19.7126C20.4795 20.0472 20.3253 20.4228 20.1263 20.7L20.1273 20.7009C19.4097 21.8968 18.7799 22.4262 18.1078 22.6951C17.9283 22.7667 17.7244 22.6792 17.6527 22.4998C17.5809 22.3203 17.6685 22.1165 17.848 22.0447C18.3315 21.8512 18.8575 21.4559 19.5267 20.3406L19.5472 20.3103C19.6843 20.1274 19.8147 19.8265 19.9115 19.5085C20.0088 19.1889 20.055 18.9094 20.055 18.7869Z" fill="#303036"/>
<path d="M18.2142 19.3795C18.3744 19.3263 18.5459 19.3952 18.6273 19.5358L18.6566 19.6012L18.7377 19.8278C18.9257 20.3233 19.1152 20.5852 19.3812 20.8512C19.5345 21.0045 19.8338 21.2505 20.183 21.4879C20.5343 21.7268 20.9077 21.9372 21.2093 22.0377C21.3925 22.0989 21.491 22.2969 21.43 22.4801C21.3689 22.6635 21.171 22.7629 20.9877 22.7018C20.5959 22.5712 20.1604 22.3193 19.7894 22.067C19.4164 21.8134 19.0796 21.5398 18.8861 21.3463C18.5452 21.0055 18.305 20.6598 18.0853 20.0836L17.9925 19.8219L17.9769 19.7536C17.9572 19.5918 18.0536 19.4331 18.2142 19.3795Z" fill="#303036"/>
<path d="M11.5176 1.92773C11.517 1.92685 11.5164 1.92585 11.5156 1.9248C11.5129 1.92097 11.509 1.91717 11.5049 1.91309C11.5008 1.909 11.497 1.90506 11.4932 1.90234C11.4921 1.9016 11.4911 1.90096 11.4902 1.90039H2.02832C1.97037 1.90039 1.92866 1.90537 1.90039 1.91113V7.92285C1.90045 7.99373 1.92236 8.01806 1.92773 8.02344C1.93362 8.02923 1.95833 8.05078 2.02832 8.05078H5.72656L5.83984 8.06543C5.87674 8.07504 5.91274 8.08867 5.94629 8.10742L9.20605 9.92871V8.96289C9.20605 8.68726 9.30019 8.42247 9.49707 8.22559C9.69394 8.02876 9.95878 7.93457 10.2344 7.93457H11.3896C11.459 7.93457 11.4841 7.91421 11.4902 7.9082C11.4956 7.90282 11.5176 7.87775 11.5176 7.80664V1.92773ZM12.418 7.80664C12.418 8.08224 12.3238 8.34707 12.127 8.54395C11.9301 8.74083 11.6653 8.83496 11.3896 8.83496H10.2344C10.1636 8.83496 10.1393 8.8568 10.1338 8.8623C10.1284 8.86768 10.1064 8.89179 10.1064 8.96289V10.6963C10.1064 10.8559 10.0215 11.0042 9.88379 11.085C9.74614 11.1656 9.57579 11.1667 9.43652 11.0889L5.6084 8.9502H2.02832C1.75282 8.9502 1.48787 8.85686 1.29102 8.66016C1.0942 8.46335 1.00007 8.19837 1 7.92285V1.91211C1.0001 1.62797 1.10303 1.36034 1.34766 1.18555C1.56223 1.03228 1.82042 1 2.02832 1H11.5059C11.7676 1.00013 11.9918 1.1266 12.1416 1.27637C12.2914 1.42613 12.4178 1.65035 12.418 1.91211V7.80664Z" fill="#303036"/>
<path d="M6.65545 2.60305C6.79252 2.60472 6.91649 2.68567 6.97186 2.81106L8.70526 6.74075L8.72674 6.80813C8.76144 6.96723 8.68122 7.13426 8.52655 7.20266C8.37189 7.27089 8.19407 7.21805 8.09979 7.08548L8.06463 7.02395L6.64081 3.79641L5.11834 7.03176C5.03589 7.20634 4.82727 7.28099 4.65252 7.19876C4.47791 7.11632 4.40329 6.9077 4.48553 6.73294L6.33416 2.80325L6.38983 2.71926C6.45617 2.64499 6.55268 2.6018 6.65545 2.60305Z" fill="#303036"/>
<path d="M7.57544 4.91455L7.64673 4.92139C7.80598 4.95421 7.92603 5.09519 7.92603 5.26416C7.92603 5.43313 7.80598 5.57411 7.64673 5.60693L7.57544 5.61377L5.84204 5.61377C5.64874 5.61377 5.49243 5.45746 5.49243 5.26416C5.49243 5.07086 5.64874 4.91455 5.84204 4.91455L7.57544 4.91455Z" fill="#303036"/>
</svg>
