<svg width="20" height="20" viewBox="0 0 20 20" fill="none" xmlns="http://www.w3.org/2000/svg">
<path d="M5 6C7.20867 6.00018 8.99963 7.7904 9 9.99902C9 12.208 7.2089 13.9998 5 14C2.79104 13.9999 1 12.208 1 9.99902C1.00037 7.79035 2.79127 6.00011 5 6ZM5 7.70117C4.81328 7.70129 4.66223 7.85332 4.66211 8.04004V9.66211H3.03906C2.85254 9.66246 2.70129 9.81343 2.70117 10C2.70143 10.1865 2.85263 10.3385 3.03906 10.3389H4.66211V12.0137L4.66895 12.082C4.70081 12.2358 4.83685 12.3524 5 12.3525C5.16319 12.3524 5.30026 12.2359 5.33203 12.082L5.33887 12.0137V10.3389H6.95996L6.9707 10.3379L7.01855 10.333L7.02734 10.3311C7.18153 10.2996 7.29762 10.1636 7.29785 10C7.29776 9.85668 7.20871 9.73481 7.08301 9.68555L7.02734 9.66895L7.01855 9.66699L6.9707 9.66211H5.33887V8.04004C5.33875 7.85335 5.18667 7.70134 5 7.70117Z" fill="#303036"/>
<path d="M16.6003 5.9502C16.6003 8.13172 14.8316 9.90039 12.6501 9.90039C10.4686 9.90039 8.69989 8.13172 8.69989 5.9502C8.69989 3.76867 10.4686 2 12.6501 2C14.8316 2 16.6003 3.76867 16.6003 5.9502Z" fill="#303036"/>
<path d="M19.4003 17.9497C19.4003 18.2241 19.2536 18.4301 19.0751 18.5493C18.9097 18.6596 18.7164 18.6997 18.5497 18.6997H6.85046C6.68371 18.6997 6.49045 18.6596 6.32507 18.5493C6.14652 18.4301 5.99988 18.2241 5.99988 17.9497V14.3267C7.99988 13.8267 9 12.5 9.35925 10.6362C10.3073 10.4779 11.3941 10.3999 12.5497 10.3999C13.9568 10.3999 14.7938 10.3995 16.3387 10.7085L16.6415 10.7808C18.143 11.1912 19.4002 12.3733 19.4003 13.9536V17.9497Z" fill="#303036"/>
</svg>
