<svg width="26" height="20" viewBox="0 0 26 20" fill="none" xmlns="http://www.w3.org/2000/svg">
<path d="M20.3779 3.00781C20.6719 3.04297 20.9316 3.19539 21.1182 3.38184C21.3312 3.59495 21.4999 3.90377 21.5 4.25V13.1504C21.4999 13.4966 21.3312 13.8054 21.1182 14.0186C20.9051 14.2316 20.5962 14.4003 20.25 14.4004H15.0498C15.0248 14.4004 15.003 14.4004 14.9805 14.4014C14.9582 14.4024 14.9391 14.403 14.9248 14.4053L14.9229 14.4082L14.873 14.4414L9.07227 17.7412C8.93309 17.8202 8.76242 17.8197 8.62402 17.7393C8.4856 17.6588 8.40053 17.5107 8.40039 17.3506V14.6504C8.40039 14.5968 8.369 14.5048 8.28223 14.418C8.19551 14.3313 8.10346 14.2999 8.0498 14.2998H6.25C5.90377 14.2997 5.59495 14.131 5.38184 13.918C5.16882 13.7048 5 13.396 5 13.0498V4.15039C5 3.50186 5.50186 3 6.15039 3H20.25L20.3779 3.00781ZM9.75 8.0498C9.19781 8.04982 8.75013 8.49764 8.75 9.0498C8.75 9.60208 9.19773 10.0498 9.75 10.0498C10.3023 10.0498 10.75 9.60209 10.75 9.0498C10.7499 8.49763 10.3022 8.0498 9.75 8.0498ZM13.25 8.0498C12.6978 8.04982 12.2501 8.49764 12.25 9.0498C12.25 9.60208 12.6977 10.0498 13.25 10.0498C13.8023 10.0498 14.25 9.60209 14.25 9.0498C14.2499 8.49763 13.8022 8.0498 13.25 8.0498ZM16.75 8.0498C16.1978 8.04982 15.7501 8.49764 15.75 9.0498C15.75 9.60208 16.1977 10.0498 16.75 10.0498C17.3023 10.0498 17.75 9.60209 17.75 9.0498C17.7499 8.49763 17.3022 8.0498 16.75 8.0498Z" fill="#303036"/>
</svg>
