<svg width="20" height="20" viewBox="0 0 20 20" fill="none" xmlns="http://www.w3.org/2000/svg">
<path d="M18.5 13.1504C18.4999 13.7987 17.9989 14.2996 17.3506 14.2998H13.4277L10.5576 16.9795C10.3848 17.1408 10.1163 17.1406 9.94336 16.9795L7.07324 14.2998H3.15039C2.50191 14.2998 2.0001 13.7988 2 13.1504V4.15039C2 3.50188 2.50185 3 3.15039 3H17.3506L17.4697 3.00586C18.0593 3.06321 18.5 3.54232 18.5 4.15039V13.1504Z" fill="#303036"/>
<path d="M5.75 8.75049C5.75 8.1982 6.19772 7.75049 6.75 7.75049C7.30228 7.75049 7.75 8.1982 7.75 8.75049C7.75 9.30277 7.30228 9.75049 6.75 9.75049C6.19772 9.75049 5.75 9.30277 5.75 8.75049Z" fill="white"/>
<path d="M9.25 8.75049C9.25 8.1982 9.69772 7.75049 10.25 7.75049C10.8023 7.75049 11.25 8.1982 11.25 8.75049C11.25 9.30277 10.8023 9.75049 10.25 9.75049C9.69772 9.75049 9.25 9.30277 9.25 8.75049Z" fill="white"/>
<path d="M12.75 8.75049C12.75 8.1982 13.1977 7.75049 13.75 7.75049C14.3023 7.75049 14.75 8.1982 14.75 8.75049C14.75 9.30277 14.3023 9.75049 13.75 9.75049C13.1977 9.75049 12.75 9.30277 12.75 8.75049Z" fill="white"/>
</svg>
