<svg width="13" height="26" viewBox="0 0 13 26" fill="none" xmlns="http://www.w3.org/2000/svg">
<path d="M0.415083 13.8476H3.23607V25.5806C3.23607 25.8123 3.42186 26 3.65116 26H8.43425C8.66354 26 8.84933 25.8123 8.84933 25.5806V13.9029H12.0923C12.3032 13.9029 12.4806 13.743 12.5046 13.5314L12.9972 9.21188C13.0107 9.09304 12.9734 8.97403 12.8947 8.88487C12.816 8.79563 12.7032 8.74456 12.5849 8.74456H8.8495V6.03686C8.8495 5.22063 9.2845 4.80673 10.1426 4.80673C10.2648 4.80673 12.5849 4.80673 12.5849 4.80673C12.8142 4.80673 13 4.61894 13 4.38737V0.422458C13 0.190806 12.8142 0.00310323 12.5849 0.00310323H9.219C9.19526 0.00192903 9.14255 0 9.06484 0C8.48082 0 6.45081 0.115826 4.84726 1.60621C3.07054 3.2578 3.31751 5.23531 3.37654 5.57817V8.74447H0.415083C0.185791 8.74447 0 8.93217 0 9.16383V13.4282C0 13.6598 0.185791 13.8476 0.415083 13.8476Z" fill="#0074A7"/>
</svg>
