<svg width="20" height="20" viewBox="0 0 20 20" fill="none" xmlns="http://www.w3.org/2000/svg">
<path d="M9.76068 6.09082C9.57473 5.80448 9.43853 5.56768 9.30176 5.34668C9.12531 5.06165 8.86286 4.7517 8.53125 4.46582C7.86427 3.89084 6.96453 3.4502 6 3.4502C4.04853 3.4502 2.4502 5.04853 2.4502 7C2.4502 7.88555 2.80585 8.76966 3.41797 9.38184L10 15.9639L16.582 9.38184L16.6934 9.26367C17.2369 8.65889 17.5498 7.83023 17.5498 7C17.5498 5.04853 15.9515 3.4502 14 3.4502C13.0355 3.4502 12.1357 3.89084 11.4688 4.46582C11.1371 4.7517 10.8778 5.05665 10.6982 5.34668C10.5187 5.63671 10.4325 5.80665 10.2456 6.09082C10.1522 6.23284 10 6.5 10 6.4502C10 6.5 9.85252 6.23223 9.76068 6.09082ZM18.4502 7C18.4502 8.04477 18.0603 9.09135 17.3623 9.86719L17.2178 10.0186L10.3184 16.918C10.1426 17.0937 9.85738 17.0937 9.68164 16.918L2.78223 10.0186C1.9944 9.23073 1.5498 8.1144 1.5498 7C1.5498 4.55147 3.55147 2.5498 6 2.5498C7.23547 2.5498 8.33612 3.10916 9.11914 3.78418C9.47691 4.09263 9.77555 4.43503 10 4.77344C10.2244 4.43503 10.5231 4.09263 10.8809 3.78418C11.6639 3.10916 12.7645 2.5498 14 2.5498C16.4485 2.5498 18.4502 4.55147 18.4502 7Z" fill="#303036"/>
</svg>
