<svg width="20" height="20" viewBox="0 0 20 20" fill="none" xmlns="http://www.w3.org/2000/svg">
<path d="M9.3457 3.63877C9.99335 3.07804 11 3.53793 11 4.39463V15.6056C10.9997 16.4619 9.99326 16.9218 9.3457 16.3615L5.46484 13.0001H3C2.4478 13.0001 2.00014 12.5523 2 12.0001V8.00011C2 7.44782 2.44772 7.00011 3 7.00011H5.46484L9.3457 3.63877Z" fill="#303036"/>
<path d="M16.7553 8.02599C16.8166 7.98552 16.8997 7.99234 16.9537 8.04629C17.0077 8.10025 17.0145 8.18341 16.974 8.2447L16.9537 8.26937L15.2231 10L16.9537 11.7306L16.974 11.7553C17.0145 11.8166 17.0077 11.8997 16.9537 11.9537C16.8997 12.0077 16.8166 12.0145 16.7553 11.974L16.7306 11.9537L15 10.2231L13.2694 11.9537C13.2077 12.0154 13.108 12.0154 13.0463 11.9537C12.9846 11.892 12.9846 11.7923 13.0463 11.7306L14.7769 10L13.0463 8.26937L13.026 8.2447C12.9855 8.18341 12.9923 8.10025 13.0463 8.04629C13.1003 7.99234 13.1834 7.98552 13.2447 8.02599L13.2694 8.04629L15 9.77692L16.7306 8.04629L16.7553 8.02599Z" fill="#303036" stroke="#303036" stroke-linecap="round"/>
<path d="M16.7553 8.02599C16.8166 7.98552 16.8997 7.99234 16.9537 8.04629C17.0077 8.10025 17.0145 8.18341 16.974 8.2447L16.9537 8.26937L15.2231 10L16.9537 11.7306L16.974 11.7553C17.0145 11.8166 17.0077 11.8997 16.9537 11.9537C16.8997 12.0077 16.8166 12.0145 16.7553 11.974L16.7306 11.9537L15 10.2231L13.2694 11.9537C13.2077 12.0154 13.108 12.0154 13.0463 11.9537C12.9846 11.892 12.9846 11.7923 13.0463 11.7306L14.7769 10L13.0463 8.26937L13.026 8.2447C12.9855 8.18341 12.9923 8.10025 13.0463 8.04629C13.1003 7.99234 13.1834 7.98552 13.2447 8.02599L13.2694 8.04629L15 9.77692L16.7306 8.04629L16.7553 8.02599Z" fill="#303036" stroke="#303036" stroke-linecap="round"/>
</svg>
