<svg width="20" height="20" viewBox="0 0 20 20" fill="none" xmlns="http://www.w3.org/2000/svg">
<g clip-path="url(#clip0_149_576)">
<path d="M3.88909 4.11091C6.03697 1.96303 9.51938 1.96303 11.6673 4.11091C13.6959 6.13957 13.807 9.35745 12.0036 11.5183L16.3139 15.8286L16.3781 15.9066C16.5062 16.1007 16.4847 16.3648 16.3139 16.5357C16.143 16.7066 15.8789 16.7281 15.6848 16.5999L15.6068 16.5357L11.2964 12.2254C9.13562 14.0288 5.91775 13.9177 3.88909 11.8891C1.7412 9.7412 1.7412 6.2588 3.88909 4.11091ZM4.59619 4.81802C2.83883 6.57538 2.83883 9.42462 4.59619 11.182C6.35355 12.9393 9.2028 12.9393 10.9602 11.182C12.7175 9.42462 12.7175 6.57538 10.9602 4.81802C9.2028 3.06066 6.35355 3.06066 4.59619 4.81802Z" fill="#303036"/>
</g>
<defs>
<clipPath id="clip0_149_576">
<rect width="20" height="20" fill="white"/>
</clipPath>
</defs>
</svg>
