<svg width="20" height="20" viewBox="0 0 20 20" fill="none" xmlns="http://www.w3.org/2000/svg">
<path d="M10 3C10.1819 3 10.3626 3.00768 10.541 3.02148C10.69 3.03321 10.8167 3.13191 10.8701 3.27148L11.6396 5.28223C11.7217 5.49638 11.9673 5.59735 12.1768 5.50391L14.1406 4.62793C14.2772 4.567 14.4372 4.58629 14.5508 4.68359C14.8249 4.91849 15.0805 5.17412 15.3154 5.44824C15.4127 5.56176 15.4329 5.72185 15.3721 5.8584L14.4961 7.82324C14.4026 8.03269 14.5036 8.27828 14.7178 8.36035L16.7275 9.12891C16.8671 9.18235 16.9666 9.30902 16.9785 9.45801C16.9926 9.63672 17 9.81773 17 10C17 10.182 16.9926 10.3626 16.9785 10.541C16.9666 10.69 16.8671 10.8166 16.7275 10.8701L14.7178 11.6396C14.5036 11.7217 14.4026 11.9673 14.4961 12.1768L15.3721 14.1406C15.4329 14.2772 15.4127 14.4373 15.3154 14.5508C15.0805 14.8249 14.8249 15.0805 14.5508 15.3154C14.4373 15.4127 14.2772 15.4329 14.1406 15.3721L12.1768 14.4961C11.9673 14.4026 11.7217 14.5036 11.6396 14.7178L10.8701 16.7275C10.8166 16.8671 10.69 16.9666 10.541 16.9785C10.3626 16.9926 10.182 17 10 17C9.81773 17 9.63672 16.9926 9.45801 16.9785C9.30902 16.9666 9.18235 16.8671 9.12891 16.7275L8.36035 14.7178C8.27828 14.5036 8.03269 14.4026 7.82324 14.4961L5.8584 15.3721C5.72185 15.4329 5.56176 15.4127 5.44824 15.3154C5.17412 15.0805 4.91849 14.8249 4.68359 14.5508C4.58629 14.4372 4.567 14.2772 4.62793 14.1406L5.50391 12.1768C5.59735 11.9673 5.49638 11.7217 5.28223 11.6396L3.27148 10.8701C3.13191 10.8167 3.03321 10.69 3.02148 10.541C3.00768 10.3626 3 10.1819 3 10C3 9.81793 3.00768 9.63754 3.02148 9.45898C3.03303 9.30978 3.13174 9.1824 3.27148 9.12891L5.28223 8.36035C5.49638 8.27828 5.59735 8.03269 5.50391 7.82324L4.62793 5.8584C4.56702 5.72183 4.58629 5.56179 4.68359 5.44824C4.91849 5.17414 5.17414 4.91849 5.44824 4.68359C5.56179 4.58629 5.72183 4.56702 5.8584 4.62793L7.82324 5.50391C8.03269 5.59735 8.27828 5.49638 8.36035 5.28223L9.12891 3.27148C9.1824 3.13174 9.30978 3.03303 9.45898 3.02148C9.63754 3.00768 9.81793 3 10 3ZM10 7C8.34315 7 7 8.34315 7 10C7 11.6569 8.34315 13 10 13C11.6569 13 13 11.6569 13 10C13 8.34315 11.6569 7 10 7Z" fill="#303036"/>
</svg>
