<svg width="545" height="66" viewBox="0 0 545 66" fill="none" xmlns="http://www.w3.org/2000/svg">
<rect width="545" height="66" rx="33" fill="#EFF4F8"/>
<path d="M32.78 40H31.26L33.48 25.92L38.6 37.18L43.82 25.9L45.9 40H44.38L43.12 30.72L38.58 40.56L34.1 30.72L32.78 40ZM54.9856 32.88V31.7H56.4256V40H54.9856V38.84C54.5056 39.46 53.6056 40.24 52.1456 40.24C50.0456 40.24 48.1056 38.76 48.1056 35.84C48.1056 32.98 50.0256 31.5 52.1456 31.5C53.7456 31.5 54.6056 32.38 54.9856 32.88ZM52.3056 32.78C50.8856 32.78 49.5856 33.82 49.5856 35.84C49.5856 37.62 50.5856 38.96 52.3056 38.96C54.0656 38.96 55.0656 37.5 55.0656 35.86C55.0656 33.72 53.5856 32.78 52.3056 32.78ZM59.153 40V31.7H60.593V32.6C60.733 32.38 61.353 31.5 62.473 31.5C62.913 31.5 63.393 31.66 63.753 31.84L63.073 33.14C62.753 32.92 62.453 32.86 62.233 32.86C61.653 32.86 61.293 33.1 61.073 33.38C60.833 33.7 60.593 34.26 60.593 35.62V40H59.153ZM65.0709 25.42H66.5109V34.78L69.5509 31.7H71.4309L67.8709 35.26L72.0709 40H70.1909L66.8709 36.22L66.5109 36.58V40H65.0709V25.42ZM79.4731 37.22L80.6731 37.88C80.4331 38.34 80.0731 38.84 79.6531 39.22C78.8931 39.9 77.9531 40.24 76.8931 40.24C74.8931 40.24 72.7931 38.98 72.7931 35.9C72.7931 33.42 74.3131 31.5 76.8131 31.5C78.4331 31.5 79.4531 32.3 79.9531 33.02C80.4731 33.76 80.7731 35.04 80.7331 36.14H74.2731C74.2931 37.86 75.4731 38.96 76.9131 38.96C77.5931 38.96 78.1331 38.76 78.6131 38.36C78.9931 38.04 79.2931 37.62 79.4731 37.22ZM74.3731 34.94H79.2531C79.0131 33.64 78.0331 32.78 76.8131 32.78C75.5931 32.78 74.5931 33.7 74.3731 34.94ZM85.862 33.02H84.422V40H82.982V33.02H82.102V31.7H82.982V28.7H84.422V31.7H85.862V33.02ZM87.2194 31.7H88.6594V40H87.2194V31.7ZM86.9194 28.56C86.9194 28 87.3794 27.54 87.9394 27.54C88.4994 27.54 88.9594 28 88.9594 28.56C88.9594 29.12 88.4994 29.58 87.9394 29.58C87.3794 29.58 86.9194 29.12 86.9194 28.56ZM91.3795 40V31.7H92.8195V32.66C93.0795 32.32 93.8195 31.5 95.1995 31.5C96.1795 31.5 97.0795 31.9 97.5795 32.64C97.9995 33.26 98.0595 33.94 98.0595 34.86V40H96.6195V34.9C96.6195 34.4 96.5795 33.82 96.2395 33.38C95.9595 33.02 95.5195 32.78 94.8795 32.78C94.3795 32.78 93.8395 32.92 93.4195 33.42C92.8595 34.08 92.8195 35.06 92.8195 35.66V40H91.3795ZM107.134 32.88V31.7H108.574V39.8C108.574 40.7 108.574 41.98 107.774 43.06C107.154 43.9 106.014 44.6 104.454 44.6C103.034 44.6 102.054 44.04 101.494 43.48C100.934 42.92 100.414 42.02 100.414 40.8H101.834C101.834 41.5 102.114 42.12 102.474 42.52C103.074 43.18 103.834 43.32 104.474 43.32C105.494 43.32 106.194 42.96 106.674 42.16C107.094 41.48 107.134 40.74 107.134 40.04V38.84C106.654 39.46 105.754 40.24 104.294 40.24C103.074 40.24 102.094 39.76 101.454 39.12C100.894 38.56 100.254 37.52 100.254 35.84C100.254 34.22 100.854 33.22 101.454 32.62C102.154 31.94 103.174 31.5 104.294 31.5C105.514 31.5 106.474 32.02 107.134 32.88ZM104.454 32.78C103.574 32.78 102.974 33.16 102.574 33.56C101.874 34.28 101.734 35.16 101.734 35.84C101.734 36.56 101.874 37.54 102.674 38.28C103.134 38.7 103.694 38.96 104.454 38.96C105.214 38.96 105.814 38.72 106.274 38.26C106.834 37.72 107.214 36.84 107.214 35.86C107.214 34.88 106.854 34.02 106.334 33.52C105.874 33.06 105.194 32.78 104.454 32.78ZM115.181 40.24C112.661 40.24 110.781 38.4 110.781 35.88C110.781 33.36 112.641 31.5 115.181 31.5C117.721 31.5 119.581 33.36 119.581 35.88C119.581 38.4 117.701 40.24 115.181 40.24ZM115.181 32.78C113.661 32.78 112.261 33.86 112.261 35.88C112.261 37.92 113.701 38.96 115.181 38.96C116.681 38.96 118.101 37.9 118.101 35.88C118.101 33.84 116.701 32.78 115.181 32.78ZM120.59 31.7H122.19L124.65 37.34L127.25 31.06L129.83 37.34L132.31 31.7H133.91L129.79 40.58L127.23 34.38L124.67 40.58L120.59 31.7ZM141.583 37.22L142.783 37.88C142.543 38.34 142.183 38.84 141.763 39.22C141.003 39.9 140.063 40.24 139.003 40.24C137.002 40.24 134.903 38.98 134.903 35.9C134.903 33.42 136.423 31.5 138.923 31.5C140.543 31.5 141.563 32.3 142.063 33.02C142.583 33.76 142.883 35.04 142.843 36.14H136.383C136.403 37.86 137.583 38.96 139.023 38.96C139.703 38.96 140.243 38.76 140.723 38.36C141.103 38.04 141.403 37.62 141.583 37.22ZM136.483 34.94H141.363C141.123 33.64 140.143 32.78 138.923 32.78C137.703 32.78 136.702 33.7 136.483 34.94Z" fill="#1A1A18"/>
<rect x="415" y="20" width="50" height="26" rx="13" fill="#009EE3"/>
<circle cx="452" cy="33" r="9" fill="#EFF4F8"/>
<path fill-rule="evenodd" clip-rule="evenodd" d="M485.42 25.4089C484.86 25.9541 484.86 26.846 485.42 27.3885L498.978 40.5924C499.258 40.865 499.628 41.0026 500 41C500.37 41 500.739 40.865 501.022 40.5924L514.58 27.3885C515.14 26.8433 515.14 25.9515 514.58 25.4089C514.02 24.8637 513.104 24.8637 512.547 25.4089L501.166 36.4928C500.525 37.1174 499.481 37.1174 498.84 36.4928L487.458 25.4089C486.898 24.8637 485.982 24.8637 485.425 25.4089" fill="#1A1A18"/>
</svg>
