<svg width="20" height="20" viewBox="0 0 20 20" fill="none" xmlns="http://www.w3.org/2000/svg">
<path d="M2.92488 11.6992C2.80876 11.9622 2.51795 12.0741 2.27547 11.9482C2.03333 11.8222 1.93207 11.5062 2.04793 11.2432L2.92488 11.6992ZM5.54695 4C5.73417 4.00011 5.90544 4.11569 5.98641 4.29883L9.04695 11.2432C9.16274 11.5063 9.05985 11.8223 8.81746 11.9482C8.57499 12.0738 8.28403 11.9622 8.16805 11.6992L6.96883 8.98047H4.12313L2.92488 11.6992L2.48641 11.4707L2.04793 11.2432L5.1075 4.29883L5.18465 4.1748C5.27554 4.0649 5.40665 4.0001 5.54695 4ZM4.58895 7.9248H6.50398L5.54598 5.75293L4.58895 7.9248Z" fill="#303036"/>
<path d="M13.8975 8C14.1928 8.00016 14.4316 8.2398 14.4316 8.53516V9.5293H17.5664L17.6738 9.53906C17.9173 9.58914 18.1006 9.80514 18.1006 10.0635C18.1004 10.3217 17.9172 10.5368 17.6738 10.5869L17.5664 10.5977H16.6689C16.614 10.9298 16.5246 11.3181 16.418 11.6973C16.2855 12.1681 16.1169 12.6722 15.9355 13.1055L15.751 13.5127C15.7467 13.5213 15.7421 13.5298 15.7373 13.5381C15.4801 13.9882 15.2206 14.38 14.9648 14.7256C15.1349 14.8541 15.3213 14.9897 15.5186 15.125C16.0082 15.4607 16.5488 15.7949 17.0352 16.0645L17.499 16.3096L17.5898 16.3682C17.7858 16.5217 17.8529 16.796 17.7373 17.0273C17.6216 17.2587 17.3616 17.3704 17.1211 17.3057L17.0195 17.2666L16.5186 17.002C15.9968 16.7129 15.4273 16.3587 14.9141 16.0068C14.6929 15.8552 14.4807 15.6993 14.2842 15.5498C13.5119 16.3822 12.7888 16.8456 12.207 17.2334L12.1113 17.2842C11.8808 17.378 11.6083 17.3001 11.4648 17.085C11.3012 16.8392 11.3675 16.5066 11.6133 16.3428L12.3281 15.8564C12.6901 15.5937 13.0746 15.2752 13.4746 14.8477C13.4159 14.7847 13.3618 14.7235 13.3164 14.6631C12.9398 14.1612 12.2754 13.609 11.915 12.2881L11.8467 12.0137L11.834 11.9062C11.8296 11.6575 11.9998 11.4313 12.252 11.375C12.504 11.319 12.7546 11.4511 12.8564 11.6777L12.8916 11.7812L13.0029 12.2021C13.2853 13.0908 13.7154 13.4162 14.1631 14.0098C14.3714 13.7219 14.5827 13.3981 14.7939 13.0303C15.0017 12.6139 15.2208 12.0016 15.3877 11.4082C15.4727 11.1061 15.5396 10.8283 15.585 10.5977H10.5342C10.2389 10.5975 10.0002 10.3587 10 10.0635C10 9.76809 10.2388 9.52941 10.5342 9.5293H13.3633V8.53516C13.3633 8.2397 13.602 8 13.8975 8Z" fill="#303036"/>
<path d="M8.33992 4.49282C9.36266 4.23156 10.1896 4.15249 10.9405 4.30923C11.6499 4.45741 12.2521 4.8086 12.8643 5.33462L13.4259 4.92837C13.5505 4.83802 13.7264 4.91683 13.7423 5.06997L13.9395 6.9645C13.9554 7.11764 13.7988 7.23139 13.6583 7.1686L11.919 6.39126C11.7786 6.32849 11.7585 6.13695 11.8829 6.04653L12.1964 5.81899C11.708 5.42435 11.2648 5.1943 10.7774 5.09243C10.1122 4.95356 9.30656 5.03929 8.1114 5.38442L8.03132 5.39907C7.84595 5.41381 7.66904 5.29653 7.61531 5.11098C7.55439 4.899 7.67685 4.67723 7.88874 4.61587L8.33992 4.49282Z" fill="#303036"/>
<path d="M9.46591 16.0982C8.41057 16.0752 7.59273 15.9294 6.91151 15.5768C6.26793 15.2436 5.78215 14.7436 5.33361 14.0726L4.68363 14.3132C4.53929 14.3667 4.39107 14.2436 4.41686 14.0918L4.73547 12.2139C4.76126 12.0621 4.94264 11.9945 5.06119 12.0928L6.5279 13.3085C6.64631 13.4067 6.6142 13.5966 6.47015 13.6503L6.1071 13.7853C6.47155 14.2966 6.83674 14.6372 7.27888 14.8662C7.88241 15.1785 8.68147 15.3122 9.92541 15.3006L10.0065 15.308C10.189 15.3436 10.3279 15.5041 10.3299 15.6972C10.3316 15.9178 10.1541 16.0985 9.93356 16.1008L9.46591 16.0982Z" fill="#303036"/>
</svg>
