<svg width="95" height="95" viewBox="0 0 95 95" fill="none" xmlns="http://www.w3.org/2000/svg">
<rect width="95" height="95" rx="47.5" fill="#00344D"/>
<path d="M40.1737 58.5153L31.6337 66.9304C29.5097 69.0202 26.9125 70.0178 23.9521 69.8729C20.9917 69.728 18.5046 68.4797 16.5952 66.1892L16.4356 65.9997C12.9469 61.82 13.2386 55.6508 17.1014 51.8222L40.0527 29.0679L40.1682 28.9509C44.1631 25.0164 50.5296 25.0164 54.5244 28.9509L54.64 29.0679L77.8389 51.655C81.7952 55.5114 82.0759 61.82 78.4662 66.0164L78.114 66.4232C76.1881 68.6636 73.712 69.8673 70.7791 69.9899C67.8462 70.1125 65.282 69.115 63.1745 67.0474L54.5189 58.5153C50.5296 54.5808 44.1576 54.5808 40.1627 58.5153" fill="#EFF4F8"/>
</svg>
